<svg width="104" height="104" viewBox="0 0 104 104" fill="none" xmlns="http://www.w3.org/2000/svg">
<path d="M49.4029 51.0995C50.5573 52.3135 52.4374 52.3135 53.6084 51.0995L71.5683 32.3643C76.7798 26.9177 76.483 17.8946 70.6448 12.8745C65.5652 8.49422 57.9953 9.28169 53.3445 14.1377L51.4974 16.0572L49.6667 14.1541C45.016 9.28169 37.4461 8.49422 32.3665 12.8745C26.5448 17.8946 26.2314 26.9177 31.4429 32.3643L49.4029 51.0995ZM97.2301 63.8302C95.284 62.0748 92.2495 62.1896 90.2044 63.8302L74.9657 75.9539C73.1021 77.4468 70.7767 78.2507 68.3688 78.2507H48.8586C47.4073 78.2507 46.2199 77.0695 46.2199 75.6258C46.2199 74.1821 47.4073 73.0009 48.8586 73.0009H61.772C64.3942 73.0009 66.8351 71.2127 67.2639 68.637C67.8081 65.3559 65.2683 62.5013 62.0523 62.5013H35.6649C31.212 62.5013 26.9076 64.027 23.4442 66.816L15.7754 73.0009H6.63874C5.18743 73.0009 4 74.1821 4 75.6258V91.3751C4 92.8188 5.18743 94 6.63874 94H65.4827C67.8741 94 70.1995 93.1961 72.0796 91.7032L97.0157 71.8525C99.5225 69.8674 99.7204 66.0613 97.2301 63.8302Z" stroke="#C7DF9E" stroke-width="4"/>
</svg>
