<svg width="18" height="18" viewBox="0 0 18 18" fill="none" xmlns="http://www.w3.org/2000/svg">
<path d="M17.8125 1.5V16.5C17.8121 16.848 17.6737 17.1816 17.4276 17.4276C17.1816 17.6737 16.848 17.8121 16.5 17.8125H1.5C1.15203 17.8121 0.818416 17.6737 0.572361 17.4276C0.326305 17.1816 0.187897 16.848 0.1875 16.5V1.5C0.187897 1.15203 0.326305 0.818416 0.572361 0.572361C0.818416 0.326305 1.15203 0.187897 1.5 0.1875H16.5C16.848 0.187897 17.1816 0.326305 17.4276 0.572361C17.6737 0.818416 17.8121 1.15203 17.8125 1.5ZM16.6875 1.5C16.6875 1.45029 16.6677 1.40262 16.6325 1.36747C16.5974 1.33232 16.5497 1.31255 16.5 1.3125H1.5C1.45029 1.31255 1.40262 1.33232 1.36747 1.36747C1.33232 1.40262 1.31255 1.45029 1.3125 1.5V16.5C1.31255 16.5497 1.33232 16.5974 1.36747 16.6325C1.40262 16.6677 1.45029 16.6875 1.5 16.6875H16.5C16.5497 16.6875 16.5974 16.6677 16.6325 16.6325C16.6677 16.5974 16.6875 16.5497 16.6875 16.5V1.5Z" fill="#74B900"/>
<path d="M16.6875 1.5C16.6875 1.45029 16.6677 1.40262 16.6325 1.36747C16.5974 1.33232 16.5497 1.31255 16.5 1.3125H1.5C1.45029 1.31255 1.40262 1.33232 1.36747 1.36747C1.33232 1.40262 1.31255 1.45029 1.3125 1.5V16.5C1.31255 16.5497 1.33232 16.5974 1.36747 16.6325C1.40262 16.6677 1.45029 16.6875 1.5 16.6875H16.5C16.5497 16.6875 16.5974 16.6677 16.6325 16.6325C16.6677 16.5974 16.6875 16.5497 16.6875 16.5V1.5Z" fill="#74B900"/>
<path d="M13.6495 6.54683C13.6228 6.47794 13.5829 6.41499 13.5319 6.36155C13.4288 6.25367 13.2871 6.19112 13.138 6.18765C12.9889 6.18419 12.8445 6.2401 12.7366 6.34308L7.62504 11.2224L5.26329 8.96808C5.15504 8.86694 5.01126 8.81259 4.86318 8.81683C4.7151 8.82106 4.57466 8.88355 4.47237 8.99071C4.37009 9.09788 4.3142 9.24107 4.31686 9.38919C4.31952 9.53731 4.38051 9.6784 4.48657 9.78183L7.23664 12.4068C7.34127 12.5067 7.48035 12.5624 7.625 12.5624C7.76964 12.5624 7.90872 12.5067 8.01335 12.4068L13.5133 7.15683C13.5667 7.10583 13.6096 7.0448 13.6395 6.97723C13.6693 6.90967 13.6856 6.83688 13.6873 6.76303C13.689 6.68918 13.6762 6.61572 13.6495 6.54683Z" fill="white"/>
</svg>
