<svg width="32" height="32" viewBox="0 0 32 32" fill="none" xmlns="http://www.w3.org/2000/svg">
<path d="M8.82558 28.5982L9.37145 28.868C11.6462 30.217 14.1938 30.8465 16.7414 30.8465C24.7481 30.8465 31.2991 24.3714 31.2991 16.4574C31.2991 12.6803 29.7523 8.99312 27.0228 6.29513C24.2932 3.59714 20.6537 2.06836 16.7414 2.06836C8.73466 2.06836 2.18358 8.54343 2.27462 16.5474C2.27462 19.2453 3.09349 21.8534 4.45823 24.1016L4.82214 24.6413L3.36649 29.9473L8.82558 28.5982Z" fill="#e5e5e5"/>
<path d="M27.475 4.67026C24.5 1.6433 20.3875 0 16.1875 0C7.2626 0 0.0875556 7.17835 0.174986 15.9135C0.174986 18.681 0.962484 21.3622 2.27507 23.7838L0 32L8.4875 29.8378C10.85 31.1352 13.4749 31.7406 16.1001 31.7406C24.9375 31.7406 32.1126 24.5621 32.1126 15.8272C32.1126 11.5892 30.45 7.61081 27.4751 4.67026H27.475ZM16.1875 29.0596C13.825 29.0596 11.4625 28.4543 9.44998 27.2434L8.92503 26.9839L3.85006 28.2812L5.16252 23.3516L4.81255 22.8326C0.962484 16.6921 2.80002 8.56215 9.10001 4.75668C15.4 0.951336 23.5375 2.76759 27.3876 8.99461C31.2375 15.2216 29.4 23.2649 23.1001 27.0704C21.0875 28.3676 18.6376 29.0595 16.1875 29.0595V29.0596ZM23.8875 19.4597L22.925 19.0272C22.925 19.0272 21.5251 18.4218 20.6501 17.9893C20.5625 17.9893 20.4751 17.9028 20.3875 17.9028C20.125 17.9028 19.95 17.9893 19.775 18.0759C19.775 18.0759 19.6876 18.1623 18.4626 19.5461C18.375 19.7191 18.2 19.8056 18.025 19.8056H17.9375C17.8501 19.8056 17.6751 19.7191 17.5875 19.6326L17.15 19.4597C16.1875 19.0272 15.3126 18.5082 14.6125 17.8164C14.4375 17.6434 14.175 17.4705 14 17.2975C13.3875 16.6921 12.775 16.0001 12.3376 15.2217L12.25 15.0488C12.1626 14.9622 12.1626 14.8758 12.075 14.7029C12.075 14.5299 12.075 14.357 12.1626 14.2704C12.1626 14.2704 12.5125 13.838 12.775 13.5786C12.9501 13.4055 13.0375 13.1461 13.2125 12.9732C13.3875 12.7137 13.475 12.3677 13.3875 12.1082C13.3 11.6758 12.25 9.34065 11.9876 8.82177C11.8125 8.56227 11.6376 8.47585 11.3751 8.38931H10.4126C10.2375 8.38931 10.0626 8.47585 9.88751 8.47585L9.79996 8.56227C9.62497 8.64881 9.44998 8.82177 9.275 8.90819C9.10001 9.08127 9.01246 9.25411 8.83747 9.42719C8.22496 10.2056 7.87499 11.1569 7.87499 12.1082C7.87499 12.8001 8.04997 13.492 8.31251 14.0975L8.40007 14.357C9.18757 16.0001 10.2375 17.4705 11.6376 18.7677L11.9876 19.1136C12.25 19.3731 12.5125 19.5461 12.6875 19.8055C14.5251 21.3623 16.625 22.4866 18.9875 23.0921C19.2501 23.1785 19.6 23.1785 19.8626 23.265H20.7375C21.175 23.265 21.7 23.0921 22.0501 22.9191C22.3125 22.7461 22.4875 22.7461 22.6625 22.5732L22.8376 22.4001C23.0126 22.2271 23.1876 22.1407 23.3625 21.9678C23.5375 21.7948 23.7125 21.6218 23.8001 21.4488C23.9751 21.1028 24.0625 20.6704 24.15 20.2381V19.6326C24.15 19.6326 24.0625 19.5461 23.8875 19.4597V19.4597Z" fill="white"/>
</svg>
