<svg width="17" height="18" viewBox="0 0 17 18" fill="none" xmlns="http://www.w3.org/2000/svg">
<path d="M16.7942 7.54C16.8967 8.08917 16.9525 8.66333 16.9525 9.2625C16.9525 13.9492 13.8158 17.2817 9.07833 17.2817C8.00096 17.282 6.93409 17.07 5.93866 16.6579C4.94324 16.2458 4.03878 15.6415 3.27697 14.8797C2.51515 14.1179 1.91091 13.2134 1.49877 12.218C1.08663 11.2226 0.874672 10.1557 0.875 9.07833C0.874672 8.00097 1.08663 6.93409 1.49877 5.93867C1.91091 4.94324 2.51515 4.03878 3.27697 3.27697C4.03878 2.51515 4.94324 1.91091 5.93866 1.49877C6.93409 1.08663 8.00096 0.874672 9.07833 0.875C11.2933 0.875 13.1442 1.69 14.5642 3.01333L12.2517 5.32583V5.32C11.3908 4.5 10.2983 4.07917 9.07833 4.07917C6.37167 4.07917 4.17167 6.36584 4.17167 9.07334C4.17167 11.78 6.37167 14.0717 9.07833 14.0717C11.5342 14.0717 13.2058 12.6675 13.5492 10.7392H9.07833V7.54H16.795H16.7942Z" fill="white"/>
</svg>
