<svg width="18" height="18" fill="none" xmlns="http://www.w3.org/2000/svg"><path d="M17.813 1.5v15a1.314 1.314 0 01-1.313 1.313h-15A1.314 1.314 0 01.187 16.5v-15A1.314 1.314 0 011.5.187h15A1.314 1.314 0 0117.813 1.5zm-1.125 0a.187.187 0 00-.188-.188h-15a.188.188 0 00-.188.188v15a.188.188 0 00.188.188h15a.187.187 0 00.188-.188v-15z" fill="#74B900"/><path d="M16.688 1.5a.187.187 0 00-.188-.188h-15a.188.188 0 00-.188.188v15a.188.188 0 00.188.188h15a.187.187 0 00.188-.188v-15z" fill="#74B900"/><path d="M13.65 6.547a.563.563 0 00-.913-.204l-5.112 4.88-2.362-2.255a.562.562 0 00-.776.814l2.75 2.625a.562.562 0 00.776 0l5.5-5.25a.564.564 0 00.136-.61z" fill="#fff"/></svg>