<svg width="32" height="32" fill="none" xmlns="http://www.w3.org/2000/svg"><path d="M8.826 28.598l.545.27c2.275 1.349 4.823 1.979 7.37 1.979 8.007 0 14.558-6.476 14.558-14.39 0-3.777-1.547-7.464-4.276-10.162A14.538 14.538 0 0016.74 2.068c-8.006 0-14.557 6.475-14.466 14.48 0 2.697.818 5.305 2.183 7.554l.364.54-1.456 5.305 5.46-1.349z" fill="#e5e5e5"/><path d="M27.475 4.67C24.5 1.643 20.387 0 16.187 0 7.264 0 .087 7.178.175 15.914c0 2.767.787 5.448 2.1 7.87L0 32l8.488-2.162c2.362 1.297 4.987 1.903 7.612 1.903 8.837 0 16.013-7.179 16.013-15.914 0-4.238-1.663-8.216-4.638-11.157zM16.187 29.06c-2.362 0-4.725-.606-6.737-1.817l-.525-.26-5.075 1.298 1.313-4.93-.35-.518C.963 16.693 2.8 8.563 9.1 4.757 15.4.95 23.538 2.767 27.388 8.995c3.85 6.227 2.012 14.27-4.288 18.075-2.013 1.298-4.462 1.99-6.913 1.99zm7.7-9.6l-.962-.433s-1.4-.605-2.275-1.038c-.087 0-.175-.086-.262-.086-.263 0-.438.086-.613.173 0 0-.087.086-1.312 1.47a.482.482 0 01-.438.26h-.087c-.088 0-.263-.087-.35-.173l-.438-.173c-.962-.433-1.837-.952-2.537-1.644-.175-.173-.438-.345-.613-.518-.613-.606-1.225-1.298-1.662-2.076l-.088-.173c-.087-.087-.087-.173-.175-.346 0-.173 0-.346.088-.433 0 0 .35-.432.612-.691.175-.174.262-.433.438-.606.175-.26.262-.605.175-.865-.088-.432-1.138-2.767-1.4-3.286-.175-.26-.35-.346-.613-.433h-.962c-.175 0-.35.087-.525.087l-.088.086c-.175.087-.35.26-.525.346-.175.173-.263.346-.438.52-.612.778-.962 1.729-.962 2.68 0 .692.175 1.384.438 1.99l.087.259a14.415 14.415 0 003.238 4.41l.35.347c.262.26.524.432.7.691 1.837 1.557 3.937 2.682 6.3 3.287.262.087.612.087.875.173h.875c.437 0 .962-.173 1.312-.346.262-.173.438-.173.613-.346l.175-.173c.175-.173.35-.26.524-.432.176-.173.35-.346.438-.52.175-.345.262-.778.35-1.21v-.605s-.087-.087-.262-.173z" fill="#fff"/></svg>