<svg width="24" height="24" fill="none" xmlns="http://www.w3.org/2000/svg"><g clip-path="url(#clip0_126_730)"><path d="M6.343 20.555l.393.194c1.635.97 3.466 1.422 5.297 1.422 5.755 0 10.463-4.654 10.463-10.342 0-2.715-1.111-5.365-3.073-7.304a10.45 10.45 0 00-7.39-3.038c-5.755 0-10.464 4.654-10.398 10.407 0 1.939.588 3.813 1.57 5.43l.26.387-1.045 3.814 3.923-.97z" fill="#00E676"/><g filter="url(#filter0_d_126_730)"><path d="M19.748 3.357C17.609 1.18 14.653 0 11.635 0 5.22 0 .063 5.16.125 11.438c0 1.989.567 3.916 1.51 5.657L0 23l6.1-1.554c1.698.932 3.585 1.368 5.472 1.368 6.352 0 11.509-5.16 11.509-11.438a11.22 11.22 0 00-3.333-8.02zm-8.113 17.53c-1.698 0-3.396-.436-4.843-1.306l-.377-.186-3.648.932.944-3.543-.252-.373C.692 11.997 2.013 6.154 6.541 3.419c4.528-2.735 10.377-1.43 13.144 3.046 2.767 4.476 1.446 10.257-3.082 12.992-1.446.932-3.207 1.43-4.968 1.43zm5.534-6.9l-.692-.311s-1.006-.435-1.635-.746c-.063 0-.126-.062-.189-.062-.188 0-.314.062-.44.124 0 0-.063.062-.943 1.057a.347.347 0 01-.314.186h-.063a.48.48 0 01-.252-.124l-.315-.124c-.691-.311-1.32-.684-1.823-1.181-.126-.125-.315-.25-.44-.373-.44-.436-.881-.933-1.195-1.492l-.063-.125c-.063-.062-.063-.124-.126-.248 0-.125 0-.249.063-.311 0 0 .251-.311.44-.497.126-.125.189-.311.314-.436.126-.186.19-.435.126-.621-.063-.311-.817-1.99-1.006-2.362-.126-.187-.251-.249-.44-.311h-.692c-.126 0-.251.062-.377.062l-.063.062c-.126.062-.252.187-.378.249-.125.124-.188.248-.314.373a3.147 3.147 0 00-.692 1.927c0 .497.126.994.315 1.43l.063.186a10.36 10.36 0 002.327 3.17l.251.249c.189.186.377.31.503.497a11.262 11.262 0 004.528 2.362c.189.063.44.063.63.125h.628c.315 0 .692-.125.944-.249.188-.124.314-.124.44-.248l.125-.125c.126-.124.252-.186.378-.31.126-.125.251-.25.314-.374.126-.248.189-.56.252-.87v-.435s-.063-.062-.189-.124z" fill="#fff"/></g></g><defs><clipPath id="clip0_126_730"><path fill="#fff" d="M0 0h24v24H0z"/></clipPath><filter id="filter0_d_126_730" x="-2" y="-2" width="27.081" height="27" filterUnits="userSpaceOnUse" color-interpolation-filters="sRGB"><feFlood flood-opacity="0" result="BackgroundImageFix"/><feColorMatrix in="SourceAlpha" values="0 0 0 0 0 0 0 0 0 0 0 0 0 0 0 0 0 0 127 0" result="hardAlpha"/><feOffset/><feGaussianBlur stdDeviation="1"/><feComposite in2="hardAlpha" operator="out"/><feColorMatrix values="0 0 0 0 0 0 0 0 0 0 0 0 0 0 0 0 0 0 0.15 0"/><feBlend in2="BackgroundImageFix" result="effect1_dropShadow_126_730"/><feBlend in="SourceGraphic" in2="effect1_dropShadow_126_730" result="shape"/></filter></defs></svg>