<?xml version="1.0" standalone="no"?>
<!DOCTYPE svg PUBLIC "-//W3C//DTD SVG 1.1//EN" "http://www.w3.org/Graphics/SVG/1.1/DTD/svg11.dtd" >
<svg>
<metadata>
Created by FontForge 20090914 at Fri Jan  6 20:38:27 2023
 By www-data
Copyright (c) Soft, 1970. All rights reserved.
</metadata>
<defs>
<font id="Vanta" horiz-adv-x="1149" >
  <font-face 
    font-family="Vanta"
    font-weight="400"
    font-stretch="normal"
    units-per-em="2048"
    panose-1="2 11 5 0 0 0 0 0 0 0"
    ascent="1638"
    descent="-410"
    x-height="1073"
    cap-height="1466"
    bbox="-49 -440 2189 1888"
    underline-thickness="76"
    underline-position="-93"
    unicode-range="U+0020-U+2219"
  />
<missing-glyph horiz-adv-x="1536" 
d="M256 0v1280h1024v-1280h-1024zM1247 33v1214h-958v-1214h958z" />
    <glyph glyph-name=".notdef" horiz-adv-x="1536" 
d="M256 0v1280h1024v-1280h-1024zM1247 33v1214h-958v-1214h958z" />
    <glyph glyph-name="space" unicode=" " horiz-adv-x="600" 
 />
    <glyph glyph-name="exclam" unicode="!" horiz-adv-x="600" 
d="M170 1466h219l-43 -1108h-131zM170 229h219v-229h-219v229z" />
    <glyph glyph-name="quotedbl" unicode="&#x22;" horiz-adv-x="758" 
d="M569 874h-116l-39 592h196zM260 874h-117l-37 592h195z" />
    <glyph glyph-name="numbersign" unicode="#" 
d="M1040 602v-123h-237l-68 -479h-129l72 479h-297l-72 -479h-125l72 479h-233v123h256l40 295h-237v125h260l66 444h122l-63 -444h291l67 444h125l-65 -444h211v-125h-230l-41 -295h215zM739 897h-295l-41 -295h291z" />
    <glyph glyph-name="dollar" unicode="$" 
d="M238 489c7.33301 -67.333 19.3291 -122.665 35.9961 -165.998s43.167 -78.666 79.5 -105.999s87.166 -47 152.499 -59v510c-77.333 20 -145 44.667 -203 74s-105.333 69.333 -142 120s-55 113.667 -55 189c0 117.333 36.667 208 110 272s170 103 290 117v162h112v-162
c92.667 -12 167.834 -33.333 225.501 -64s101.334 -73.667 131.001 -129s47.5 -125.666 53.5 -210.999h-176c-19.333 89.333 -44.833 151.166 -76.5 185.499s-84.167 54.5 -157.5 60.5v-453c86 -22.667 160.333 -49.5 223 -80.5s114 -73.833 154 -128.5
s60 -123.334 60 -206.001c0 -65.333 -14 -127.333 -42 -186s-68 -107.334 -120 -146.001c-40 -27.333 -80.667 -46.833 -122 -58.5s-92.333 -19.5 -153 -23.5v-215h-112v215c-76.667 9.33301 -142.167 25.666 -196.5 48.999s-99.666 55 -135.999 95
s-63.666 88.5 -81.999 145.5s-29.166 123.5 -32.499 199.5h179zM505.996 1284c-67.333 -8.66699 -120 -32.833 -158 -72.5s-57 -87.834 -57 -144.501c0 -52 16 -94.167 48 -126.5s87.667 -63.166 167 -92.499v436zM617.996 645.002l-0.000976562 -498.001
c53.333 8 98.833 22.667 136.5 44s66.334 49.333 86.001 84s29.5 73.334 29.5 116.001c0 66.667 -18 118.167 -54 154.5s-102 69.5 -198 99.5z" />
    <glyph glyph-name="percent" unicode="%" horiz-adv-x="1839" 
d="M180 1055c0 130.667 22.832 229.833 68.499 297.5s113.834 101.5 204.501 101.5c56.667 0 104.667 -14 144 -42s69.166 -69.333 89.499 -124s30.5 -122.334 30.5 -203.001c0 -82.667 -10.667 -154.167 -32 -214.5s-52.5 -106.166 -93.5 -137.499s-90.167 -47 -147.5 -47
s-105.666 13.833 -144.999 41.5s-69 69 -89 124s-30 122.833 -30 203.5zM1225 1440h116l-784 -1440h-113zM1071 357.999c0 127.333 23.1689 224.499 69.502 291.499s113.166 100.5 200.499 100.5c58 0 106.667 -13.833 146 -41.5s69 -68.667 89 -123
s30 -121.166 30 -200.499c0 -127.333 -23.833 -225.666 -71.5 -294.999s-114.834 -104 -201.501 -104c-85.333 0 -150.333 31.667 -195 95s-67 155.666 -67 276.999zM305.001 1059c0 -62.667 5 -113.999 15 -153.999s25.333 -69.5 46 -88.5s46.667 -28.5 78 -28.5
c98.667 0 148 97.667 148 293c0 93.333 -11.5 162.166 -34.5 206.499s-59.167 66.5 -108.5 66.5c-96 0 -144 -98.333 -144 -295zM1194 361.999c0 -186.667 46.333 -280 139 -280c98.667 0 148 98.333 148 295c0 182.667 -48 274 -144 274
c-49.333 0 -85.5 -23.5 -108.5 -70.5s-34.5 -119.833 -34.5 -218.5z" />
    <glyph glyph-name="ampersand" unicode="&#x26;" horiz-adv-x="1382" 
d="M436 813c-61.333 86 -101.497 150.665 -120.497 193.998s-28.5 90.666 -28.5 141.999c0 90 32.667 165.333 98 226s146.666 91 243.999 91c66.667 0 125.5 -12.833 176.5 -38.5s90.333 -62.167 118 -109.5s41.5 -102.333 41.5 -165c0 -74 -19.333 -138 -58 -192
s-107.667 -114.333 -207 -181l256 -313c14.667 34.667 25.667 67.334 33 98.001s15.666 77.334 24.999 140.001h180c-12.667 -81.333 -26.334 -147.5 -41.001 -198.5s-40 -113.5 -76 -187.5l264 -315h-233l-139 170c-64.667 -67.333 -130.167 -117.666 -196.5 -150.999
s-141.5 -50 -225.5 -50c-83.333 0 -158 17.333 -224 52s-117.5 84 -154.5 148s-55.5 136 -55.5 216c0 172.667 107.667 314 323 424zM547.003 689.998c-66 -45.333 -115.666 -83.168 -148.999 -113.501s-56.5 -59.333 -69.5 -87s-19.5 -61.167 -19.5 -100.5
c0 -46 11.167 -88.167 33.5 -126.5s53.166 -68.5 92.499 -90.5s82.666 -33 129.999 -33c56.667 0 108.334 12.833 155.001 38.5s94 66.834 142 123.501zM596.004 904.996c64 40.667 110.667 80.499 140 119.499s44 80.5 44 124.5c0 44.667 -14.667 81 -44 109
s-67 42 -113 42c-44 0 -80.333 -13.667 -109 -41s-43 -62.666 -43 -105.999c0 -34 8.33301 -67.833 25 -101.5s50 -82.5 100 -146.5z" />
    <glyph glyph-name="quotesingle" unicode="'" horiz-adv-x="414" 
d="M248 874h-113l-37 592h193z" />
    <glyph glyph-name="parenleft" unicode="(" horiz-adv-x="717" 
d="M502 1466l145 0.000976562c-72 -112 -129.167 -215.667 -171.5 -311s-73.833 -195.333 -94.5 -300s-31 -221 -31 -349c0 -125.333 10.167 -239.5 30.5 -342.5s51.833 -202.333 94.5 -298s98 -197.5 166 -305.5h-139c-62.667 82 -115 157.833 -157 227.5
s-77.333 142.667 -106 219s-50 154.5 -64 234.5s-21 168.333 -21 265c0 98.667 7.66699 189.167 23 271.5s37.833 160.666 67.5 234.999s65 146.5 106 216.5s91.5 149 151.5 237z" />
    <glyph glyph-name="parenright" unicode=")" horiz-adv-x="717" 
d="M170 -440l-147.003 0.00195312c72.667 112.667 129.834 216.167 171.501 310.5s72.834 194 93.501 299s31 221.833 31 350.5c0 130 -9.66699 244.667 -29 344s-49.5 195.833 -90.5 289.5s-95.833 197.834 -164.5 312.501h135
c60.667 -76.667 112.334 -150.5 155.001 -221.5s78.667 -144.333 108 -220s51.166 -154.334 65.499 -236.001s21.5 -171.167 21.5 -268.5c0 -98.667 -7.83301 -189.334 -23.5 -272.001s-38 -160.334 -67 -233.001s-65.167 -146 -108.5 -220s-93.666 -152.333 -150.999 -235z
" />
    <glyph glyph-name="asterisk" unicode="*" horiz-adv-x="829" 
d="M313 1229v237h158v-237l219 71l49 -143l-219 -72l135 -188l-125 -94l-139 188l-139 -188l-123 94l135 188l-219 72l49 143z" />
    <glyph glyph-name="plus" unicode="+" horiz-adv-x="1221" 
d="M102 625v159h406v392h156v-392h409v-159h-409v-396h-156v396h-406z" />
    <glyph glyph-name="comma" unicode="," horiz-adv-x="600" 
d="M170 233h219v-210c0 -90 -18.5 -162.167 -55.5 -216.5s-91.5 -88.833 -163.5 -103.5v104c38 14 63.333 33.667 76 59s20.667 70 24 134h-100v233z" />
    <glyph glyph-name="hyphen" unicode="-" horiz-adv-x="717" 
d="M102 641h471v-197h-471v197z" />
    <glyph glyph-name="period" unicode="." horiz-adv-x="600" 
d="M170 229h219v-229h-219v229z" />
    <glyph glyph-name="slash" unicode="/" horiz-adv-x="600" 
d="M369 1466h178l-416 -1761h-180z" />
    <glyph glyph-name="zero" unicode="0" 
d="M72 694c0 168 19.001 309.668 57.001 425.001s94 202 168 260s164.667 87 272 87c155.333 0 274.166 -60.667 356.499 -182s123.5 -299.333 123.5 -534c0 -124.667 -11 -235.334 -33 -332.001s-53.667 -177.667 -95 -243s-92.833 -115.333 -154.5 -150
s-131.5 -52 -209.5 -52s-147.333 15.667 -208 47s-111.5 77.5 -152.5 138.5s-72 136.5 -93 226.5s-31.5 193 -31.5 309zM268.001 705.001c0 -93.333 5.99902 -174.334 17.999 -243.001s29.833 -125.5 53.5 -170.5s53.667 -78.5 90 -100.5s78.833 -33 127.5 -33
c96.667 0 170 48.5 220 145.5s75 242.167 75 435.5c0 122.667 -10.333 223.834 -31 303.501s-52.667 139.5 -96 179.5s-96.666 60 -159.999 60c-198 0 -297 -192.333 -297 -577z" />
    <glyph glyph-name="one" unicode="1" 
d="M180 1176c81.333 3.33301 145.168 11.666 191.501 24.999s84.666 38.333 114.999 75s53.833 91.334 70.5 164.001h148v-1440h-185v1024h-340v152z" />
    <glyph glyph-name="two" unicode="2" 
d="M297 930l-187.997 0.00195312c2 92 8.33301 160.833 19 206.5s30.667 91.5 60 137.5c82.667 128 216 192 400 192c92 0 172.833 -17.5 242.5 -52.5s123.5 -84.833 161.5 -149.5s57 -140.667 57 -228c0 -118.667 -30.167 -212.834 -90.5 -282.501s-154.5 -140 -282.5 -211
s-220.333 -127.5 -277 -169.5s-95.334 -105 -116.001 -189h761v-184h-972c2 88 11.667 162 29 222s43.666 116.333 78.999 169c41.333 60 85.333 106 132 138s125.5 81.167 236.5 147.5s189.333 123.666 235 171.999s68.5 106.833 68.5 175.5
c0 51.333 -11.333 96.5 -34 135.5s-54.334 69.167 -95.001 90.5s-87 32 -139 32c-98.667 0 -170.667 -32.833 -216 -98.5s-69 -150.167 -71 -253.5z" />
    <glyph glyph-name="three" unicode="3" 
d="M252 467c8 -102 36.835 -178.999 86.502 -230.999s123.834 -78 222.501 -78c88.667 0 160 25 214 75s81 115.667 81 197c0 72.667 -19.833 127 -59.5 163s-88 58.833 -145 68.5s-124.5 15.167 -202.5 16.5v166c55.333 1.33301 101.333 3.83301 138 7.5
s71.667 12.167 105 25.5s60.166 35.5 80.499 66.5s30.5 72.167 30.5 123.5c0 43.333 -9.66699 81.333 -29 114s-47.666 57.667 -84.999 75s-81.333 26 -132 26c-62.667 0 -113.167 -12.333 -151.5 -37s-66.333 -58.834 -84 -102.501s-29.167 -98.167 -34.5 -163.5h-185
c4 88 11.167 151.5 21.5 190.5s29.166 78.5 56.499 118.5c41.333 58 95.166 102.167 161.499 132.5s142.166 45.5 227.499 45.5c86.667 0 162.667 -15.833 228 -47.5s115.333 -77.167 150 -136.5s52 -129 52 -209c0 -79.333 -13.833 -140.333 -41.5 -183
s-76.5 -78 -146.5 -106c52.667 -14.667 97.167 -37.5 133.5 -68.5s63.166 -70.167 80.499 -117.5s26 -101.333 26 -162c0 -92 -20.333 -173 -61 -243s-98.167 -124.167 -172.5 -162.5s-161.166 -57.5 -260.499 -57.5c-60.667 0 -116.167 6.66699 -166.5 20
s-95.5 33.5 -135.5 60.5s-76 60.5 -108 100.5c-27.333 44 -47 87 -59 129s-20.333 103.333 -25 184h189z" />
    <glyph glyph-name="four" unicode="4" 
d="M41 561l664 879h188v-916h203v-184h-203v-340h-184v340h-668v221zM709 1161l-486 -637h486v637z" />
    <glyph glyph-name="five" unicode="5" 
d="M72 385l191.998 -0.000976562c30.667 -151.333 126.334 -227 287.001 -227c90 0 162 27.833 216 83.5s81 129.5 81 221.5c0 90.667 -27.833 164.167 -83.5 220.5s-128.167 84.5 -217.5 84.5c-56 0 -103.5 -10 -142.5 -30s-79.5 -55 -121.5 -105l-166 14l116 789h740v-185
h-600l-64 -395c46 36.667 88.833 62.167 128.5 76.5s88.5 21.5 146.5 21.5c88.667 0 168.167 -20.167 238.5 -60.5s124.833 -96.5 163.5 -168.5s58 -152.667 58 -242c0 -100 -20.833 -189 -62.5 -267s-99.667 -138 -174 -180s-161.166 -63 -260.499 -63
c-91.333 0 -171 16.167 -239 48.5s-121.833 79.333 -161.5 141s-64.5 135.834 -74.5 222.501z" />
    <glyph glyph-name="six" unicode="6" 
d="M1018 1071l-189.002 -0.00195312c-19.333 76.667 -46.666 131 -81.999 163s-85.666 48 -150.999 48c-81.333 0 -145.333 -25.833 -192 -77.5s-79 -111.167 -97 -178.5s-33.667 -150.666 -47 -249.999c48 60 98.833 103.333 152.5 130s116.167 40 187.5 40
c85.333 0 162 -18.667 230 -56s120.667 -91 158 -161s56 -150 56 -240c0 -101.333 -19.5 -191.166 -58.5 -269.499s-94.5 -139 -166.5 -182s-155.333 -64.5 -250 -64.5c-160.667 0 -283 59.5 -367 178.5s-126 292.5 -126 520.5c0 170.667 19.833 315.667 59.5 435
s98.667 209 177 269s174.833 90 289.5 90c152.667 0 264.667 -53.667 336 -161c24 -32 41.167 -63.5 51.5 -94.5s19.833 -77.5 28.5 -139.5zM286.998 466.998c0 -58.667 12.002 -111.669 36.002 -159.002s57.167 -84.166 99.5 -110.499s91.166 -39.5 146.499 -39.5
c54 0 102 13 144 39s75 62.833 99 110.5s36 100.834 36 159.501c0 58 -11.5 108.833 -34.5 152.5s-55.5 77.667 -97.5 102s-89.667 36.5 -143 36.5c-54.667 0 -103.834 -12.167 -147.501 -36.5s-77.667 -58.5 -102 -102.5s-36.5 -94.667 -36.5 -152z" />
    <glyph glyph-name="seven" unicode="7" 
d="M80 1436l986.998 0.000976562v-170c-107.333 -127.333 -199.166 -256.833 -275.499 -388.5s-140.166 -269.334 -191.499 -413.001s-93 -298.5 -125 -464.5h-207c30 163.333 70.5 315.166 121.5 455.499s115.167 276.833 192.5 409.5s167.333 261.334 270 386.001h-772
v185z" />
    <glyph glyph-name="eight" unicode="8" 
d="M305 780c-65.333 30 -112.335 67.501 -141.002 112.501s-43 104.5 -43 178.5c0 77.333 18.167 145.833 54.5 205.5s88 106.167 155 139.5s142.5 50 226.5 50c88.667 0 166.334 -15.833 233.001 -47.5s117.5 -76.834 152.5 -135.501s52.5 -127.334 52.5 -206.001
c0 -76 -13.667 -137.167 -41 -183.5s-73 -84.166 -137 -113.499c53.333 -22 96.666 -49.333 129.999 -82s57.833 -71.167 73.5 -115.5s23.5 -96.5 23.5 -156.5c0 -87.333 -20.5 -165.833 -61.5 -235.5s-98.167 -123.334 -171.5 -161.001s-158 -56.5 -254 -56.5
c-97.333 0 -182.166 18.167 -254.499 54.5s-128.166 88.333 -167.499 156s-59 145.834 -59 234.501c0 165.333 76.333 286 229 362zM269.998 412.001c0 -76.667 26.5 -138.168 79.5 -184.501s123.5 -69.5 211.5 -69.5c55.333 0 105 11.167 149 33.5s78 54 102 95
s36 87.5 36 139.5c0 52.667 -11.833 98.167 -35.5 136.5s-57.667 67.833 -102 88.5s-95.5 31 -153.5 31c-41.333 0 -79.333 -6.16699 -114 -18.5s-65.167 -30.666 -91.5 -54.999s-46.5 -53.5 -60.5 -87.5s-21 -70.333 -21 -109zM316.998 1059
c0 -63.333 21.501 -112.999 64.501 -148.999s101.5 -54 175.5 -54c50.667 0 94.167 8.16699 130.5 24.5s64 40.666 83 72.999s28.5 71.5 28.5 117.5c0 64.667 -21.333 116 -64 154s-102 57 -178 57c-72.667 0 -130.834 -20 -174.501 -60s-65.5 -94.333 -65.5 -163z" />
    <glyph glyph-name="nine" unicode="9" 
d="M106 362h185c14 -69.333 39.833 -120.666 77.5 -153.999s90.834 -50 159.501 -50c79.333 0 142.166 27.833 188.499 83.5s79 120.667 98 195s34.167 157.5 45.5 249.5c-70 -125.333 -183.333 -188 -340 -188c-89.333 0 -167.333 19.333 -234 58s-118.334 93 -155.001 163
s-55 152 -55 246c0 97.333 19.5 184.166 58.5 260.499s93.833 135.5 164.5 177.5s152 63 244 63c82 0 154 -14.667 216 -44s114 -73.666 156 -132.999s73.333 -132 94 -218s31 -187 31 -303c0 -125.333 -11.667 -237.333 -35 -336s-57 -181.834 -101 -249.501
s-98 -119.5 -162 -155.5s-136.667 -54 -218 -54c-122.667 0 -219.667 33.167 -291 99.5s-113.666 162.833 -126.999 289.5zM270 983c0 -91.333 24.832 -164.33 74.499 -218.997s115.834 -82 198.501 -82c54 0 102 12.167 144 36.5s74.167 58.166 96.5 101.499
s33.5 93 33.5 149c0 63.333 -11 118.5 -33 165.5s-53.5 83.333 -94.5 109s-88.5 38.5 -142.5 38.5c-54.667 0 -103 -12.333 -145 -37s-74.5 -59.334 -97.5 -104.001s-34.5 -97.334 -34.5 -158.001z" />
    <glyph glyph-name="colon" unicode=":" horiz-adv-x="600" 
d="M170 229h219v-229h-219v229zM170 1073h219v-229h-219v229z" />
    <glyph glyph-name="semicolon" unicode=";" horiz-adv-x="600" 
d="M170 233h219v-210c0 -90 -18.5 -162.167 -55.5 -216.5s-91.5 -88.833 -163.5 -103.5v104c38 14 63.333 33.667 76 59s20.667 70 24 134h-100v233zM170 1073h219v-229h-219v229z" />
    <glyph glyph-name="less" unicode="&#x3c;" horiz-adv-x="1221" 
d="M1073 219l-971 432v107l971 436v-158l-776 -331l776 -332v-154z" />
    <glyph glyph-name="equal" unicode="=" horiz-adv-x="1221" 
d="M102 772v152h971v-152h-971zM102 483v158h971v-158h-971z" />
    <glyph glyph-name="greater" unicode="&#x3e;" horiz-adv-x="1221" 
d="M102 1194l975 -436v-107l-975 -432v154l777 332l-777 331v158z" />
    <glyph glyph-name="question" unicode="?" 
d="M629 385l-189.003 0.00390625c2 61.333 4.83301 104.166 8.5 128.499s11.167 53.166 22.5 86.499c14 42 34 77.833 60 107.5s66 70.667 120 123s93.5 98.166 118.5 137.499s37.5 82 37.5 128c0 71.333 -21.167 127.666 -63.5 168.999s-101.833 62 -178.5 62
c-89.333 0 -153.333 -28.667 -192 -86s-61.334 -134.333 -68.001 -231h-188c0.666992 100.667 19.167 187.667 55.5 261s87.666 129 153.999 167s145.833 57 238.5 57c88.667 0 166.334 -16 233.001 -48s118 -77.667 154 -137s54 -128 54 -206
c0 -44.667 -6.16699 -86.5 -18.5 -125.5s-32.166 -76.333 -59.499 -112s-66.333 -76.167 -117 -121.5c-40 -36.667 -69.667 -65.5 -89 -86.5s-35.666 -43.5 -48.999 -67.5s-23.166 -51.167 -29.499 -81.5s-11.166 -71.833 -14.499 -124.5zM425.997 229.004h221v-229h-221
v229z" />
    <glyph glyph-name="at" unicode="@" horiz-adv-x="2091" 
d="M1522 291l136.999 -0.00390625c-56 -72.667 -112.5 -132.167 -169.5 -178.5s-119.667 -81.166 -188 -104.499s-146.5 -35 -234.5 -35c-143.333 0 -274 33.167 -392 99.5s-210.5 157.333 -277.5 273s-100.5 242.834 -100.5 381.501c0 106 19.167 206.167 57.5 300.5
s91.833 176.5 160.5 246.5s149.667 124.333 243 163s192.333 58 297 58c92.667 0 181.5 -16.5 266.5 -49.5s159 -78.167 222 -135.5s112.333 -124.333 148 -201s53.5 -157.667 53.5 -243c0 -79.333 -13.167 -153.166 -39.5 -221.499s-65.166 -127.5 -116.499 -177.5
c-44 -48 -99.5 -88.667 -166.5 -122s-124.167 -50 -171.5 -50c-40.667 0 -70.167 8.16699 -88.5 24.5s-27.5 42.833 -27.5 79.5c-60 -65.333 -130.333 -98 -211 -98c-62 0 -117.667 15.333 -167 46s-87.5 73.834 -114.5 129.501s-40.5 118.167 -40.5 187.5
c0 66 10.167 127 30.5 183s49.5 105.667 87.5 149s82 76.5 132 99.5s104 34.5 162 34.5s106 -11.333 144 -34s72.667 -60.334 104 -113.001l22 121h141l-102 -610c-2 -10 -3.33301 -17.333 -4 -22s-1.5 -9 -2.5 -13s-1.5 -9 -1.5 -15c0 -21.333 13 -32 39 -32
c28 0 62.833 14.833 104.5 44.5s74.167 63.167 97.5 100.5c53.333 89.333 80 183.666 80 282.999c0 77.333 -14.667 148.833 -44 214.5s-70.333 122.667 -123 171s-114.834 85.833 -186.501 112.5s-149.5 40 -233.5 40c-121.333 0 -231 -27.833 -329 -83.5
s-174.5 -132.667 -229.5 -231s-82.5 -207.833 -82.5 -328.5c0 -90.667 16.167 -175.667 48.5 -255s78.333 -148.666 138 -207.999s130.334 -105.166 212.001 -137.499s169.834 -48.5 264.501 -48.5c157.333 0 307.666 68.333 450.999 205zM976.999 470.996
c44 0 83.833 12.665 119.5 37.998s63.5 60.833 83.5 106.5s30 96.5 30 152.5c0 58.667 -16.333 106.167 -49 142.5s-75.667 54.5 -129 54.5c-44 0 -84.833 -12.667 -122.5 -38s-67.334 -59.666 -89.001 -102.999s-32.5 -90.666 -32.5 -141.999
c0 -62 17.333 -112.667 52 -152s80.334 -59 137.001 -59z" />
    <glyph glyph-name="A" unicode="A" horiz-adv-x="1382" 
d="M584 1466h215l524 -1466h-223l-146 436h-563l-153 -436h-220zM682 1243l-223 -641h438z" />
    <glyph glyph-name="B" unicode="B" horiz-adv-x="1382" 
d="M176 1466l541.003 0.000976562c93.333 0 163.666 -5.66699 210.999 -17s91 -32.333 131 -63c47.333 -35.333 83.666 -78.5 108.999 -129.5s38 -106.5 38 -166.5c0 -142.667 -64 -242.334 -192 -299.001c80 -25.333 142.667 -71 188 -137s68 -143.333 68 -232
c0 -49.333 -6.33301 -94.666 -19 -135.999s-31.334 -79.833 -56.001 -115.5s-53.667 -65.834 -87 -90.501c-42 -31.333 -90.167 -52.5 -144.5 -63.5s-131.833 -16.5 -232.5 -16.5h-555v1466zM381.003 1282v-426h346c91.333 0 158.166 16.5 200.499 49.5
s63.5 84.167 63.5 153.5c0 79.333 -21.667 136.333 -65 171s-115.666 52 -216.999 52h-328zM381.003 672.001l0.00195312 -487.999h332c103.333 0 186.166 16.833 248.499 50.5s93.5 97.5 93.5 191.5c0 93.333 -29.333 157.666 -88 192.999s-137.334 53 -236.001 53h-350z
" />
    <glyph glyph-name="C" unicode="C" horiz-adv-x="1470" 
d="M1360 1010h-198.996c-18 68 -45.333 124 -82 168s-82.334 77.167 -137.001 99.5s-117.334 33.5 -188.001 33.5c-96 0 -179.167 -23.167 -249.5 -69.5s-124.166 -113.333 -161.499 -201s-56 -192.167 -56 -313.5c0 -118 17.667 -219.667 53 -305
s87.333 -150.666 156 -195.999s149.667 -68 243 -68c114.667 0 208.334 33.333 281.001 100s119.667 161.667 141 285h199c-12 -108 -44.833 -205.667 -98.5 -293s-124.834 -155.333 -213.501 -204s-189.667 -73 -303 -73c-102 0 -195 17 -279 51s-155.333 83.667 -214 149
s-103.334 143.833 -134.001 235.5s-46 195.167 -46 310.5c0 106 14.167 205.667 42.5 299s71.166 176.166 128.499 248.499s128.666 128.5 213.999 168.5s183 60 293 60c86 0 165.5 -11.167 238.5 -33.5s136 -55 189 -98s95.167 -94.667 126.5 -155s50 -126.5 56 -198.5z
" />
    <glyph glyph-name="D" unicode="D" horiz-adv-x="1470" 
d="M176 1466h495.999c122.667 0 215.5 -7.16699 278.5 -21.5s121.5 -42.5 175.5 -84.5c81.333 -63.333 143.666 -146.833 186.999 -250.5s65 -225.167 65 -364.5c0 -88 -9.66699 -171.333 -29 -250s-46.666 -148.667 -81.999 -210s-78.166 -113.5 -128.499 -156.5
s-106.833 -74.167 -169.5 -93.5c-62.667 -23.333 -157 -35 -283 -35h-510v1466zM380.999 1282l-0.00195312 -1098h293c136.667 0 236.334 21.333 299.001 64c63.333 45.333 111.5 110.666 144.5 195.999s49.5 187.333 49.5 306c0 110 -15.5 204.333 -46.5 283
s-76.833 138.334 -137.5 179.001c-38 26 -79.667 44.167 -125 54.5s-108.666 15.5 -189.999 15.5h-287z" />
    <glyph glyph-name="E" unicode="E" horiz-adv-x="1382" 
d="M176 1466h1053v-184h-848v-430h784v-184h-784v-484h858v-184h-1063v1466z" />
    <glyph glyph-name="F" unicode="F" horiz-adv-x="1266" 
d="M176 1466h1004v-184h-799v-438h700v-185h-700v-659h-205v1466z" />
    <glyph glyph-name="G" unicode="G" horiz-adv-x="1614" 
d="M1376 1014l-210.997 -0.00195312c-27.333 100.667 -73.666 175.334 -138.999 224.001s-151.333 73 -258 73c-100 0 -186.333 -23.167 -259 -69.5s-127.834 -113.333 -165.501 -201s-56.5 -192.167 -56.5 -313.5c0 -88.667 10.667 -167.834 32 -237.501
s53.166 -129.5 95.499 -179.5s93.333 -87.833 153 -113.5s125.834 -38.5 198.501 -38.5s139 14.333 199 43s111 69.667 153 123c30 43.333 51.167 84.5 63.5 123.5s20.5 95.833 24.5 170.5h-456v170h641v-780h-131l-48 180c-67.333 -76.667 -136.833 -131.667 -208.5 -165
s-157.834 -50 -258.501 -50c-101.333 0 -193 17.167 -275 51.5s-152.667 84.333 -212 150s-105.166 145.334 -137.499 239.001s-48.5 196.834 -48.5 309.501c0 117.333 16.333 223.333 49 318s79.667 176 141 244s135.666 120 222.999 156s183 54 287 54
c107.333 0 202.666 -18 285.999 -54s151.666 -89.667 204.999 -161s91 -160 113 -266z" />
    <glyph glyph-name="H" unicode="H" horiz-adv-x="1470" 
d="M176 1466h205v-604h692v604h205v-1466h-205v678h-692v-678h-205v1466z" />
    <glyph glyph-name="I" unicode="I" horiz-adv-x="600" 
d="M176 1466h205v-1466h-205v1466z" />
    <glyph glyph-name="J" unicode="J" horiz-adv-x="1036" 
d="M27 489l202 -0.000976562c0 -65.333 4.16699 -121 12.5 -167s27.5 -84.833 57.5 -116.5s75.667 -47.5 137 -47.5c76 0 130.167 23.667 162.5 71s48.5 125.333 48.5 234v1003h205v-1003c0 -87.333 -5.5 -155.166 -16.5 -203.499s-30.833 -91.166 -59.5 -128.499
c-35.333 -48 -83.333 -86.333 -144 -115s-126 -43 -196 -43c-71.333 0 -136.333 13.167 -195 39.5s-105 63.833 -139 112.5c-20 27.333 -35.167 55.166 -45.5 83.499s-17.833 62.833 -22.5 103.5s-7 93.667 -7 159v18z" />
    <glyph glyph-name="K" unicode="K" horiz-adv-x="1382" 
d="M176 1466h205v-716l690 716h270l-591 -600l587 -866h-241l-486 735l-229 -227v-508h-205v1466z" />
    <glyph glyph-name="L" unicode="L" 
d="M176 1466h205v-1282h735v-184h-940v1466z" />
    <glyph glyph-name="M" unicode="M" horiz-adv-x="1722" 
d="M176 1466h291l373 -1224l370 1224h289v-1466h-207v1176l-362 -1176h-191l-358 1180v-1180h-205v1466z" />
    <glyph glyph-name="N" unicode="N" horiz-adv-x="1470" 
d="M176 1466h232l665 -1153v1153h205v-1466h-229l-668 1161v-1161h-205v1466z" />
    <glyph glyph-name="O" unicode="O" horiz-adv-x="1614" 
d="M72 719c0 120 16.498 227.666 49.498 322.999s80.667 176.833 143 244.5s137.5 119.334 225.5 155.001s187.333 53.5 298 53.5c106 0 202.333 -17 289 -51s161.334 -84.167 224.001 -150.5s110.334 -145.5 143.001 -237.5s49 -195.667 49 -311
c0 -147.333 -28.167 -279.5 -84.5 -396.5s-138.5 -208.833 -246.5 -275.5s-236.667 -100 -386 -100c-107.333 0 -204.333 17.167 -291 51.5s-161.167 84.5 -223.5 150.5s-109.5 145 -141.5 237s-48 194.333 -48 307zM286.998 722.999
c0 -115.333 19.835 -215.497 59.502 -300.497s97.167 -150.333 172.5 -196s163.666 -68.5 264.999 -68.5c102.667 0 191.667 23.167 267 69.5s132.666 113.833 171.999 202.5s59 193.667 59 315c0 86 -11.5 164.5 -34.5 235.5s-55.333 130.667 -97 179
s-93.5 85.666 -155.5 111.999s-132.333 39.5 -211 39.5s-148.667 -13.167 -210 -39.5s-113.333 -64.833 -156 -115.5s-75.167 -112.834 -97.5 -186.501s-33.5 -155.834 -33.5 -246.501z" />
    <glyph glyph-name="P" unicode="P" horiz-adv-x="1382" 
d="M176 1466h563.002c100 0 176.667 -5.66699 230 -17s99.666 -32.333 138.999 -63c53.333 -38 93.666 -85.333 120.999 -142s41 -121.667 41 -195c0 -98 -22.667 -182.667 -68 -254s-108 -121.333 -188 -150c-54.667 -20.667 -136.667 -31 -246 -31h-387v-614h-205v1466z
M381.002 799l319.002 0.00195312c77.333 0 140.166 4.66699 188.499 14s88.166 31.666 119.499 66.999s47 88.666 47 159.999c0 93.333 -28.667 157 -86 191s-135.333 51 -234 51h-354v-483z" />
    <glyph glyph-name="Q" unicode="Q" horiz-adv-x="1614" 
d="M1284 174l188.999 -156.001l-101 -127l-215 177c-52.667 -34 -109.5 -58.333 -170.5 -73s-131.167 -22 -210.5 -22c-146 0 -272.167 32.333 -378.5 97s-187.166 153.667 -242.499 267s-83 242 -83 386c0 115.333 16.833 221.333 50.5 318s81.5 178.334 143.5 245.001
s137.667 118.167 227 154.5s187.666 54.5 294.999 54.5s204.333 -17 291 -51s161.334 -84.333 224.001 -151s110 -146.167 142 -238.5s48 -195.5 48 -309.5c0 -116 -18 -223 -54 -321s-87.667 -181.333 -155 -250zM1135 296.999c98 106 147 255.332 147 447.999
c0 114.667 -19.667 214.834 -59 300.501s-96.833 151.334 -172.5 197.001s-164.5 68.5 -266.5 68.5c-103.333 0 -192.5 -23.167 -267.5 -69.5s-132 -113.333 -171 -201s-58.5 -192.167 -58.5 -313.5c0 -86 11.5 -164.333 34.5 -235s56 -130.834 99 -180.501
s95.333 -87.667 157 -114s130.5 -39.5 206.5 -39.5s145 14.333 207 43l-147 116l106 127z" />
    <glyph glyph-name="R" unicode="R" horiz-adv-x="1470" 
d="M176 1466l608 -0.000976562c105.333 0 184.333 -5.33301 237 -16s99.334 -30.334 140.001 -59.001c49.333 -35.333 86.666 -80.666 111.999 -135.999s38 -118 38 -188c0 -84 -17.333 -153.833 -52 -209.5s-86.334 -99.167 -155.001 -130.5c48.667 -16 86 -36.333 112 -61
s43.833 -58.167 53.5 -100.5s14.5 -100.5 14.5 -174.5v-162c0 -88 23.333 -164.333 70 -229h-242c-13.333 52.667 -22.5 92.334 -27.5 119.001s-7.5 56 -7.5 88v184c0 67.333 -12.167 118 -36.5 152s-57.666 55.833 -99.999 65.5s-98.5 14.5 -168.5 14.5h-391v-623h-205
v1466zM381 1282v-475h385c70 0 128.167 5.33301 174.5 16s84.5 33.667 114.5 69s45 86 45 152c0 96 -28 159.667 -84 191s-134.667 47 -236 47h-399z" />
    <glyph glyph-name="S" unicode="S" horiz-adv-x="1382" 
d="M86 489l214.996 -0.00195312c0.666992 -28 1.83398 -54.167 3.50098 -78.5s6.16699 -48.333 13.5 -72s17.666 -44 30.999 -61s33 -34.5 59 -52.5c70.667 -44.667 163.334 -67 278.001 -67c108.667 0 194.834 20.833 258.501 62.5s95.5 97.834 95.5 168.501
c0 41.333 -13.833 75.666 -41.5 102.999s-73.167 51.666 -136.5 72.999l-444 166c-183.333 67.333 -275 180.666 -275 339.999c0 92.667 25 171 75 235s115 111.5 195 142.5s165 46.5 255 46.5c109.333 0 203.5 -17.167 282.5 -51.5s140.5 -83.5 184.5 -147.5
c26 -36 43 -74.833 51 -116.5s13.333 -94.167 16 -157.5h-215c-2 52.667 -5 89 -9 109s-12 39.667 -24 59c-14.667 22.667 -37.167 43.5 -67.5 62.5s-64.166 33.5 -101.499 43.5s-77.666 15 -120.999 15c-60 0 -113.5 -9.66699 -160.5 -29s-83.667 -45.5 -110 -78.5
s-39.5 -70.833 -39.5 -113.5c0 -41.333 10.667 -74.166 32 -98.499s62 -48.166 122 -71.499l469 -175c93.333 -33.333 163 -77.5 209 -132.5s69 -121.833 69 -200.5c0 -69.333 -17.333 -134.666 -52 -195.999s-82.667 -112.333 -144 -153
c-47.333 -31.333 -101.666 -54.166 -162.999 -68.499s-134 -21.5 -218 -21.5c-126.667 0 -234.334 17.667 -323.001 53s-155.667 87.833 -201 157.5s-68 155.167 -68 256.5v49z" />
    <glyph glyph-name="T" unicode="T" horiz-adv-x="1266" 
d="M27 1466h1175v-184h-485v-1282h-209v1282h-481v184z" />
    <glyph glyph-name="U" unicode="U" horiz-adv-x="1470" 
d="M158 1466l203.999 -0.00195312v-913c0 -128 30 -225.833 90 -293.5s153 -101.5 279 -101.5c78.667 0 145.334 16 200.001 48s95.5 77.333 122.5 136s40.5 127 40.5 205v919h202v-919c0 -117.333 -22.5 -219.166 -67.5 -305.499s-110.167 -152.666 -195.5 -198.999
s-187.333 -69.5 -306 -69.5c-181.333 0 -321.5 48.167 -420.5 144.5s-148.5 233.833 -148.5 412.5v936z" />
    <glyph glyph-name="V" unicode="V" horiz-adv-x="1382" 
d="M0 1466h225l449 -1233l442 1233h225l-565 -1466h-211z" />
    <glyph glyph-name="W" unicode="W" horiz-adv-x="1933" 
d="M14 1466l219 0.00195312l216 -874c9.33301 -26.667 17.833 -60.334 25.5 -101.001s18.167 -105.334 31.5 -194.001l33.5 144.5l20.5 91l13 59.5l263 874h208l261 -874c9.33301 -32.667 21 -79.5 35 -140.5l36 -154.5c24 140.667 44 239 60 295l225 874h223l-403 -1466
h-203l-340 1190l-332 -1190h-215z" />
    <glyph glyph-name="X" unicode="X" horiz-adv-x="1382" 
d="M14 0l537 745l-494 721h248l377 -559l391 559h242l-512 -712l524 -754h-254l-399 596l-422 -596h-238z" />
    <glyph glyph-name="Y" unicode="Y" horiz-adv-x="1382" 
d="M0 1466h242l436 -694l422 694h241l-561 -886v-580h-207v580z" />
    <glyph glyph-name="Z" unicode="Z" horiz-adv-x="1266" 
d="M49 180l881 1102h-821v184h1071v-182l-883 -1100h883v-184h-1131v180z" />
    <glyph glyph-name="bracketleft" unicode="[" horiz-adv-x="600" 
d="M131 1466h354v-184h-168v-1538h168v-184h-354v1906z" />
    <glyph glyph-name="backslash" unicode="\" horiz-adv-x="600" 
d="M193 1466l413 -1761h-176l-416 1761h179z" />
    <glyph glyph-name="bracketright" unicode="]" horiz-adv-x="600" 
d="M426 -440h-354v184h170v1538h-170v184h354v-1906z" />
    <glyph glyph-name="asciicircum" unicode="^" horiz-adv-x="987" 
d="M297 1022h-123l240 448h116l242 -448h-125l-176 305z" />
    <glyph glyph-name="underscore" unicode="_" 
d="M0 -176h1116v-156h-1116v156z" />
    <glyph glyph-name="grave" unicode="`" horiz-adv-x="717" 
d="M385 1507l139 -295h-151l-226 295h238z" />
    <glyph glyph-name="a" unicode="a" 
d="M131 739c4 50 10.502 90.499 19.502 121.499s23.167 60.833 42.5 89.5c72 100 194.667 150 368 150c86 0 159.167 -10.167 219.5 -30.5s107.5 -55.833 141.5 -106.5s51 -119 51 -205v-506c0 -39.333 4.66699 -68 14 -86s25.666 -27 48.999 -27
c1.33301 0 7.66602 0.666992 18.999 2s23 2 35 2v-139c-47.333 -14.667 -85 -22 -113 -22c-54.667 0 -95.334 13.167 -122.001 39.5s-42.667 66.833 -48 121.5c-52 -57.333 -108.833 -100 -170.5 -128s-128.5 -42 -200.5 -42c-68 0 -128.5 13.333 -181.5 40
s-94.333 64.334 -124 113.001s-44.5 103.667 -44.5 165c0 82 22.333 148.167 67 198.5s101.5 87.5 170.5 111.5s136.333 40.333 202 49s154.167 18 265.5 28v53c0 71.333 -17.5 122.333 -52.5 153s-94.167 46 -177.5 46c-77.333 0 -135.166 -15.167 -173.499 -45.5
s-59.5 -78.833 -63.5 -145.5h-193zM788.002 534.999c-118.667 -16.667 -206.167 -31.001 -262.5 -43.001s-98.5 -25 -126.5 -39c-36 -12.667 -63.667 -32.167 -83 -58.5s-29 -56.166 -29 -89.499c0 -51.333 17.333 -91.833 52 -121.5s82.667 -44.5 144 -44.5
c55.333 0 106.5 11.333 153.5 34s84 53.167 111 91.5s40.5 79.833 40.5 124.5v146z" />
    <glyph glyph-name="b" unicode="b" 
d="M131 1466l186 0.00292969v-532c34 37.333 67.5 68.666 100.5 93.999s66.5 43.666 100.5 54.999s72.333 17 115 17c62.667 0 119.667 -12.833 171 -38.5s94.5 -62.334 129.5 -110.001s62.167 -105.5 81.5 -173.5s29 -143.667 29 -227c0 -114 -18 -214.833 -54 -302.5
s-86.5 -155.5 -151.5 -203.5s-139.833 -72 -224.5 -72c-29.333 0 -58.5 3 -87.5 9s-55.5 14.833 -79.5 26.5s-46.333 25.667 -67 42s-45.667 39.833 -75 70.5v-117h-174v1462zM573 930.003c-81.333 0 -146.332 -35.168 -194.999 -105.501s-73 -166.833 -73 -289.5
c0 -79.333 11 -149.166 33 -209.499s53.5 -106.5 94.5 -138.5s87.833 -48 140.5 -48c55.333 0 103.666 16 144.999 48s73.333 78 96 138s34 130 34 210c0 123.333 -24.5 220 -73.5 290s-116.167 105 -201.5 105z" />
    <glyph glyph-name="c" unicode="c" horiz-adv-x="1036" 
d="M817 385h193c-6.66699 -56.667 -16.167 -104 -28.5 -142s-30.166 -72.667 -53.499 -104c-94 -116 -213.667 -174 -359 -174c-158.667 0 -281.167 48.5 -367.5 145.5s-129.5 233.5 -129.5 409.5c0 121.333 19.667 225.5 59 312.5s96.166 153.333 170.499 199
s162.166 68.5 263.499 68.5c81.333 0 154 -16 218 -48s115.333 -77.833 154 -137.5s63 -131.167 73 -214.5h-193c-14 74 -43.167 130.833 -87.5 170.5s-99.166 59.5 -164.499 59.5c-60 0 -112.5 -15 -157.5 -45s-79.5 -73.667 -103.5 -131s-36 -126.333 -36 -207
c0 -130.667 26 -232 78 -304s125 -108 219 -108c130 0 214 83.333 252 250z" />
    <glyph glyph-name="d" unicode="d" 
d="M803 965l-0.000976562 500.998h184v-1462h-176v135c-36.667 -44 -70 -77.5 -100 -100.5s-61.5 -39.667 -94.5 -50s-72.5 -15.5 -118.5 -15.5c-84.667 0 -159.334 22.667 -224.001 68s-114.5 109.333 -149.5 192s-52.5 178.334 -52.5 287.001
c0 114.667 18.167 215.667 54.5 303s87.833 155.333 154.5 204s142.334 73 227.001 73c42 0 78.333 -4 109 -12s60.834 -21.667 90.501 -41s61.5 -46.666 95.5 -81.999zM542.999 138.998c58 0 107.333 15.499 148 46.499s71.167 75.833 91.5 134.5
s30.5 130.334 30.5 215.001c0 129.333 -23 227.5 -69 294.5s-113 100.5 -201 100.5c-89.333 0 -157.5 -33.5 -204.5 -100.5s-70.5 -163.833 -70.5 -290.5c0 -128.667 23.5 -227.5 70.5 -296.5s115.167 -103.5 204.5 -103.5z" />
    <glyph glyph-name="e" unicode="e" 
d="M1044 479l-780 0.000976562c15.333 -226.667 117 -340 305 -340c74.667 0 133.834 17.667 177.501 53s73.5 89.333 89.5 162h192c-24 -118.667 -77.5 -211.834 -160.5 -279.501s-185.167 -101.5 -306.5 -101.5c-100 0 -186.833 22.5 -260.5 67.5
s-130.167 109.833 -169.5 194.5s-59 184.667 -59 300c0 112 20.5 210.833 61.5 296.5s99.333 151.167 175 196.5s163.834 68 264.501 68c81.333 0 151.666 -13.5 210.999 -40.5s108.166 -64.667 146.499 -113s66.833 -104.5 85.5 -168.5s28 -135 28 -213v-82zM856 645.001
c-6 90 -33.999 160 -83.999 210s-117.667 75 -203 75c-168.667 0 -268.334 -95 -299.001 -285h586z" />
    <glyph glyph-name="f" unicode="f" horiz-adv-x="600" 
d="M14 1073l133.002 -0.000976562v76c0 68 3.66699 119.5 11 154.5s20.333 66.833 39 95.5c21.333 28.667 50.666 51.834 87.999 69.501s76.666 26.5 117.999 26.5c46 0 85 -4.66699 117 -14v-166c-23.333 8 -47 12 -71 12c-41.333 0 -69.833 -10.833 -85.5 -32.5
s-23.5 -61.167 -23.5 -118.5c0 -10 -1.33301 -26.667 -4 -50s-4 -41 -4 -53h188v-158h-188v-915h-185v915h-133v158z" />
    <glyph glyph-name="g" unicode="g" 
d="M803 928v145.001h180v-907c0 -126 -11.333 -232.667 -34 -320s-67.667 -156.833 -135 -208.5s-164 -77.5 -290 -77.5c-86.667 0 -158.834 11.5 -216.501 34.5s-102.167 58 -133.5 105s-51.666 109.5 -60.999 187.5h184c14 -57.333 37.667 -97.833 71 -121.5
s84 -35.5 152 -35.5c66.667 0 119.5 12.333 158.5 37s67.167 65.667 84.5 123s26.666 137 27.999 239c-44 -56.667 -89.167 -96.834 -135.5 -120.501s-101.833 -35.5 -166.5 -35.5c-85.333 0 -159.5 21.833 -222.5 65.5s-111.167 106.667 -144.5 189s-50 179.833 -50 292.5
c0 116 17 218 51 306s83 155.667 147 203s138.667 71 224 71c46 0 87.333 -6.33301 124 -19s70.834 -32.167 102.501 -58.5s59.167 -57.833 82.5 -94.5zM268 535.001c0 -120.667 24.1689 -216.833 72.502 -288.5s113.166 -107.5 194.499 -107.5
c52.667 0 98.834 16.167 138.501 48.5s70.5 79 92.5 140s33 130.167 33 207.5c0 78.667 -11 148.334 -33 209.001s-52.833 106.834 -92.5 138.501s-85.834 47.5 -138.501 47.5s-99.334 -15.833 -140.001 -47.5s-72 -77.834 -94 -138.501s-33 -130.334 -33 -209.001z" />
    <glyph glyph-name="h" unicode="h" 
d="M131 1466l186 0.00195312v-510c50 51.333 99.833 88.166 149.5 110.499s107.834 33.5 174.501 33.5c127.333 0 216.833 -33.667 268.5 -101s77.5 -165.333 77.5 -294v-705h-184v664c0 96.667 -15.667 165.167 -47 205.5s-83.333 60.5 -156 60.5
c-98.667 0 -174.334 -37.667 -227.001 -113c-22 -28.667 -36.833 -60.334 -44.5 -95.001s-11.5 -85.667 -11.5 -153v-569h-186v1466z" />
    <glyph glyph-name="i" unicode="i" horiz-adv-x="485" 
d="M131 1466h186v-211h-186v211zM131 1073h186v-1073h-186v1073z" />
    <glyph glyph-name="j" unicode="j" horiz-adv-x="485" 
d="M-41 -260c24.667 -6.66699 50 -9.99707 76 -9.99707s45.833 4.66699 59.5 14s23.167 26.166 28.5 50.499s8 60.166 8 107.499v1171h186v-1198c0 -210 -83 -315 -249 -315c-8.66699 0 -22.5 0.666992 -41.5 2s-41.5 2.66602 -67.5 3.99902v174zM131 1466h186v-211h-186
v211z" />
    <glyph glyph-name="k" unicode="k" horiz-adv-x="1036" 
d="M131 1466h186v-825l437 432h241l-407 -399l418 -674h-226l-317 547l-146 -135v-412h-186v1466z" />
    <glyph glyph-name="l" unicode="l" horiz-adv-x="485" 
d="M131 1466h186v-1466h-186v1466z" />
    <glyph glyph-name="m" unicode="m" horiz-adv-x="1722" 
d="M131 1073h185.999v-135c56.667 60.667 107.5 102.834 152.5 126.501s98.167 35.5 159.5 35.5c63.333 0 115.5 -12.5 156.5 -37.5s78.167 -66.5 111.5 -124.5c56.667 60.667 108.167 102.834 154.5 126.501s101.5 35.5 165.5 35.5c216.667 0 325 -123 325 -369v-731h-186
v700c0 80 -14.333 138.333 -43 175s-74.334 55 -137.001 55c-48.667 0 -94.5 -14 -137.5 -42s-71.167 -64 -84.5 -108c-10.667 -21.333 -17.667 -46.833 -21 -76.5s-5 -74.5 -5 -134.5v-569h-187v674c0 65.333 -4.5 116.666 -13.5 153.999s-24.667 63.666 -47 78.999
s-54.5 23 -96.5 23c-56 0 -106.667 -15.667 -152 -47s-78.666 -74.333 -99.999 -129c-7.33301 -22 -11.666 -42.167 -12.999 -60.5s-2 -58.5 -2 -120.5v-573h-186v1073z" />
    <glyph glyph-name="n" unicode="n" 
d="M131 1073l186 0.00195312v-143c54.667 64.667 105.5 109.167 152.5 133.5s106.167 36.5 177.5 36.5c74 0 139.833 -17.5 197.5 -52.5s96.5 -81.833 116.5 -140.5c11.333 -32.667 18.5 -62 21.5 -88s4.5 -71.667 4.5 -137v-682h-184v651
c0 67.333 -7.16699 121.5 -21.5 162.5s-36.833 70.667 -67.5 89s-71.334 27.5 -122.001 27.5c-40.667 0 -78.167 -6.83301 -112.5 -20.5s-63.666 -32.834 -87.999 -57.501s-41.5 -53.334 -51.5 -86.001c-10.667 -28 -17.167 -52.5 -19.5 -73.5s-3.5 -64.833 -3.5 -131.5
v-561h-186v1073z" />
    <glyph glyph-name="o" unicode="o" 
d="M72 535c0 86.667 11.332 165.667 33.999 237s54.834 131 96.501 179s92.334 84.833 152.001 110.5s127.167 38.5 202.5 38.5c100.667 0 187.667 -22.5 261 -67.5s129.333 -110 168 -195s58 -185.833 58 -302.5c0 -116 -19.167 -216.167 -57.5 -300.5
s-94.333 -149 -168 -194s-160.834 -67.5 -261.501 -67.5c-74.667 0 -142 12.833 -202 38.5s-111 62.667 -153 111s-74.167 107.833 -96.5 178.5s-33.5 148.667 -33.5 234zM267.999 535c0 -82.667 11.5 -153.668 34.5 -213.001s56.167 -104.666 99.5 -135.999s95 -47 155 -47
c92.667 0 164.334 35.333 215.001 106s76 170 76 298c0 80.667 -11.333 150 -34 208s-56.167 102.333 -100.5 133s-96.5 46 -156.5 46s-111.833 -15.5 -155.5 -46.5s-76.834 -75.833 -99.501 -134.5s-34 -130 -34 -214z" />
    <glyph glyph-name="p" unicode="p" 
d="M131 1073l185.998 0.000976562v-127c48.667 56.667 96.167 96.5 142.5 119.5s101.5 34.5 165.5 34.5c65.333 0 124.333 -12.667 177 -38s96.834 -61.833 132.501 -109.5s62.834 -105.834 81.501 -174.501s28 -145.667 28 -231c0 -116.667 -17.333 -218 -52 -304
s-84.334 -152.5 -149.001 -199.5s-139.667 -70.5 -225 -70.5c-64.667 0 -120.167 11 -166.5 33s-91.166 57.667 -134.499 107v-527h-186v1487zM579.998 930.001c-84.667 0 -151 -35 -199 -105s-72 -166.667 -72 -290c0 -82 11 -152.667 33 -212s53.5 -104.833 94.5 -136.5
s88.833 -47.5 143.5 -47.5s102.167 16 142.5 48s71.333 77.5 93 136.5s32.5 129.5 32.5 211.5c0 123.333 -23.667 220 -71 290s-113 105 -197 105z" />
    <glyph glyph-name="q" unicode="q" 
d="M803 938v135h184v-1487h-184v545c-42 -54 -88.167 -93.833 -138.5 -119.5s-108.833 -38.5 -175.5 -38.5c-84.667 0 -158.667 22.167 -222 66.5s-111.666 108.166 -144.999 191.499s-50 181 -50 293c0 112.667 17.667 212.834 53 300.501s85.5 155.5 150.5 203.5
s140.5 72 226.5 72c137.333 0 237.666 -54 300.999 -162zM270 535c0 -78.667 10.6689 -147.832 32.002 -207.499s51.833 -106 91.5 -139s85.167 -49.5 136.5 -49.5c39.333 0 74.666 9.16699 105.999 27.5s58.833 45.333 82.5 81s41.667 77.167 54 124.5
s18.5 101.666 18.5 162.999c0 77.333 -10.833 146.333 -32.5 207s-52.334 107.167 -92.001 139.5s-85.167 48.5 -136.5 48.5s-96.833 -16.167 -136.5 -48.5s-70.167 -78.333 -91.5 -138s-32 -129.167 -32 -208.5z" />
    <glyph glyph-name="r" unicode="r" horiz-adv-x="717" 
d="M131 1073l186.001 0.000976562v-176c68 135.333 155.667 203 263 203c10 0 17.5 -0.333008 22.5 -1s11.667 -1.33398 20 -2.00098s19.166 -1.66699 32.499 -3v-197c-20 2.66699 -38.333 4 -55 4c-110 0 -184.667 -32.667 -224 -98s-59 -156.333 -59 -273v-530h-186v1073z
" />
    <glyph glyph-name="s" unicode="s" horiz-adv-x="1036" 
d="M72 350l192.001 0.000976562c0.666992 -48.667 9.66699 -88.667 27 -120s43.666 -54.333 78.999 -69s80.666 -22 135.999 -22c68.667 0 124 14.167 166 42.5s63 66.166 63 113.499c0 24 -6.83301 43 -20.5 57s-40.834 29.667 -81.501 47l-336 144
c-48 21.333 -85.167 43.333 -111.5 66s-45.666 48.5 -57.999 77.5s-18.5 62.833 -18.5 101.5c0 60 16.5 113.833 49.5 161.5s79.833 84.667 140.5 111s129.667 39.5 207 39.5c115.333 0 210 -29 284 -87s111 -143 111 -255h-184c-2 57.333 -21.167 100.333 -57.5 129
s-90.166 43 -161.499 43c-37.333 0 -71.666 -5.33301 -102.999 -16s-55.5 -25.5 -72.5 -44.5s-25.5 -41.167 -25.5 -66.5c0 -38 30.667 -69.333 92 -94l316 -125c56.667 -24.667 101.667 -49.167 135 -73.5s56.666 -51.5 69.999 -81.5s20 -67.333 20 -112
c0 -66.667 -17.667 -126.167 -53 -178.5s-85.333 -93 -150 -122s-139.667 -43.5 -225 -43.5c-91.333 0 -169.333 14.667 -234 44s-113.5 72.333 -146.5 129s-49.5 124.667 -49.5 204z" />
    <glyph glyph-name="t" unicode="t" horiz-adv-x="600" 
d="M27 1073l143.002 -0.000976562v260h184v-260h176v-158h-176v-651c0 -32.667 3.16699 -58.667 9.5 -78s17.666 -32.666 33.999 -39.999s40.833 -11 73.5 -11h59v-153c-54 -6 -97.667 -9 -131 -9c-60 0 -106.333 9 -139 27s-55.834 49.167 -69.501 93.5
s-20.5 107.5 -20.5 189.5v632h-143v158z" />
    <glyph glyph-name="u" unicode="u" 
d="M131 1073l186.001 0.00195312v-682c0 -62.667 6.5 -112.5 19.5 -149.5s34.333 -63.333 64 -79s70.834 -23.5 123.501 -23.5c45.333 0 86.666 10 123.999 30s68.333 47.667 93 83c23.333 32 39.5 68.167 48.5 108.5s13.5 96.166 13.5 167.499v545h184v-1069h-174v166
c-22.667 -44.667 -50.834 -81.667 -84.501 -111s-71.5 -51 -113.5 -65s-87.333 -21 -136 -21c-128 0 -218 35.167 -270 105.5s-78 171.166 -78 302.499v692z" />
    <glyph glyph-name="v" unicode="v" horiz-adv-x="1036" 
d="M225 1073l281 -848l282 848h203l-399 -1073h-184l-394 1073h211z" />
    <glyph glyph-name="w" unicode="w" horiz-adv-x="1470" 
d="M14 1073h205l154 -629c20 -79.333 35 -148 45 -206c13.333 81.333 28.333 150 45 206l160 629h211l153 -620c13.333 -44.667 28.333 -113 45 -205c6.66699 32 12.5 61.333 17.5 88s8.5 44 10.5 52l17 65l166 620h197l-324 -1073h-186l-207 825l-211 -825h-188z" />
    <glyph glyph-name="x" unicode="x" horiz-adv-x="1036" 
d="M385 551l-350 522h229l234 -373l241 373h230l-355 -512l377 -561h-237l-256 412l-260 -412h-224z" />
    <glyph glyph-name="y" unicode="y" horiz-adv-x="1036" 
d="M223 1073l285.001 -850l283 850h200l-430 -1194c-30 -75.333 -54.333 -131.5 -73 -168.5s-46.334 -71.333 -83.001 -103s-82.334 -47.5 -137.001 -47.5c-47.333 0 -97.666 6 -150.999 18v174c45.333 -14.667 81.333 -22 108 -22c30 0 54.333 5.83301 73 17.5
s36.667 35.5 54 71.5s37.333 90.333 60 163l-398 1091h209z" />
    <glyph glyph-name="z" unicode="z" horiz-adv-x="1036" 
d="M72 147l602 758h-553v168h794v-149l-602 -754h617v-170h-858v147z" />
    <glyph glyph-name="braceleft" unicode="{" horiz-adv-x="717" 
d="M252 508c66 -16 112.167 -41.832 138.5 -77.499s39.5 -91.167 39.5 -166.5v-489c0 -116 57.333 -186.333 172 -211c-64 0 -116.167 2.83301 -156.5 8.5s-75.333 17.5 -105 35.5s-52.667 45.333 -69 82s-24.833 86 -25.5 148v471c0 59.333 -13.167 104.666 -39.5 135.999
s-68.5 52.333 -126.5 63c58.667 16 101 40.167 127 72.5s39 76.5 39 132.5v504c0 64.667 13.833 115.334 41.5 152.001s65 62 112 76s102.167 21 165.5 21h37c-62.667 -23.333 -107 -47.333 -133 -72s-39 -72.334 -39 -143.001v-510c0 -68 -12.5 -118.333 -37.5 -151
s-71.833 -60 -140.5 -82z" />
    <glyph glyph-name="bar" unicode="|" horiz-adv-x="553" 
d="M184 1466h158v-1761h-158v1761z" />
    <glyph glyph-name="braceright" unicode="}" horiz-adv-x="717" 
d="M418 508c-44.667 14.667 -79.667 31.3291 -105 49.9961s-43.5 42.667 -54.5 72s-16.5 66.333 -16.5 111v510c0 62.667 -12.833 107.834 -38.5 135.501s-69.5 54.167 -131.5 79.5c60 0 108 -1.83301 144 -5.5s70.667 -13.667 104 -30s59.333 -41.666 78 -75.999
s28 -80.166 28 -137.499v-504c0 -56 13.167 -100 39.5 -132s68.5 -56.333 126.5 -73c-58 -10.667 -100.167 -31.667 -126.5 -63s-39.5 -76.666 -39.5 -135.999v-471c0 -79.333 -13.667 -138.833 -41 -178.5s-65.833 -65.5 -115.5 -77.5s-115.5 -18 -197.5 -18
c113.333 24 170 94.333 170 211v489c0 75.333 13.167 130.833 39.5 166.5s71.833 61.5 136.5 77.5z" />
    <glyph glyph-name="asciitilde" unicode="~" horiz-adv-x="1221" 
d="M999 1372l77.999 -56.998l-56 -95.5c-11.333 -19.667 -27.666 -42.334 -48.999 -68.001s-45.166 -46.167 -71.499 -61.5s-55.5 -23 -87.5 -23c-34.667 0 -67.667 5.66699 -99 17s-69.833 28.166 -115.5 50.499s-86.334 39.833 -122.001 52.5s-71.5 19 -107.5 19
c-40 0 -74.5 -11.667 -103.5 -35s-58.833 -63.333 -89.5 -120l-74 61c40.667 72 74.5 126.833 101.5 164.5s53 63.667 78 78s55.5 21.5 91.5 21.5c42.667 0 90.167 -11.833 142.5 -35.5l156 -71.5c51.667 -24 98.834 -36 141.501 -36c41.333 0 75.166 9.83301 101.499 29.5
s54.5 56.167 84.5 109.5z" />
    <glyph glyph-name="Adieresis" 
d="M528 1319l0.00195312 147h105v-147c76.667 -12 142.334 -34.5 197.001 -67.5s97.334 -77.167 128.001 -132.5s48 -121.666 52 -198.999h-166c-14.667 73.333 -38.834 129.333 -72.501 168s-79.834 60.334 -138.501 65.001v-791c54 12 96 36 126 72s57 93.333 81 172h170
c-19.333 -116.667 -58.833 -209.667 -118.5 -279s-145.834 -112.666 -258.501 -129.999v-197h-105v197c-79.333 11.333 -142.333 29.666 -189 54.999s-88 64.333 -124 117c-36.667 49.333 -63.5 104.5 -80.5 165.5s-25.5 129.167 -25.5 204.5
c0 109.333 15.833 204.166 47.5 284.499s79.167 145.666 142.5 195.999s139.666 83.5 228.999 99.5zM528.002 1153c-81.333 -28 -140.5 -75.832 -177.5 -143.499s-55.5 -157.834 -55.5 -270.501c0 -106.667 18.5 -190.5 55.5 -251.5s96.167 -104.167 177.5 -129.5v795z" />
    <glyph glyph-name="Adieresis" unicode="&#x402;" 
d="M528 1319l0.00195312 147h105v-147c76.667 -12 142.334 -34.5 197.001 -67.5s97.334 -77.167 128.001 -132.5s48 -121.666 52 -198.999h-166c-14.667 73.333 -38.834 129.333 -72.501 168s-79.834 60.334 -138.501 65.001v-791c54 12 96 36 126 72s57 93.333 81 172h170
c-19.333 -116.667 -58.833 -209.667 -118.5 -279s-145.834 -112.666 -258.501 -129.999v-197h-105v197c-79.333 11.333 -142.333 29.666 -189 54.999s-88 64.333 -124 117c-36.667 49.333 -63.5 104.5 -80.5 165.5s-25.5 129.167 -25.5 204.5
c0 109.333 15.833 204.166 47.5 284.499s79.167 145.666 142.5 195.999s139.666 83.5 228.999 99.5zM528.002 1153c-81.333 -28 -140.5 -75.832 -177.5 -143.499s-55.5 -157.834 -55.5 -270.501c0 -106.667 18.5 -190.5 55.5 -251.5s96.167 -104.167 177.5 -129.5v795z" />
    <glyph glyph-name="Aring" 
d="M1014 983l-173.998 -0.00585938c-11.333 224 -109 336 -293 336c-54.667 0 -102.834 -11.5 -144.501 -34.5s-74.5 -55.167 -98.5 -96.5s-36 -87 -36 -137c0 -31.333 4.66699 -63.666 14 -96.999s22.166 -67.666 38.499 -102.999s32.5 -67.666 48.5 -96.999h358v-125h-297
c15.333 -51.333 23 -96.333 23 -135c0 -67.333 -11 -124.166 -33 -170.499s-61.667 -96.166 -119 -149.499c24.667 8 48 13.833 70 17.5s48 5.5 78 5.5c42.667 0 99.667 -9.66699 171 -29s123.333 -29 156 -29c32 0 65 6 99 18s65.333 27.333 94 46l82 -131
c-33.333 -31.333 -74.166 -55.666 -122.499 -72.999s-97.833 -26 -148.5 -26c-30.667 0 -59.334 3.16699 -86.001 9.5s-64.5 17 -113.5 32s-88.833 26.167 -119.5 33.5s-62.667 11 -96 11c-34.667 0 -68 -6.5 -100 -19.5s-67.667 -32.167 -107 -57.5l-95 143
c70.667 56.667 125.667 112.667 165 168s59 118.666 59 189.999c0 26 -2.66699 48.5 -8 67.5s-16.333 45.167 -33 78.5h-183v125h117c-36.667 60 -62.167 111.5 -76.5 154.5s-21.5 88.167 -21.5 135.5c0 61.333 11.167 118 33.5 170s54 96.833 95 134.5
s90.333 66.667 148 87s120.5 30.5 188.5 30.5c144.667 0 258.667 -43.667 342 -131s125 -204.666 125 -351.999z" />
    <glyph glyph-name="Aring" unicode="&#x403;" 
d="M1014 983l-173.998 -0.00585938c-11.333 224 -109 336 -293 336c-54.667 0 -102.834 -11.5 -144.501 -34.5s-74.5 -55.167 -98.5 -96.5s-36 -87 -36 -137c0 -31.333 4.66699 -63.666 14 -96.999s22.166 -67.666 38.499 -102.999s32.5 -67.666 48.5 -96.999h358v-125h-297
c15.333 -51.333 23 -96.333 23 -135c0 -67.333 -11 -124.166 -33 -170.499s-61.667 -96.166 -119 -149.499c24.667 8 48 13.833 70 17.5s48 5.5 78 5.5c42.667 0 99.667 -9.66699 171 -29s123.333 -29 156 -29c32 0 65 6 99 18s65.333 27.333 94 46l82 -131
c-33.333 -31.333 -74.166 -55.666 -122.499 -72.999s-97.833 -26 -148.5 -26c-30.667 0 -59.334 3.16699 -86.001 9.5s-64.5 17 -113.5 32s-88.833 26.167 -119.5 33.5s-62.667 11 -96 11c-34.667 0 -68 -6.5 -100 -19.5s-67.667 -32.167 -107 -57.5l-95 143
c70.667 56.667 125.667 112.667 165 168s59 118.666 59 189.999c0 26 -2.66699 48.5 -8 67.5s-16.333 45.167 -33 78.5h-183v125h117c-36.667 60 -62.167 111.5 -76.5 154.5s-21.5 88.167 -21.5 135.5c0 61.333 11.167 118 33.5 170s54 96.833 95 134.5
s90.333 66.667 148 87s120.5 30.5 188.5 30.5c144.667 0 258.667 -43.667 342 -131s125 -204.666 125 -351.999z" />
    <glyph glyph-name="ccedilla" horiz-adv-x="1401" 
d="M399 1073l279 -848l373 1245h166l-451 -1470h-186l-301 860l-166 -61l-50 151z" />
    <glyph glyph-name="ccedilla" unicode="&#x40c;" horiz-adv-x="1401" 
d="M399 1073l279 -848l373 1245h166l-451 -1470h-186l-301 860l-166 -61l-50 151z" />
    <glyph glyph-name="eacute" horiz-adv-x="1221" 
d="M1100 1194v-158l-781 -331l781 -332v-154l-975 432v107zM1100 -4h-971v158h971v-158z" />
    <glyph glyph-name="eacute" unicode="&#x40b;" horiz-adv-x="1221" 
d="M1100 1194v-158l-781 -331l781 -332v-154l-975 432v107zM1100 -4h-971v158h971v-158z" />
    <glyph glyph-name="egrave" horiz-adv-x="1239" 
d="M102 1194l975 -436v-107l-975 -432v154l777 332l-777 331v158zM102 -4v158h971v-158h-971z" />
    <glyph glyph-name="egrave" unicode="&#x40f;" horiz-adv-x="1239" 
d="M102 1194l975 -436v-107l-975 -432v154l777 332l-777 331v158zM102 -4v158h971v-158h-971z" />
    <glyph glyph-name="ecircumflex" horiz-adv-x="1450" 
d="M1305 618c0 -62 -14.833 -118.166 -44.5 -168.499s-70.5 -90 -122.5 -119s-108.333 -43.5 -169 -43.5c-55.333 0 -106.5 11.833 -153.5 35.5s-85.5 55.5 -115.5 95.5c-29.333 -39.333 -68.5 -71 -117.5 -95s-101.167 -36 -156.5 -36
c-60.667 0 -116.334 14.833 -167.001 44.5s-90.834 69.667 -120.501 120s-44.5 105.833 -44.5 166.5c0 60 15 115.833 45 167.5s71 92.667 123 123s108 45.5 168 45.5c36.667 0 72.334 -6 107.001 -18s66.334 -28.667 95.001 -50s53 -45.666 73 -72.999
c32 45.333 70.667 80.166 116 104.499s96 36.5 152 36.5c46.667 0 90.167 -8.83301 130.5 -26.5s75.333 -41.667 105 -72s53.167 -65.833 70.5 -106.5s26 -84.334 26 -131.001zM1180 618.001c0 61.333 -19.832 112.999 -59.499 154.999s-88.834 63 -147.501 63
c-38 0 -73.667 -9.83301 -107 -29.5s-59.666 -46.167 -78.999 -79.5s-29 -69.666 -29 -108.999c0 -59.333 21.333 -110 64 -152s93 -63 151 -63c39.333 0 74.666 9.5 105.999 28.5s56 45.167 74 78.5s27 69.333 27 108zM641.001 618c0 61.333 -20.5 113 -61.5 155
s-90.833 63 -149.5 63s-108.5 -21.333 -149.5 -64s-61.5 -94 -61.5 -154c0 -59.333 20.667 -110 62 -152s91 -63 149 -63s107.667 20.667 149 62s62 92.333 62 153z" />
    <glyph glyph-name="ecircumflex" unicode="&#x452;" horiz-adv-x="1450" 
d="M1305 618c0 -62 -14.833 -118.166 -44.5 -168.499s-70.5 -90 -122.5 -119s-108.333 -43.5 -169 -43.5c-55.333 0 -106.5 11.833 -153.5 35.5s-85.5 55.5 -115.5 95.5c-29.333 -39.333 -68.5 -71 -117.5 -95s-101.167 -36 -156.5 -36
c-60.667 0 -116.334 14.833 -167.001 44.5s-90.834 69.667 -120.501 120s-44.5 105.833 -44.5 166.5c0 60 15 115.833 45 167.5s71 92.667 123 123s108 45.5 168 45.5c36.667 0 72.334 -6 107.001 -18s66.334 -28.667 95.001 -50s53 -45.666 73 -72.999
c32 45.333 70.667 80.166 116 104.499s96 36.5 152 36.5c46.667 0 90.167 -8.83301 130.5 -26.5s75.333 -41.667 105 -72s53.167 -65.833 70.5 -106.5s26 -84.334 26 -131.001zM1180 618.001c0 61.333 -19.832 112.999 -59.499 154.999s-88.834 63 -147.501 63
c-38 0 -73.667 -9.83301 -107 -29.5s-59.666 -46.167 -78.999 -79.5s-29 -69.666 -29 -108.999c0 -59.333 21.333 -110 64 -152s93 -63 151 -63c39.333 0 74.666 9.5 105.999 28.5s56 45.167 74 78.5s27 69.333 27 108zM641.001 618c0 61.333 -20.5 113 -61.5 155
s-90.833 63 -149.5 63s-108.5 -21.333 -149.5 -64s-61.5 -94 -61.5 -154c0 -59.333 20.667 -110 62 -152s91 -63 149 -63s107.667 20.667 149 62s62 92.333 62 153z" />
    <glyph glyph-name="ugrave" horiz-adv-x="1520" 
d="M176 1466h205v-716l690 716h270l-591 -600l587 -866h-241l-486 735l-229 -227v-508h-205v1466zM739 1876h238l-223 -289h-148z" />
    <glyph glyph-name="ugrave" unicode="&#x45c;" horiz-adv-x="1520" 
d="M176 1466h205v-716l690 716h270l-591 -600l587 -866h-241l-486 735l-229 -227v-508h-205v1466zM739 1876h238l-223 -289h-148z" />
    <glyph glyph-name="ucircumflex" horiz-adv-x="1104" 
d="M131 1073h186v-432l437 432h241l-407 -399l418 -674h-226l-317 547l-146 -135v-412h-186v1073zM543 1507h237l-227 -295h-145z" />
    <glyph glyph-name="ucircumflex" unicode="&#x45b;" horiz-adv-x="1104" 
d="M131 1073h186v-432l437 432h241l-407 -399l418 -674h-226l-317 547l-146 -135v-412h-186v1073zM543 1507h237l-227 -295h-145z" />
    <glyph glyph-name="dagger" unicode="&#xa0;" horiz-adv-x="1130" 
d="M350 1022c36.667 24.667 68.666 41.332 95.999 49.999s64.333 13 111 13c50 0 88.833 -4.16699 116.5 -12.5s60.5 -25.166 98.5 -50.499l158 158l106 -103l-162 -162c26.667 -38.667 44 -71 52 -97s12 -63.667 12 -113c0 -51.333 -4 -89.833 -12 -115.5
s-25.333 -57.5 -52 -95.5l162 -162l-106 -103l-158 160c-45.333 -30 -80.666 -49.167 -105.999 -57.5s-61.666 -12.5 -108.999 -12.5c-30.667 0 -55.667 1.66699 -75 5s-39.166 10 -59.499 20s-44.5 25 -72.5 45l-162 -160l-106 103l164 162
c-26.667 39.333 -44.334 72.5 -53.001 99.5s-13 64.167 -13 111.5s4.16699 84 12.5 110s26.166 59.333 53.499 100l-164 162l106 103zM364.999 704.998c0 -58.667 18.6689 -109.334 56.002 -152.001s82.666 -64 135.999 -64c58 0 108.333 21.333 151 64
s64 93.334 64 152.001c0 34 -9.66699 66.167 -29 96.5s-45.5 54.5 -78.5 72.5s-67.5 27 -103.5 27s-68.833 -9 -98.5 -27s-53.334 -42 -71.001 -72s-26.5 -62.333 -26.5 -97z" />
    <glyph glyph-name="degree" unicode="&#xa1;" horiz-adv-x="1356" 
d="M1315 1466l-795 -1466h-237l286 494l-512 972h248l381 -772l387 772h242zM690 1538c-70.667 0 -132.333 20.167 -185 60.5s-79 92.5 -79 156.5h180l-4 -6c0 -16.667 10.5 -31 31.5 -43s41.167 -18 60.5 -18c20 0 38.667 5.83301 56 17.5s26 26.167 26 43.5v6h180
c0 -42.667 -11.833 -80.5 -35.5 -113.5s-55.5 -58.5 -95.5 -76.5s-85 -27 -135 -27z" />
    <glyph glyph-name="degree" unicode="&#x40e;" horiz-adv-x="1356" 
d="M1315 1466l-795 -1466h-237l286 494l-512 972h248l381 -772l387 772h242zM690 1538c-70.667 0 -132.333 20.167 -185 60.5s-79 92.5 -79 156.5h180l-4 -6c0 -16.667 10.5 -31 31.5 -43s41.167 -18 60.5 -18c20 0 38.667 5.83301 56 17.5s26 26.167 26 43.5v6h180
c0 -42.667 -11.833 -80.5 -35.5 -113.5s-55.5 -58.5 -95.5 -76.5s-85 -27 -135 -27z" />
    <glyph glyph-name="cent" unicode="&#xa2;" horiz-adv-x="1014" 
d="M223 1073l285.001 -850l283 850h200l-430 -1194c-30 -75.333 -54.333 -131.5 -73 -168.5s-46.334 -71.333 -83.001 -103s-82.334 -47.5 -137.001 -47.5c-47.333 0 -97.666 6 -150.999 18v174c45.333 -14.667 81.333 -22 108 -22c30 0 54.333 5.83301 73 17.5
s36.667 35.5 54 71.5s37.333 90.333 60 163l-398 1091h209zM508.001 1225c-84 0 -149.333 24.499 -196 73.499s-70 103.5 -70 163.5h166c0 -20.667 8 -42.167 24 -64.5s41.333 -33.5 76 -33.5c36 0 61.333 10.833 76 32.5s22 43.5 22 65.5h162
c0 -61.333 -22.333 -116.166 -67 -164.499s-109 -72.5 -193 -72.5z" />
    <glyph glyph-name="cent" unicode="&#x45e;" horiz-adv-x="1014" 
d="M223 1073l285.001 -850l283 850h200l-430 -1194c-30 -75.333 -54.333 -131.5 -73 -168.5s-46.334 -71.333 -83.001 -103s-82.334 -47.5 -137.001 -47.5c-47.333 0 -97.666 6 -150.999 18v174c45.333 -14.667 81.333 -22 108 -22c30 0 54.333 5.83301 73 17.5
s36.667 35.5 54 71.5s37.333 90.333 60 163l-398 1091h209zM508.001 1225c-84 0 -149.333 24.499 -196 73.499s-70 103.5 -70 163.5h166c0 -20.667 8 -42.167 24 -64.5s41.333 -33.5 76 -33.5c36 0 61.333 10.833 76 32.5s22 43.5 22 65.5h162
c0 -61.333 -22.333 -116.166 -67 -164.499s-109 -72.5 -193 -72.5z" />
    <glyph glyph-name="sterling" unicode="&#xa3;" horiz-adv-x="1059" 
d="M27 489l202 -0.000976562c0 -65.333 4.16699 -121 12.5 -167s27.5 -84.833 57.5 -116.5s75.667 -47.5 137 -47.5c76 0 130.167 23.667 162.5 71s48.5 125.333 48.5 234v1003h205v-1003c0 -87.333 -5.5 -155.166 -16.5 -203.499s-30.833 -91.166 -59.5 -128.499
c-35.333 -48 -83.333 -86.333 -144 -115s-126 -43 -196 -43c-71.333 0 -136.333 13.167 -195 39.5s-105 63.833 -139 112.5c-20 27.333 -35.167 55.166 -45.5 83.499s-17.833 62.833 -22.5 103.5s-7 93.667 -7 159v18z" />
    <glyph glyph-name="sterling" unicode="&#x408;" horiz-adv-x="1059" 
d="M27 489l202 -0.000976562c0 -65.333 4.16699 -121 12.5 -167s27.5 -84.833 57.5 -116.5s75.667 -47.5 137 -47.5c76 0 130.167 23.667 162.5 71s48.5 125.333 48.5 234v1003h205v-1003c0 -87.333 -5.5 -155.166 -16.5 -203.499s-30.833 -91.166 -59.5 -128.499
c-35.333 -48 -83.333 -86.333 -144 -115s-126 -43 -196 -43c-71.333 0 -136.333 13.167 -195 39.5s-105 63.833 -139 112.5c-20 27.333 -35.167 55.166 -45.5 83.499s-17.833 62.833 -22.5 103.5s-7 93.667 -7 159v18z" />
    <glyph glyph-name="section" unicode="&#xa4;" horiz-adv-x="1171" 
d="M102 483l0.000976562 150c64 56 144 84 240 84c63.333 0 112.5 -7 147.5 -21s72.667 -35.167 113 -63.5s76.166 -49 107.499 -62s74.666 -19.5 129.999 -19.5c63.333 0 114.333 8.16699 153 24.5s65.334 35.5 80.001 57.5v-150c-14 -24 -39.667 -44 -77 -60
s-88 -24 -152 -24c-56.667 0 -101 6.66699 -133 20s-67.167 33.5 -105.5 60.5s-75.833 47.333 -112.5 61s-85.667 20.5 -147 20.5c-100.667 0 -182 -26 -244 -78zM102.001 772l0.00195312 151.999c29.333 26.667 62.833 47 100.5 61s84.167 21 139.5 21
c63.333 0 112.5 -7 147.5 -21s72.667 -35.167 113 -63.5s76.166 -49 107.499 -62s74.666 -19.5 129.999 -19.5c63.333 0 114.5 8.5 153.5 25.5s65.5 36.5 79.5 58.5v-152c-14.667 -24 -40.667 -44.333 -78 -61s-87.666 -25 -150.999 -25
c-55.333 0 -98.666 6.5 -129.999 19.5s-67.333 33.833 -108 62.5s-78.5 49.834 -113.5 63.501s-83.833 20.5 -146.5 20.5c-52.667 0 -98.834 -7 -138.501 -21s-74.834 -33.667 -105.501 -59z" />
    <glyph glyph-name="germandbls" unicode="&#xa7;" 
d="M287 954c-31.333 34.667 -53.5 67.3311 -66.5 97.998s-19.5 67 -19.5 109c0 64 15.5 121.667 46.5 173s74.167 91 129.5 119s119.333 42 192 42c120.667 0 211.167 -33.667 271.5 -101s91.5 -162.666 93.5 -285.999h-184c-2 75.333 -18.833 130.666 -50.5 165.999
s-79.167 53 -142.5 53c-52 0 -93.667 -13.833 -125 -41.5s-47 -64.167 -47 -109.5c0 -24 5.66699 -46.167 17 -66.5s30.5 -41.333 57.5 -63s63.5 -46.167 109.5 -73.5l181 -107c86.667 -48 155.334 -101.5 206.001 -160.5s76 -131.167 76 -216.5
c0 -69.333 -15 -128.5 -45 -177.5s-80.333 -94.833 -151 -137.5c36 -40 60.333 -75.333 73 -106s19 -69.667 19 -117c0 -98 -34.833 -178.5 -104.5 -241.5s-160.5 -94.5 -272.5 -94.5c-68 0 -130.167 13 -186.5 39s-101.5 62 -135.5 108
c-22 31.333 -37.5 65.166 -46.5 101.499s-14.5 84.5 -16.5 144.5h188c4 -81.333 22.167 -139.5 54.5 -174.5s83.166 -52.5 152.499 -52.5c54 0 97.167 13.833 129.5 41.5s48.5 64.167 48.5 109.5c0 27.333 -6.83301 52.833 -20.5 76.5s-30.834 44 -51.501 61
s-43.667 33.5 -69 49.5l-68 43l-176 106c-81.333 50.667 -147 106.334 -197 167.001s-75 131.334 -75 212.001c0 46 6.83301 86.333 20.5 121s35.334 66.334 65.001 95.001s69.5 59 119.5 91zM391 859.997c-43.333 -30 -74.667 -60.332 -94 -90.999
s-29 -64.334 -29 -101.001c0 -34 12 -69.167 36 -105.5s57 -68.166 99 -95.499l320 -207c45.333 32 77.5 62.833 96.5 92.5s28.5 63.167 28.5 100.5c0 46 -15.333 88.167 -46 126.5s-81 80.166 -151 125.499z" />
    <glyph glyph-name="registered" unicode="&#xa8;" horiz-adv-x="1401" 
d="M176 1466h1053v-184h-848v-430h784v-184h-784v-484h858v-184h-1063v1466zM418 1888h184v-237h-184v237zM950 1888v-237h-184v237h184z" />
    <glyph glyph-name="registered" unicode="&#x401;" horiz-adv-x="1401" 
d="M176 1466h1053v-184h-848v-430h784v-184h-784v-484h858v-184h-1063v1466zM418 1888h184v-237h-184v237zM950 1888v-237h-184v237h184z" />
    <glyph glyph-name="copyright" unicode="&#xa9;" horiz-adv-x="1636" 
d="M1503 735c0 -104.667 -19.499 -203 -58.499 -295s-94 -173.5 -165 -244.5s-152.5 -125.833 -244.5 -164.5s-190 -58 -294 -58c-138.667 0 -266 34 -382 102s-207.833 160.5 -275.5 277.5s-101.5 244.5 -101.5 382.5c0 136.667 34 263.5 102 380.5
s160.167 209.5 276.5 277.5s243.166 102 380.499 102c136 0 262.667 -34 380 -102s210.333 -160.667 279 -278s103 -244 103 -380zM1391 735c0 118 -29.167 226.999 -87.5 326.999s-137.333 179 -237 237s-208.167 87 -325.5 87s-225.666 -29 -324.999 -87
s-177.833 -137.167 -235.5 -237.5s-86.5 -209.166 -86.5 -326.499c0 -118 28.833 -227.333 86.5 -328s136.167 -180 235.5 -238s207.666 -87 324.999 -87s225.833 29.167 325.5 87.5s178.667 137.5 237 237.5s87.5 209.333 87.5 328zM1112 896.999l-128.998 -0.00292969
c-28 116 -105.667 174 -233 174c-54 0 -101.333 -13.167 -142 -39.5s-71.667 -64.833 -93 -115.5s-32 -111 -32 -181c0 -67.333 10.167 -125.666 30.5 -174.999s49.666 -87 87.999 -113s84.166 -39 137.499 -39c66.667 0 121.167 19.333 163.5 58
s67.833 94.334 76.5 167.001h133c-9.33301 -71.333 -29.833 -133 -61.5 -185s-73.5 -91.833 -125.5 -119.5s-112 -41.5 -180 -41.5c-60 0 -114.833 10.333 -164.5 31s-92 50.667 -127 90s-61.667 86.333 -80 141s-27.5 115.334 -27.5 182.001
c0 93.333 16.167 174.5 48.5 243.5s78.5 122.167 138.5 159.5s130.667 56 212 56c72 0 134.333 -11.5 187 -34.5s94.667 -56.833 126 -101.5s49.333 -97 54 -157z" />
    <glyph glyph-name="trademark" unicode="&#xaa;" horiz-adv-x="1520" 
d="M301 678c0 -76.667 10.666 -147.332 31.999 -211.999s52.333 -120 93 -166s88.5 -81.167 143.5 -105.5s115.167 -36.5 180.5 -36.5c76.667 0 144.334 15 203.001 45s106.667 73.667 144 131s62 127 74 209h205c-14 -108.667 -48.167 -206.5 -102.5 -293.5
s-125.833 -154.833 -214.5 -203.5s-189 -73 -301 -73c-102 0 -194.833 16.833 -278.5 50.5s-155.334 83.5 -215.001 149.5s-105 144.667 -136 236s-46.5 194.666 -46.5 309.999c0 107.333 14.333 207.5 43 300.5s71.834 175.333 129.501 247s129.5 127.667 215.5 168
s184.667 60.5 296 60.5c113.333 0 214.5 -19.833 303.5 -59.5s159.833 -96 212.5 -169s84 -158.5 94 -256.5h-205c-25.333 99.333 -72.5 174.333 -141.5 225s-156.167 76 -261.5 76c-85.333 0 -162.833 -18.167 -232.5 -54.5s-124.167 -88.5 -163.5 -156.5
s-59 -147.333 -59 -238h543v-184h-555z" />
    <glyph glyph-name="trademark" unicode="&#x404;" horiz-adv-x="1520" 
d="M301 678c0 -76.667 10.666 -147.332 31.999 -211.999s52.333 -120 93 -166s88.5 -81.167 143.5 -105.5s115.167 -36.5 180.5 -36.5c76.667 0 144.334 15 203.001 45s106.667 73.667 144 131s62 127 74 209h205c-14 -108.667 -48.167 -206.5 -102.5 -293.5
s-125.833 -154.833 -214.5 -203.5s-189 -73 -301 -73c-102 0 -194.833 16.833 -278.5 50.5s-155.334 83.5 -215.001 149.5s-105 144.667 -136 236s-46.5 194.666 -46.5 309.999c0 107.333 14.333 207.5 43 300.5s71.834 175.333 129.501 247s129.5 127.667 215.5 168
s184.667 60.5 296 60.5c113.333 0 214.5 -19.833 303.5 -59.5s159.833 -96 212.5 -169s84 -158.5 94 -256.5h-205c-25.333 99.333 -72.5 174.333 -141.5 225s-156.167 76 -261.5 76c-85.333 0 -162.833 -18.167 -232.5 -54.5s-124.167 -88.5 -163.5 -156.5
s-59 -147.333 -59 -238h543v-184h-555z" />
    <glyph glyph-name="acute" unicode="&#xab;" horiz-adv-x="1130" 
d="M911 131l-323 328v186l323 320v-226l-184 -186l184 -180v-242zM520 131l-327 328v186l327 320v-226l-188 -186l188 -180v-242z" />
    <glyph glyph-name="dieresis" unicode="&#xac;" horiz-adv-x="1266" 
d="M102 467v151h975v-618h-157v467h-818z" />
    <glyph glyph-name="notequal" unicode="&#xad;" horiz-adv-x="1288" 
d="M102 772v152h418l131 542h178l-129 -542h373v-152h-409l-35 -131h444v-158h-481l-178 -778h-181l179 778h-310v158h351l30 131h-381z" />
    <glyph glyph-name="AE" unicode="&#xae;" horiz-adv-x="1636" 
d="M1503 735c0 -104.667 -19.499 -203 -58.499 -295s-94 -173.5 -165 -244.5s-152.5 -125.833 -244.5 -164.5s-190 -58 -294 -58c-138.667 0 -266 34 -382 102s-207.833 160.5 -275.5 277.5s-101.5 244.5 -101.5 382.5c0 136.667 34 263.5 102 380.5
s160.167 209.5 276.5 277.5s243.166 102 380.499 102c136 0 262.667 -34 380 -102s210.333 -160.667 279 -278s103 -244 103 -380zM1391 735c0 118 -29.167 226.999 -87.5 326.999s-137.333 179 -237 237s-208.167 87 -325.5 87s-225.666 -29 -324.999 -87
s-177.833 -137.167 -235.5 -237.5s-86.5 -209.166 -86.5 -326.499c0 -118 28.833 -227.333 86.5 -328s136.167 -180 235.5 -238s207.666 -87 324.999 -87s225.833 29.167 325.5 87.5s178.667 137.5 237 237.5s87.5 209.333 87.5 328zM426.001 304.999l0.000976562 865.997
h362c99.333 0 176.166 -16.167 230.499 -48.5s81.5 -96.5 81.5 -192.5c0 -47.333 -7.66699 -84.666 -23 -111.999s-44 -53.666 -86 -78.999c40 -20 66.167 -45 78.5 -75s19.333 -73.667 21 -131s4.5 -101 8.5 -131s17.333 -62.333 40 -97h-160
c-10 39.333 -15.333 87.833 -16 145.5s-3 99.834 -7 126.501s-18.833 48.5 -44.5 65.5s-69.5 25.5 -131.5 25.5h-223v-363h-131zM557.002 1051v-263.001h219c48 0 86 4.33301 114 13s48.167 22.334 60.5 41.001s18.5 44.667 18.5 78c0 50.667 -13.5 85.167 -40.5 103.5
s-75.167 27.5 -144.5 27.5h-227z" />
    <glyph glyph-name="Oslash" unicode="&#xaf;" horiz-adv-x="735" 
d="M418 1778h223v-226h-223v226zM63 1778h224v-226h-224v226zM246 1466h203v-1466h-203v1466z" />
    <glyph glyph-name="Oslash" unicode="&#x407;" horiz-adv-x="735" 
d="M418 1778h223v-226h-223v226zM63 1778h224v-226h-224v226zM246 1466h203v-1466h-203v1466z" />
    <glyph glyph-name="infinity" unicode="&#xb0;" horiz-adv-x="969" 
d="M741 1161c0 -61.333 -14.665 -117.5 -43.998 -168.5s-69.5 -91 -120.5 -120s-107.167 -43.5 -168.5 -43.5c-46 0 -89.167 8.5 -129.5 25.5s-76 40.833 -107 71.5s-55.333 66.5 -73 107.5s-26.5 83.5 -26.5 127.5c0 60 15.167 115.667 45.5 167s71.666 92 123.999 122
s109.166 45 170.499 45c60.667 0 116 -14.833 166 -44.5s89.667 -70.167 119 -121.5s44 -107.333 44 -168zM618.002 1161c0 61.333 -19.834 112.833 -59.501 154.5s-88.5 62.5 -146.5 62.5c-38 0 -73.667 -9.83301 -107 -29.5s-59.666 -46 -78.999 -79
s-29 -69.167 -29 -108.5c0 -59.333 21.333 -110 64 -152s93 -63 151 -63s106.833 20.667 146.5 62s59.5 92.333 59.5 153z" />
    <glyph glyph-name="plusminus" unicode="&#xb1;" 
d="M72 625v159h411v392h150v-392h411v-159h-411v-396h-150v396h-411zM72 0v158h972v-158h-972z" />
    <glyph glyph-name="lessequal" unicode="&#xb2;" horiz-adv-x="600" 
d="M176 1466h205v-1466h-205v1466zM170 1778h219v-226h-219v226z" />
    <glyph glyph-name="lessequal" unicode="&#x406;" horiz-adv-x="600" 
d="M176 1466h205v-1466h-205v1466zM170 1778h219v-226h-219v226z" />
    <glyph glyph-name="greaterequal" unicode="&#xb3;" horiz-adv-x="485" 
d="M131 1073h186v-1073h-186v1073z" />
    <glyph glyph-name="greaterequal" unicode="&#x456;" horiz-adv-x="485" 
d="M131 1073h186v-1073h-186v1073z" />
    <glyph glyph-name="nonbreakingspace" unicode="&#xb4;" horiz-adv-x="1495" 
d="M176 1466h205v-716l690 716h270l-591 -600l587 -866h-241l-486 735l-229 -227v-508h-205v1466z" />
    <glyph glyph-name="nonbreakingspace" unicode="&#x491;" horiz-adv-x="1495" 
d="M176 1466h205v-716l690 716h270l-591 -600l587 -866h-241l-486 735l-229 -227v-508h-205v1466z" />
    <glyph glyph-name="mu" unicode="&#xb5;" horiz-adv-x="1171" 
d="M131 -377v1450h186v-598c0 -61.333 3.5 -108.666 10.5 -141.999s19.5 -65 37.5 -95c24 -34 53.833 -61.333 89.5 -82s72.5 -31 110.5 -31c92 0 156.333 35.5 193 106.5s55 155.5 55 253.5v588h186v-1069h-186v113c-30.667 -48.667 -65.667 -84.167 -105 -106.5
s-87 -33.5 -143 -33.5c-33.333 0 -65.333 4.66699 -96 14s-58.667 24.333 -84 45s-48 46.334 -68 77.001v-490h-186z" />
    <glyph glyph-name="partialdiff" unicode="&#xb6;" 
d="M489 -291v977.001c-123.333 0 -221.333 32.667 -294 98s-109 159.666 -109 282.999c0 80 20.5 152.167 61.5 216.5s96.167 111.5 165.5 141.5c60 27.333 145.333 41 256 41h463v-135h-53v-1622h-176v1622h-131v-1622h-183z" />
    <glyph glyph-name="product" unicode="&#xb8;" 
d="M1044 479l-780 0.000976562c15.333 -226.667 117 -340 305 -340c74.667 0 133.834 17.667 177.501 53s73.5 89.333 89.5 162h192c-24 -118.667 -77.5 -211.834 -160.5 -279.501s-185.167 -101.5 -306.5 -101.5c-100 0 -186.833 22.5 -260.5 67.5
s-130.167 109.833 -169.5 194.5s-59 184.667 -59 300c0 112 20.5 210.833 61.5 296.5s99.333 151.167 175 196.5s163.834 68 264.501 68c81.333 0 151.666 -13.5 210.999 -40.5s108.166 -64.667 146.499 -113s66.833 -104.5 85.5 -168.5s28 -135 28 -213v-82zM313 1507h185
v-237h-185v237zM840 1507v-237h-185v237h185zM856 645.001c-6 90 -33.999 160 -83.999 210s-117.667 75 -203 75c-168.667 0 -268.334 -95 -299.001 -285h586z" />
    <glyph glyph-name="product" unicode="&#x451;" 
d="M1044 479l-780 0.000976562c15.333 -226.667 117 -340 305 -340c74.667 0 133.834 17.667 177.501 53s73.5 89.333 89.5 162h192c-24 -118.667 -77.5 -211.834 -160.5 -279.501s-185.167 -101.5 -306.5 -101.5c-100 0 -186.833 22.5 -260.5 67.5
s-130.167 109.833 -169.5 194.5s-59 184.667 -59 300c0 112 20.5 210.833 61.5 296.5s99.333 151.167 175 196.5s163.834 68 264.501 68c81.333 0 151.666 -13.5 210.999 -40.5s108.166 -64.667 146.499 -113s66.833 -104.5 85.5 -168.5s28 -135 28 -213v-82zM313 1507h185
v-237h-185v237zM840 1507v-237h-185v237h185zM856 645.001c-6 90 -33.999 160 -83.999 210s-117.667 75 -203 75c-168.667 0 -268.334 -95 -299.001 -285h586z" />
    <glyph glyph-name="pi" unicode="&#xb9;" horiz-adv-x="2163" 
d="M176 1466h232l665 -1153v1153h205v-1466h-229l-668 1161v-1161h-205v1466zM1417 1149c0 53.333 6.83398 100.831 20.501 142.498s34.334 78.167 62.001 109.5s60 54.833 97 70.5s78.833 23.5 125.5 23.5c59.333 0 111.166 -14 155.499 -42s78.333 -67.5 102 -118.5
s35.5 -110.167 35.5 -177.5s-12.333 -126.666 -37 -177.999s-59.667 -91.166 -105 -119.499s-98.333 -42.5 -159 -42.5s-113.334 13.5 -158.001 40.5s-79 65.167 -103 114.5s-36 108.333 -36 177zM1378 595.998v135h680v-135h-680zM1556 1161
c0 -68 13.832 -120.833 41.499 -158.5s66.5 -56.5 116.5 -56.5c110.667 0 166 71.667 166 215c0 67.333 -13.667 119.333 -41 156s-67.666 55 -120.999 55c-50 0 -89.5 -18.833 -118.5 -56.5s-43.5 -89.167 -43.5 -154.5z" />
    <glyph glyph-name="pi" unicode="&#x2116;" horiz-adv-x="2163" 
d="M176 1466h232l665 -1153v1153h205v-1466h-229l-668 1161v-1161h-205v1466zM1417 1149c0 53.333 6.83398 100.831 20.501 142.498s34.334 78.167 62.001 109.5s60 54.833 97 70.5s78.833 23.5 125.5 23.5c59.333 0 111.166 -14 155.499 -42s78.333 -67.5 102 -118.5
s35.5 -110.167 35.5 -177.5s-12.333 -126.666 -37 -177.999s-59.667 -91.166 -105 -119.499s-98.333 -42.5 -159 -42.5s-113.334 13.5 -158.001 40.5s-79 65.167 -103 114.5s-36 108.333 -36 177zM1378 595.998v135h680v-135h-680zM1556 1161
c0 -68 13.832 -120.833 41.499 -158.5s66.5 -56.5 116.5 -56.5c110.667 0 166 71.667 166 215c0 67.333 -13.667 119.333 -41 156s-67.666 55 -120.999 55c-50 0 -89.5 -18.833 -118.5 -56.5s-43.5 -89.167 -43.5 -154.5z" />
    <glyph glyph-name="integral" unicode="&#xba;" 
d="M283 479c6.66699 -110.667 35.167 -195.665 85.5 -254.998s118.5 -89 204.5 -89c65.333 0 119.333 21.333 162 64s74 104.667 94 186h189c-6 -56.667 -15.167 -103.167 -27.5 -139.5s-31.166 -71.833 -56.499 -106.5c-41.333 -52.667 -92.833 -94.834 -154.5 -126.501
s-128.167 -47.5 -199.5 -47.5c-159.333 0 -282.5 48.5 -369.5 145.5s-130.5 233.5 -130.5 409.5c0 184.667 41.167 328.167 123.5 430.5s200.166 153.5 353.499 153.5c82 0 156.333 -16.333 223 -49s120.5 -79.834 161.5 -141.501s66.5 -132.834 76.5 -213.501h-189
c-10.667 47.333 -29.334 88.5 -56.001 123.5s-58.5 61.5 -95.5 79.5s-77.167 27 -120.5 27c-76 0 -136.667 -24.667 -182 -74s-74.666 -119.666 -87.999 -210.999h338v-166h-342z" />
    <glyph glyph-name="integral" unicode="&#x454;" 
d="M283 479c6.66699 -110.667 35.167 -195.665 85.5 -254.998s118.5 -89 204.5 -89c65.333 0 119.333 21.333 162 64s74 104.667 94 186h189c-6 -56.667 -15.167 -103.167 -27.5 -139.5s-31.166 -71.833 -56.499 -106.5c-41.333 -52.667 -92.833 -94.834 -154.5 -126.501
s-128.167 -47.5 -199.5 -47.5c-159.333 0 -282.5 48.5 -369.5 145.5s-130.5 233.5 -130.5 409.5c0 184.667 41.167 328.167 123.5 430.5s200.166 153.5 353.499 153.5c82 0 156.333 -16.333 223 -49s120.5 -79.834 161.5 -141.501s66.5 -132.834 76.5 -213.501h-189
c-10.667 47.333 -29.334 88.5 -56.001 123.5s-58.5 61.5 -95.5 79.5s-77.167 27 -120.5 27c-76 0 -136.667 -24.667 -182 -74s-74.666 -119.666 -87.999 -210.999h338v-166h-342z" />
    <glyph glyph-name="ordfeminine" unicode="&#xbb;" horiz-adv-x="1059" 
d="M135 131v242l184 180l-184 186v226l328 -320v-186zM530 131v242l187 180l-187 186v226l326 -320v-186z" />
    <glyph glyph-name="ordmasculine" unicode="&#xbc;" horiz-adv-x="463" 
d="M-41 -260c24.667 -6.66699 50 -9.99707 76 -9.99707s45.833 4.66699 59.5 14s23.167 26.166 28.5 50.499s8 60.166 8 107.499v1171h186v-1198c0 -210 -83 -315 -249 -315c-8.66699 0 -22.5 0.666992 -41.5 2s-41.5 2.66602 -67.5 3.99902v174zM131 1466h186v-211h-186
v211z" />
    <glyph glyph-name="ordmasculine" unicode="&#x458;" horiz-adv-x="463" 
d="M-41 -260c24.667 -6.66699 50 -9.99707 76 -9.99707s45.833 4.66699 59.5 14s23.167 26.166 28.5 50.499s8 60.166 8 107.499v1171h186v-1198c0 -210 -83 -315 -249 -315c-8.66699 0 -22.5 0.666992 -41.5 2s-41.5 2.66602 -67.5 3.99902v174zM131 1466h186v-211h-186
v211z" />
    <glyph glyph-name="Omega" unicode="&#xbd;" horiz-adv-x="1382" 
d="M86 489l214.996 -0.00195312c0.666992 -28 1.83398 -54.167 3.50098 -78.5s6.16699 -48.333 13.5 -72s17.666 -44 30.999 -61s33 -34.5 59 -52.5c70.667 -44.667 163.334 -67 278.001 -67c108.667 0 194.834 20.833 258.501 62.5s95.5 97.834 95.5 168.501
c0 41.333 -13.833 75.666 -41.5 102.999s-73.167 51.666 -136.5 72.999l-444 166c-183.333 67.333 -275 180.666 -275 339.999c0 92.667 25 171 75 235s115 111.5 195 142.5s165 46.5 255 46.5c109.333 0 203.5 -17.167 282.5 -51.5s140.5 -83.5 184.5 -147.5
c26 -36 43 -74.833 51 -116.5s13.333 -94.167 16 -157.5h-215c-2 52.667 -5 89 -9 109s-12 39.667 -24 59c-14.667 22.667 -37.167 43.5 -67.5 62.5s-64.166 33.5 -101.499 43.5s-77.666 15 -120.999 15c-60 0 -113.5 -9.66699 -160.5 -29s-83.667 -45.5 -110 -78.5
s-39.5 -70.833 -39.5 -113.5c0 -41.333 10.667 -74.166 32 -98.499s62 -48.166 122 -71.499l469 -175c93.333 -33.333 163 -77.5 209 -132.5s69 -121.833 69 -200.5c0 -69.333 -17.333 -134.666 -52 -195.999s-82.667 -112.333 -144 -153
c-47.333 -31.333 -101.666 -54.166 -162.999 -68.499s-134 -21.5 -218 -21.5c-126.667 0 -234.334 17.667 -323.001 53s-155.667 87.833 -201 157.5s-68 155.167 -68 256.5v49z" />
    <glyph glyph-name="Omega" unicode="&#x405;" horiz-adv-x="1382" 
d="M86 489l214.996 -0.00195312c0.666992 -28 1.83398 -54.167 3.50098 -78.5s6.16699 -48.333 13.5 -72s17.666 -44 30.999 -61s33 -34.5 59 -52.5c70.667 -44.667 163.334 -67 278.001 -67c108.667 0 194.834 20.833 258.501 62.5s95.5 97.834 95.5 168.501
c0 41.333 -13.833 75.666 -41.5 102.999s-73.167 51.666 -136.5 72.999l-444 166c-183.333 67.333 -275 180.666 -275 339.999c0 92.667 25 171 75 235s115 111.5 195 142.5s165 46.5 255 46.5c109.333 0 203.5 -17.167 282.5 -51.5s140.5 -83.5 184.5 -147.5
c26 -36 43 -74.833 51 -116.5s13.333 -94.167 16 -157.5h-215c-2 52.667 -5 89 -9 109s-12 39.667 -24 59c-14.667 22.667 -37.167 43.5 -67.5 62.5s-64.166 33.5 -101.499 43.5s-77.666 15 -120.999 15c-60 0 -113.5 -9.66699 -160.5 -29s-83.667 -45.5 -110 -78.5
s-39.5 -70.833 -39.5 -113.5c0 -41.333 10.667 -74.166 32 -98.499s62 -48.166 122 -71.499l469 -175c93.333 -33.333 163 -77.5 209 -132.5s69 -121.833 69 -200.5c0 -69.333 -17.333 -134.666 -52 -195.999s-82.667 -112.333 -144 -153
c-47.333 -31.333 -101.666 -54.166 -162.999 -68.499s-134 -21.5 -218 -21.5c-126.667 0 -234.334 17.667 -323.001 53s-155.667 87.833 -201 157.5s-68 155.167 -68 256.5v49z" />
    <glyph glyph-name="ae" unicode="&#xbe;" horiz-adv-x="1014" 
d="M72 350l192.001 0.000976562c0.666992 -48.667 9.66699 -88.667 27 -120s43.666 -54.333 78.999 -69s80.666 -22 135.999 -22c68.667 0 124 14.167 166 42.5s63 66.166 63 113.499c0 24 -6.83301 43 -20.5 57s-40.834 29.667 -81.501 47l-336 144
c-48 21.333 -85.167 43.333 -111.5 66s-45.666 48.5 -57.999 77.5s-18.5 62.833 -18.5 101.5c0 60 16.5 113.833 49.5 161.5s79.833 84.667 140.5 111s129.667 39.5 207 39.5c115.333 0 210 -29 284 -87s111 -143 111 -255h-184c-2 57.333 -21.167 100.333 -57.5 129
s-90.166 43 -161.499 43c-37.333 0 -71.666 -5.33301 -102.999 -16s-55.5 -25.5 -72.5 -44.5s-25.5 -41.167 -25.5 -66.5c0 -38 30.667 -69.333 92 -94l316 -125c56.667 -24.667 101.667 -49.167 135 -73.5s56.666 -51.5 69.999 -81.5s20 -67.333 20 -112
c0 -66.667 -17.667 -126.167 -53 -178.5s-85.333 -93 -150 -122s-139.667 -43.5 -225 -43.5c-91.333 0 -169.333 14.667 -234 44s-113.5 72.333 -146.5 129s-49.5 124.667 -49.5 204z" />
    <glyph glyph-name="ae" unicode="&#x455;" horiz-adv-x="1014" 
d="M72 350l192.001 0.000976562c0.666992 -48.667 9.66699 -88.667 27 -120s43.666 -54.333 78.999 -69s80.666 -22 135.999 -22c68.667 0 124 14.167 166 42.5s63 66.166 63 113.499c0 24 -6.83301 43 -20.5 57s-40.834 29.667 -81.501 47l-336 144
c-48 21.333 -85.167 43.333 -111.5 66s-45.666 48.5 -57.999 77.5s-18.5 62.833 -18.5 101.5c0 60 16.5 113.833 49.5 161.5s79.833 84.667 140.5 111s129.667 39.5 207 39.5c115.333 0 210 -29 284 -87s111 -143 111 -255h-184c-2 57.333 -21.167 100.333 -57.5 129
s-90.166 43 -161.499 43c-37.333 0 -71.666 -5.33301 -102.999 -16s-55.5 -25.5 -72.5 -44.5s-25.5 -41.167 -25.5 -66.5c0 -38 30.667 -69.333 92 -94l316 -125c56.667 -24.667 101.667 -49.167 135 -73.5s56.666 -51.5 69.999 -81.5s20 -67.333 20 -112
c0 -66.667 -17.667 -126.167 -53 -178.5s-85.333 -93 -150 -122s-139.667 -43.5 -225 -43.5c-91.333 0 -169.333 14.667 -234 44s-113.5 72.333 -146.5 129s-49.5 124.667 -49.5 204z" />
    <glyph glyph-name="oslash" unicode="&#xbf;" horiz-adv-x="668" 
d="M385 1466h184v-211h-184v211zM68 1466h184v-211h-184v211zM225 1073h187v-1073h-187v1073z" />
    <glyph glyph-name="oslash" unicode="&#x457;" horiz-adv-x="668" 
d="M385 1466h184v-211h-184v211zM68 1466h184v-211h-184v211zM225 1073h187v-1073h-187v1073z" />
    <glyph glyph-name="questiondown" unicode="&#xc0;" horiz-adv-x="1401" 
d="M584 1466h215l524 -1466h-223l-146 436h-563l-153 -436h-220zM682 1243l-223 -641h438z" />
    <glyph glyph-name="questiondown" unicode="&#x410;" horiz-adv-x="1401" 
d="M584 1466h215l524 -1466h-223l-146 436h-563l-153 -436h-220zM682 1243l-223 -641h438z" />
    <glyph glyph-name="exclamdown" unicode="&#xc1;" horiz-adv-x="1382" 
d="M1073 1466l0.000976562 -184.001h-692v-426h346c87.333 0 165.833 -11 235.5 -33s127 -52.333 172 -91s78.833 -84.167 101.5 -136.5s34 -110.166 34 -173.499c0 -49.333 -6.33301 -94.666 -19 -135.999s-31.334 -79.833 -56.001 -115.5s-53.667 -65.834 -87 -90.501
c-42 -31.333 -90.167 -52.5 -144.5 -63.5s-131.833 -16.5 -232.5 -16.5h-555v1466h897zM381.001 671.999l0.00195312 -487.999h332c103.333 0 186.166 16.833 248.499 50.5s93.5 97.5 93.5 191.5c0 93.333 -29.333 157.666 -88 192.999s-137.334 53 -236.001 53h-350z" />
    <glyph glyph-name="exclamdown" unicode="&#x411;" horiz-adv-x="1382" 
d="M1073 1466l0.000976562 -184.001h-692v-426h346c87.333 0 165.833 -11 235.5 -33s127 -52.333 172 -91s78.833 -84.167 101.5 -136.5s34 -110.166 34 -173.499c0 -49.333 -6.33301 -94.666 -19 -135.999s-31.334 -79.833 -56.001 -115.5s-53.667 -65.834 -87 -90.501
c-42 -31.333 -90.167 -52.5 -144.5 -63.5s-131.833 -16.5 -232.5 -16.5h-555v1466h897zM381.001 671.999l0.00195312 -487.999h332c103.333 0 186.166 16.833 248.499 50.5s93.5 97.5 93.5 191.5c0 93.333 -29.333 157.666 -88 192.999s-137.334 53 -236.001 53h-350z" />
    <glyph glyph-name="logicalnot" unicode="&#xc2;" horiz-adv-x="1382" 
d="M176 1466l541.003 0.000976562c93.333 0 163.666 -5.66699 210.999 -17s91 -32.333 131 -63c47.333 -35.333 83.666 -78.5 108.999 -129.5s38 -106.5 38 -166.5c0 -142.667 -64 -242.334 -192 -299.001c80 -25.333 142.667 -71 188 -137s68 -143.333 68 -232
c0 -49.333 -6.33301 -94.666 -19 -135.999s-31.334 -79.833 -56.001 -115.5s-53.667 -65.834 -87 -90.501c-42 -31.333 -90.167 -52.5 -144.5 -63.5s-131.833 -16.5 -232.5 -16.5h-555v1466zM381.003 1282v-426h346c91.333 0 158.166 16.5 200.499 49.5
s63.5 84.167 63.5 153.5c0 79.333 -21.667 136.333 -65 171s-115.666 52 -216.999 52h-328zM381.003 672.001l0.00195312 -487.999h332c103.333 0 186.166 16.833 248.499 50.5s93.5 97.5 93.5 191.5c0 93.333 -29.333 157.666 -88 192.999s-137.334 53 -236.001 53h-350z
" />
    <glyph glyph-name="logicalnot" unicode="&#x412;" horiz-adv-x="1382" 
d="M176 1466l541.003 0.000976562c93.333 0 163.666 -5.66699 210.999 -17s91 -32.333 131 -63c47.333 -35.333 83.666 -78.5 108.999 -129.5s38 -106.5 38 -166.5c0 -142.667 -64 -242.334 -192 -299.001c80 -25.333 142.667 -71 188 -137s68 -143.333 68 -232
c0 -49.333 -6.33301 -94.666 -19 -135.999s-31.334 -79.833 -56.001 -115.5s-53.667 -65.834 -87 -90.501c-42 -31.333 -90.167 -52.5 -144.5 -63.5s-131.833 -16.5 -232.5 -16.5h-555v1466zM381.003 1282v-426h346c91.333 0 158.166 16.5 200.499 49.5
s63.5 84.167 63.5 153.5c0 79.333 -21.667 136.333 -65 171s-115.666 52 -216.999 52h-328zM381.003 672.001l0.00195312 -487.999h332c103.333 0 186.166 16.833 248.499 50.5s93.5 97.5 93.5 191.5c0 93.333 -29.333 157.666 -88 192.999s-137.334 53 -236.001 53h-350z
" />
    <glyph glyph-name="radical" unicode="&#xc3;" horiz-adv-x="1130" 
d="M176 1466h852v-184h-647v-1282h-205v1466z" />
    <glyph glyph-name="radical" unicode="&#x413;" horiz-adv-x="1130" 
d="M176 1466h852v-184h-647v-1282h-205v1466z" />
    <glyph glyph-name="florin" unicode="&#xc4;" horiz-adv-x="1450" 
d="M176 184v906c0 60 12.333 115.333 37 166s60 94 106 130c42 30.667 87.167 51.667 135.5 63s119.5 17 213.5 17h553v-1282h133v-184h-1295v184h117zM381 184h637v1098h-344c-103.333 0 -178 -16.167 -224 -48.5s-69 -86.5 -69 -162.5v-887z" />
    <glyph glyph-name="florin" unicode="&#x414;" horiz-adv-x="1450" 
d="M176 184v906c0 60 12.333 115.333 37 166s60 94 106 130c42 30.667 87.167 51.667 135.5 63s119.5 17 213.5 17h553v-1282h133v-184h-1295v184h117zM381 184h637v1098h-344c-103.333 0 -178 -16.167 -224 -48.5s-69 -86.5 -69 -162.5v-887z" />
    <glyph glyph-name="approxequal" unicode="&#xc5;" horiz-adv-x="1425" 
d="M176 1466h1053v-184h-848v-430h784v-184h-784v-484h858v-184h-1063v1466z" />
    <glyph glyph-name="approxequal" unicode="&#x415;" horiz-adv-x="1425" 
d="M176 1466h1053v-184h-848v-430h784v-184h-784v-484h858v-184h-1063v1466z" />
    <glyph glyph-name="Delta" unicode="&#xc6;" horiz-adv-x="2320" 
d="M1024 0v508l-229 227l-486 -735h-241l587 866l-592 600h277l684 -716v716h205v-716l690 716h270l-592 -600l588 -866h-241l-486 735l-229 -227v-508h-205z" />
    <glyph glyph-name="Delta" unicode="&#x416;" horiz-adv-x="2320" 
d="M1024 0v508l-229 227l-486 -735h-241l587 866l-592 600h277l684 -716v716h205v-716l690 716h270l-592 -600l588 -866h-241l-486 735l-229 -227v-508h-205z" />
    <glyph glyph-name="guillemotleft" unicode="&#xc7;" horiz-adv-x="1333" 
d="M641 0c-84 0 -158.833 11.8389 -224.5 35.5059s-121 56.5 -166 98.5s-78.5 88.167 -100.5 138.5s-33 100.166 -33 149.499h211c0 -48.667 14.333 -91.167 43 -127.5s66.834 -63.833 114.501 -82.5s99.5 -28 155.5 -28s108.667 11.667 158 35
s88.666 54.666 117.999 93.999s44 81.666 44 126.999c0 78 -24.5 136.167 -73.5 174.5s-114.833 57.5 -197.5 57.5h-137v184h137c37.333 0 72 7.5 104 22.5s57.833 38 77.5 69s29.5 68.167 29.5 111.5c0 74.667 -21.167 130.5 -63.5 167.5s-104.5 55.5 -186.5 55.5
s-145.833 -19.333 -191.5 -58s-68.5 -93.667 -68.5 -165h-215c0 38 8.16699 80.333 24.5 127s42.833 91.5 79.5 134.5s85.5 78 146.5 105s133.833 40.5 218.5 40.5c95.333 0 178.333 -15.833 249 -47.5s124.667 -76 162 -133s56 -122.167 56 -195.5
c0 -67.333 -15.833 -126.833 -47.5 -178.5s-79.834 -91.834 -144.501 -120.501c53.333 -16.667 99 -41.334 137 -74.001s66.5 -72.334 85.5 -119.001s28.5 -99.334 28.5 -158.001c0 -54 -11.833 -107.167 -35.5 -159.5s-58.5 -99.666 -104.5 -141.999
s-102.167 -76 -168.5 -101s-140.166 -37.5 -221.499 -37.5z" />
    <glyph glyph-name="guillemotleft" unicode="&#x417;" horiz-adv-x="1333" 
d="M641 0c-84 0 -158.833 11.8389 -224.5 35.5059s-121 56.5 -166 98.5s-78.5 88.167 -100.5 138.5s-33 100.166 -33 149.499h211c0 -48.667 14.333 -91.167 43 -127.5s66.834 -63.833 114.501 -82.5s99.5 -28 155.5 -28s108.667 11.667 158 35
s88.666 54.666 117.999 93.999s44 81.666 44 126.999c0 78 -24.5 136.167 -73.5 174.5s-114.833 57.5 -197.5 57.5h-137v184h137c37.333 0 72 7.5 104 22.5s57.833 38 77.5 69s29.5 68.167 29.5 111.5c0 74.667 -21.167 130.5 -63.5 167.5s-104.5 55.5 -186.5 55.5
s-145.833 -19.333 -191.5 -58s-68.5 -93.667 -68.5 -165h-215c0 38 8.16699 80.333 24.5 127s42.833 91.5 79.5 134.5s85.5 78 146.5 105s133.833 40.5 218.5 40.5c95.333 0 178.333 -15.833 249 -47.5s124.667 -76 162 -133s56 -122.167 56 -195.5
c0 -67.333 -15.833 -126.833 -47.5 -178.5s-79.834 -91.834 -144.501 -120.501c53.333 -16.667 99 -41.334 137 -74.001s66.5 -72.334 85.5 -119.001s28.5 -99.334 28.5 -158.001c0 -54 -11.833 -107.167 -35.5 -159.5s-58.5 -99.666 -104.5 -141.999
s-102.167 -76 -168.5 -101s-140.166 -37.5 -221.499 -37.5z" />
    <glyph glyph-name="guillemotright" unicode="&#xc8;" horiz-adv-x="1470" 
d="M1296 1466v-1466h-202v1161l-668 -1161h-229v1466h206v-1153l668 1153h225z" />
    <glyph glyph-name="guillemotright" unicode="&#x418;" horiz-adv-x="1470" 
d="M1296 1466v-1466h-202v1161l-668 -1161h-229v1466h206v-1153l668 1153h225z" />
    <glyph glyph-name="ellipsis" unicode="&#xc9;" horiz-adv-x="1495" 
d="M1296 1466v-1466h-202v1161l-668 -1161h-229v1466h206v-1153l668 1153h225zM727 1538c-70.667 0 -132.333 20.167 -185 60.5s-79 92.5 -79 156.5h182l-4 -6c0 -17.333 9.83301 -31.833 29.5 -43.5s39.834 -17.5 60.501 -17.5s39.167 5.83301 55.5 17.5
s24.5 26.167 24.5 43.5v6h180c0 -64 -25.833 -116.167 -77.5 -156.5s-113.834 -60.5 -186.501 -60.5z" />
    <glyph glyph-name="ellipsis" unicode="&#x419;" horiz-adv-x="1495" 
d="M1296 1466v-1466h-202v1161l-668 -1161h-229v1466h206v-1153l668 1153h225zM727 1538c-70.667 0 -132.333 20.167 -185 60.5s-79 92.5 -79 156.5h182l-4 -6c0 -17.333 9.83301 -31.833 29.5 -43.5s39.834 -17.5 60.501 -17.5s39.167 5.83301 55.5 17.5
s24.5 26.167 24.5 43.5v6h180c0 -64 -25.833 -116.167 -77.5 -156.5s-113.834 -60.5 -186.501 -60.5z" />
    <glyph glyph-name="yen" unicode="&#xca;" horiz-adv-x="1495" 
d="M176 1466h205v-716l690 716h270l-591 -600l587 -866h-241l-486 735l-229 -227v-508h-205v1466z" />
    <glyph glyph-name="yen" unicode="&#x41a;" horiz-adv-x="1495" 
d="M176 1466h205v-716l690 716h270l-591 -600l587 -866h-241l-486 735l-229 -227v-508h-205v1466z" />
    <glyph glyph-name="Agrave" unicode="&#xcb;" horiz-adv-x="1495" 
d="M1073 1282h-399c-103.333 0 -178 -16.167 -224 -48.5s-69 -86.5 -69 -162.5v-1071h-205v1090c0 60 12.333 115.333 37 166s60 94 106 130c42 30.667 87.167 51.667 135.5 63s119.5 17 213.5 17h610v-1466h-205v1282z" />
    <glyph glyph-name="Agrave" unicode="&#x41b;" horiz-adv-x="1495" 
d="M1073 1282h-399c-103.333 0 -178 -16.167 -224 -48.5s-69 -86.5 -69 -162.5v-1071h-205v1090c0 60 12.333 115.333 37 166s60 94 106 130c42 30.667 87.167 51.667 135.5 63s119.5 17 213.5 17h610v-1466h-205v1282z" />
    <glyph glyph-name="Atilde" unicode="&#xcc;" horiz-adv-x="1681" 
d="M176 1466h291l373 -1224l370 1224h289v-1466h-207v1176l-362 -1176h-191l-358 1180v-1180h-205v1466z" />
    <glyph glyph-name="Atilde" unicode="&#x41c;" horiz-adv-x="1681" 
d="M176 1466h291l373 -1224l370 1224h289v-1466h-207v1176l-362 -1176h-191l-358 1180v-1180h-205v1466z" />
    <glyph glyph-name="Otilde" unicode="&#xcd;" horiz-adv-x="1470" 
d="M176 1466h205v-604h692v604h205v-1466h-205v678h-692v-678h-205v1466z" />
    <glyph glyph-name="Otilde" unicode="&#x41d;" horiz-adv-x="1470" 
d="M176 1466h205v-604h692v604h205v-1466h-205v678h-692v-678h-205v1466z" />
    <glyph glyph-name="OE" unicode="&#xce;" horiz-adv-x="1636" 
d="M72 719c0 120 16.498 227.666 49.498 322.999s80.667 176.833 143 244.5s137.5 119.334 225.5 155.001s187.333 53.5 298 53.5c106 0 202.333 -17 289 -51s161.334 -84.167 224.001 -150.5s110.334 -145.5 143.001 -237.5s49 -195.667 49 -311
c0 -147.333 -28.167 -279.5 -84.5 -396.5s-138.5 -208.833 -246.5 -275.5s-236.667 -100 -386 -100c-107.333 0 -204.333 17.167 -291 51.5s-161.167 84.5 -223.5 150.5s-109.5 145 -141.5 237s-48 194.333 -48 307zM286.998 722.999
c0 -115.333 19.835 -215.497 59.502 -300.497s97.167 -150.333 172.5 -196s163.666 -68.5 264.999 -68.5c102.667 0 191.667 23.167 267 69.5s132.666 113.833 171.999 202.5s59 193.667 59 315c0 86 -11.5 164.5 -34.5 235.5s-55.333 130.667 -97 179
s-93.5 85.666 -155.5 111.999s-132.333 39.5 -211 39.5s-148.667 -13.167 -210 -39.5s-113.333 -64.833 -156 -115.5s-75.167 -112.834 -97.5 -186.501s-33.5 -155.834 -33.5 -246.501z" />
    <glyph glyph-name="OE" unicode="&#x41e;" horiz-adv-x="1636" 
d="M72 719c0 120 16.498 227.666 49.498 322.999s80.667 176.833 143 244.5s137.5 119.334 225.5 155.001s187.333 53.5 298 53.5c106 0 202.333 -17 289 -51s161.334 -84.167 224.001 -150.5s110.334 -145.5 143.001 -237.5s49 -195.667 49 -311
c0 -147.333 -28.167 -279.5 -84.5 -396.5s-138.5 -208.833 -246.5 -275.5s-236.667 -100 -386 -100c-107.333 0 -204.333 17.167 -291 51.5s-161.167 84.5 -223.5 150.5s-109.5 145 -141.5 237s-48 194.333 -48 307zM286.998 722.999
c0 -115.333 19.835 -215.497 59.502 -300.497s97.167 -150.333 172.5 -196s163.666 -68.5 264.999 -68.5c102.667 0 191.667 23.167 267 69.5s132.666 113.833 171.999 202.5s59 193.667 59 315c0 86 -11.5 164.5 -34.5 235.5s-55.333 130.667 -97 179
s-93.5 85.666 -155.5 111.999s-132.333 39.5 -211 39.5s-148.667 -13.167 -210 -39.5s-113.333 -64.833 -156 -115.5s-75.167 -112.834 -97.5 -186.501s-33.5 -155.834 -33.5 -246.501z" />
    <glyph glyph-name="oe" unicode="&#xcf;" horiz-adv-x="1470" 
d="M176 1466h1102v-1466h-205v1282h-692v-1282h-205v1466z" />
    <glyph glyph-name="oe" unicode="&#x41f;" horiz-adv-x="1470" 
d="M176 1466h1102v-1466h-205v1282h-692v-1282h-205v1466z" />
    <glyph glyph-name="emdash" unicode="&#xd0;" horiz-adv-x="1425" 
d="M176 1466h563.002c100 0 176.667 -5.66699 230 -17s99.666 -32.333 138.999 -63c53.333 -38 93.666 -85.333 120.999 -142s41 -121.667 41 -195c0 -98 -22.667 -182.667 -68 -254s-108 -121.333 -188 -150c-54.667 -20.667 -136.667 -31 -246 -31h-387v-614h-205v1466z
M381.002 799l319.002 0.00195312c77.333 0 140.166 4.66699 188.499 14s88.166 31.666 119.499 66.999s47 88.666 47 159.999c0 93.333 -28.667 157 -86 191s-135.333 51 -234 51h-354v-483z" />
    <glyph glyph-name="emdash" unicode="&#x420;" horiz-adv-x="1425" 
d="M176 1466h563.002c100 0 176.667 -5.66699 230 -17s99.666 -32.333 138.999 -63c53.333 -38 93.666 -85.333 120.999 -142s41 -121.667 41 -195c0 -98 -22.667 -182.667 -68 -254s-108 -121.333 -188 -150c-54.667 -20.667 -136.667 -31 -246 -31h-387v-614h-205v1466z
M381.002 799l319.002 0.00195312c77.333 0 140.166 4.66699 188.499 14s88.166 31.666 119.499 66.999s47 88.666 47 159.999c0 93.333 -28.667 157 -86 191s-135.333 51 -234 51h-354v-483z" />
    <glyph glyph-name="endash" unicode="&#xd1;" horiz-adv-x="1495" 
d="M1360 1010h-198.996c-18 68 -45.333 124 -82 168s-82.334 77.167 -137.001 99.5s-117.334 33.5 -188.001 33.5c-96 0 -179.167 -23.167 -249.5 -69.5s-124.166 -113.333 -161.499 -201s-56 -192.167 -56 -313.5c0 -118 17.667 -219.667 53 -305
s87.333 -150.666 156 -195.999s149.667 -68 243 -68c114.667 0 208.334 33.333 281.001 100s119.667 161.667 141 285h199c-12 -108 -44.833 -205.667 -98.5 -293s-124.834 -155.333 -213.501 -204s-189.667 -73 -303 -73c-102 0 -195 17 -279 51s-155.333 83.667 -214 149
s-103.334 143.833 -134.001 235.5s-46 195.167 -46 310.5c0 106 14.167 205.667 42.5 299s71.166 176.166 128.499 248.499s128.666 128.5 213.999 168.5s183 60 293 60c86 0 165.5 -11.167 238.5 -33.5s136 -55 189 -98s95.167 -94.667 126.5 -155s50 -126.5 56 -198.5z
" />
    <glyph glyph-name="endash" unicode="&#x421;" horiz-adv-x="1495" 
d="M1360 1010h-198.996c-18 68 -45.333 124 -82 168s-82.334 77.167 -137.001 99.5s-117.334 33.5 -188.001 33.5c-96 0 -179.167 -23.167 -249.5 -69.5s-124.166 -113.333 -161.499 -201s-56 -192.167 -56 -313.5c0 -118 17.667 -219.667 53 -305
s87.333 -150.666 156 -195.999s149.667 -68 243 -68c114.667 0 208.334 33.333 281.001 100s119.667 161.667 141 285h199c-12 -108 -44.833 -205.667 -98.5 -293s-124.834 -155.333 -213.501 -204s-189.667 -73 -303 -73c-102 0 -195 17 -279 51s-155.333 83.667 -214 149
s-103.334 143.833 -134.001 235.5s-46 195.167 -46 310.5c0 106 14.167 205.667 42.5 299s71.166 176.166 128.499 248.499s128.666 128.5 213.999 168.5s183 60 293 60c86 0 165.5 -11.167 238.5 -33.5s136 -55 189 -98s95.167 -94.667 126.5 -155s50 -126.5 56 -198.5z
" />
    <glyph glyph-name="quotedblleft" unicode="&#xd2;" horiz-adv-x="1333" 
d="M27 1466h1175v-184h-485v-1282h-209v1282h-481v184z" />
    <glyph glyph-name="quotedblleft" unicode="&#x422;" horiz-adv-x="1333" 
d="M27 1466h1175v-184h-485v-1282h-209v1282h-481v184z" />
    <glyph glyph-name="quotedblright" unicode="&#xd3;" horiz-adv-x="1356" 
d="M1315 1466l-795 -1466h-237l286 494l-512 972h248l381 -772l387 772h242z" />
    <glyph glyph-name="quotedblright" unicode="&#x423;" horiz-adv-x="1356" 
d="M1315 1466l-795 -1466h-237l286 494l-512 972h248l381 -772l387 772h242z" />
    <glyph glyph-name="quoteleft" unicode="&#xd4;" horiz-adv-x="1839" 
d="M817 1624l207.001 -0.00195312v-125c146.667 0 276.834 -32 390.501 -96s201.667 -155.167 264 -273.5s93.5 -255.166 93.5 -410.499c0 -149.333 -31.833 -280.666 -95.5 -393.999s-152.5 -200.333 -266.5 -261s-242.667 -91 -386 -91v-153h-207v153
c-106.667 0 -205.167 17 -295.5 51s-169.5 83.833 -237.5 149.5s-120.333 145.167 -157 238.5s-55 195.666 -55 306.999c0 155.333 31.167 292.333 93.5 411s150.166 209.834 263.499 273.501s242.666 95.5 387.999 95.5v125zM1024 1311v-1153
c76 0 147.167 13.167 213.5 39.5s123.5 64 171.5 113s85.333 108.333 112 178s40 147.834 40 234.501c0 120 -22.833 224.667 -68.5 314s-109.167 157.333 -190.5 204s-174 70 -278 70zM817.001 1311c-78.667 0 -150.499 -13.333 -215.499 -40s-120.667 -65.167 -167 -115.5
s-82.5 -112.5 -108.5 -186.5s-39 -156 -39 -246c0 -115.333 22.333 -215.333 67 -300s107.667 -150 189 -196s172.666 -69 273.999 -69v1153z" />
    <glyph glyph-name="quoteleft" unicode="&#x424;" horiz-adv-x="1839" 
d="M817 1624l207.001 -0.00195312v-125c146.667 0 276.834 -32 390.501 -96s201.667 -155.167 264 -273.5s93.5 -255.166 93.5 -410.499c0 -149.333 -31.833 -280.666 -95.5 -393.999s-152.5 -200.333 -266.5 -261s-242.667 -91 -386 -91v-153h-207v153
c-106.667 0 -205.167 17 -295.5 51s-169.5 83.833 -237.5 149.5s-120.333 145.167 -157 238.5s-55 195.666 -55 306.999c0 155.333 31.167 292.333 93.5 411s150.166 209.834 263.499 273.501s242.666 95.5 387.999 95.5v125zM1024 1311v-1153
c76 0 147.167 13.167 213.5 39.5s123.5 64 171.5 113s85.333 108.333 112 178s40 147.834 40 234.501c0 120 -22.833 224.667 -68.5 314s-109.167 157.333 -190.5 204s-174 70 -278 70zM817.001 1311c-78.667 0 -150.499 -13.333 -215.499 -40s-120.667 -65.167 -167 -115.5
s-82.5 -112.5 -108.5 -186.5s-39 -156 -39 -246c0 -115.333 22.333 -215.333 67 -300s107.667 -150 189 -196s172.666 -69 273.999 -69v1153z" />
    <glyph glyph-name="quoteright" unicode="&#xd5;" horiz-adv-x="1401" 
d="M14 0l537 745l-494 721h248l377 -559l391 559h242l-512 -712l524 -754h-254l-399 596l-422 -596h-238z" />
    <glyph glyph-name="quoteright" unicode="&#x425;" horiz-adv-x="1401" 
d="M14 0l537 745l-494 721h248l377 -559l391 559h242l-512 -712l524 -754h-254l-399 596l-422 -596h-238z" />
    <glyph glyph-name="divide" unicode="&#xd6;" horiz-adv-x="1587" 
d="M176 0v1466h205v-1282h692v1282h205v-1282h135v-184h-1237z" />
    <glyph glyph-name="divide" unicode="&#x426;" horiz-adv-x="1587" 
d="M176 0v1466h205v-1282h692v1282h205v-1282h135v-184h-1237z" />
    <glyph glyph-name="lozenge" unicode="&#xd7;" horiz-adv-x="1495" 
d="M176 1024v442.002h205v-407c0 -68.667 16.667 -118.667 50 -150s83 -47 149 -47h493v604h205v-1466h-205v678h-500c-60.667 0 -121 10.167 -181 30.5s-111 56.166 -153 107.499s-63 120.666 -63 207.999z" />
    <glyph glyph-name="lozenge" unicode="&#x427;" horiz-adv-x="1495" 
d="M176 1024v442.002h205v-407c0 -68.667 16.667 -118.667 50 -150s83 -47 149 -47h493v604h205v-1466h-205v678h-500c-60.667 0 -121 10.167 -181 30.5s-111 56.166 -153 107.499s-63 120.666 -63 207.999z" />
    <glyph glyph-name="ydieresis" unicode="&#xd8;" horiz-adv-x="2068" 
d="M176 0v1466h205v-1282h547v1282h207v-1282h546v1282h203v-1466h-1708z" />
    <glyph glyph-name="ydieresis" unicode="&#x428;" horiz-adv-x="2068" 
d="M176 0v1466h205v-1282h547v1282h207v-1282h546v1282h203v-1466h-1708z" />
    <glyph glyph-name="Ydieresis" unicode="&#xd9;" horiz-adv-x="2185" 
d="M176 0v1466h205v-1282h547v1282h207v-1282h546v1282h203v-1282h135v-184h-1843z" />
    <glyph glyph-name="Ydieresis" unicode="&#x429;" horiz-adv-x="2185" 
d="M176 0v1466h205v-1282h547v1282h207v-1282h546v1282h203v-1282h135v-184h-1843z" />
    <glyph glyph-name="fraction" unicode="&#xda;" horiz-adv-x="1749" 
d="M508 1282l-481.001 0.00195312v184h690v-610h342c87.333 0 165.5 -10.833 234.5 -32.5s126.333 -51.834 172 -90.501s79.834 -84.334 102.501 -137.001s34 -110.667 34 -174c0 -71.333 -13.667 -136.333 -41 -195s-66.333 -107.667 -117 -147
c-44 -31.333 -92.833 -52.5 -146.5 -63.5s-130.5 -16.5 -230.5 -16.5h-559v1282zM716.999 672.002v-488h327c104 0 187.833 16.833 251.5 50.5s95.5 97.5 95.5 191.5c0 164 -108 246 -324 246h-350z" />
    <glyph glyph-name="fraction" unicode="&#x42a;" horiz-adv-x="1749" 
d="M508 1282l-481.001 0.00195312v184h690v-610h342c87.333 0 165.5 -10.833 234.5 -32.5s126.333 -51.834 172 -90.501s79.834 -84.334 102.501 -137.001s34 -110.667 34 -174c0 -71.333 -13.667 -136.333 -41 -195s-66.333 -107.667 -117 -147
c-44 -31.333 -92.833 -52.5 -146.5 -63.5s-130.5 -16.5 -230.5 -16.5h-559v1282zM716.999 672.002v-488h327c104 0 187.833 16.833 251.5 50.5s95.5 97.5 95.5 191.5c0 164 -108 246 -324 246h-350z" />
    <glyph glyph-name="currency" unicode="&#xdb;" horiz-adv-x="1866" 
d="M381 1466l0.000976562 -610.001h346c87.333 0 165.833 -11 235.5 -33s127 -52.333 172 -91s78.833 -84.167 101.5 -136.5s34 -110.166 34 -173.499c0 -49.333 -6.33301 -94.666 -19 -135.999s-31.334 -79.833 -56.001 -115.5s-53.667 -65.834 -87 -90.501
c-42 -31.333 -90.167 -52.5 -144.5 -63.5s-131.833 -16.5 -232.5 -16.5h-555v1466h205zM1462 -0.000976562v1466h203v-1466h-203zM381.001 671.999l0.00195312 -487.999h332c103.333 0 186.166 16.833 248.499 50.5s93.5 97.5 93.5 191.5
c0 93.333 -29.333 157.666 -88 192.999s-137.334 53 -236.001 53h-350z" />
    <glyph glyph-name="currency" unicode="&#x42b;" horiz-adv-x="1866" 
d="M381 1466l0.000976562 -610.001h346c87.333 0 165.833 -11 235.5 -33s127 -52.333 172 -91s78.833 -84.167 101.5 -136.5s34 -110.166 34 -173.499c0 -49.333 -6.33301 -94.666 -19 -135.999s-31.334 -79.833 -56.001 -115.5s-53.667 -65.834 -87 -90.501
c-42 -31.333 -90.167 -52.5 -144.5 -63.5s-131.833 -16.5 -232.5 -16.5h-555v1466h205zM1462 -0.000976562v1466h203v-1466h-203zM381.001 671.999l0.00195312 -487.999h332c103.333 0 186.166 16.833 248.499 50.5s93.5 97.5 93.5 191.5
c0 93.333 -29.333 157.666 -88 192.999s-137.334 53 -236.001 53h-350z" />
    <glyph glyph-name="guilsinglleft" unicode="&#xdc;" horiz-adv-x="1450" 
d="M381 1466l0.000976562 -610.001h346c87.333 0 165.833 -11 235.5 -33s127 -52.333 172 -91s78.833 -84.167 101.5 -136.5s34 -110.166 34 -173.499c0 -49.333 -6.33301 -94.666 -19 -135.999s-31.334 -79.833 -56.001 -115.5s-53.667 -65.834 -87 -90.501
c-42 -31.333 -90.167 -52.5 -144.5 -63.5s-131.833 -16.5 -232.5 -16.5h-555v1466h205zM381.001 671.999l0.00195312 -487.999h332c103.333 0 186.166 16.833 248.499 50.5s93.5 97.5 93.5 191.5c0 93.333 -29.333 157.666 -88 192.999s-137.334 53 -236.001 53h-350z" />
    <glyph glyph-name="guilsinglleft" unicode="&#x42c;" horiz-adv-x="1450" 
d="M381 1466l0.000976562 -610.001h346c87.333 0 165.833 -11 235.5 -33s127 -52.333 172 -91s78.833 -84.167 101.5 -136.5s34 -110.166 34 -173.499c0 -49.333 -6.33301 -94.666 -19 -135.999s-31.334 -79.833 -56.001 -115.5s-53.667 -65.834 -87 -90.501
c-42 -31.333 -90.167 -52.5 -144.5 -63.5s-131.833 -16.5 -232.5 -16.5h-555v1466h205zM381.001 671.999l0.00195312 -487.999h332c103.333 0 186.166 16.833 248.499 50.5s93.5 97.5 93.5 191.5c0 93.333 -29.333 157.666 -88 192.999s-137.334 53 -236.001 53h-350z" />
    <glyph glyph-name="guilsinglright" unicode="&#xdd;" horiz-adv-x="1542" 
d="M1157 678l-554.998 -0.000976562v184h543c0 90.667 -19.667 170 -59 238s-93.833 120.167 -163.5 156.5s-147.167 54.5 -232.5 54.5c-104.667 0 -191.334 -25.167 -260.001 -75.5s-116.334 -125.5 -143.001 -225.5h-205c10 96 41.333 180.833 94 254.5
s123.667 130.5 213 170.5s191 60 305 60c111.333 0 210 -20.167 296 -60.5s157.333 -96 214 -167s99.5 -153.333 128.5 -247s43.5 -194.167 43.5 -301.5c0 -115.333 -15.667 -219.166 -47 -311.499s-76.333 -170.833 -135 -235.5s-130.167 -114 -214.5 -148
s-177.5 -51 -279.5 -51c-112 0 -212.333 24.333 -301 73s-160.167 116.5 -214.5 203.5s-88.5 184.833 -102.5 293.5h205c12 -80 36.667 -149.167 74 -207.5s85.5 -102.5 144.5 -132.5s126.833 -45 203.5 -45c134.667 0 243 47.333 325 142s123 220.667 123 378z" />
    <glyph glyph-name="guilsinglright" unicode="&#x42d;" horiz-adv-x="1542" 
d="M1157 678l-554.998 -0.000976562v184h543c0 90.667 -19.667 170 -59 238s-93.833 120.167 -163.5 156.5s-147.167 54.5 -232.5 54.5c-104.667 0 -191.334 -25.167 -260.001 -75.5s-116.334 -125.5 -143.001 -225.5h-205c10 96 41.333 180.833 94 254.5
s123.667 130.5 213 170.5s191 60 305 60c111.333 0 210 -20.167 296 -60.5s157.333 -96 214 -167s99.5 -153.333 128.5 -247s43.5 -194.167 43.5 -301.5c0 -115.333 -15.667 -219.166 -47 -311.499s-76.333 -170.833 -135 -235.5s-130.167 -114 -214.5 -148
s-177.5 -51 -279.5 -51c-112 0 -212.333 24.333 -301 73s-160.167 116.5 -214.5 203.5s-88.5 184.833 -102.5 293.5h205c12 -80 36.667 -149.167 74 -207.5s85.5 -102.5 144.5 -132.5s126.833 -45 203.5 -45c134.667 0 243 47.333 325 142s123 220.667 123 378z" />
    <glyph glyph-name="fi" unicode="&#xde;" horiz-adv-x="2204" 
d="M618 678l-236.999 0.000976562v-678h-205v1466h205v-604h244c13.333 99.333 38.5 187.666 75.5 264.999s86.167 143.666 147.5 198.999s132.833 97.333 214.5 126s171.834 43 270.501 43c106 0 202.667 -17.167 290 -51.5s162.166 -84.666 224.499 -150.999
s109.666 -145.333 141.999 -237s48.5 -195.167 48.5 -310.5c0 -147.333 -28 -279.333 -84 -396s-138.167 -208.5 -246.5 -275.5s-236.5 -100.5 -384.5 -100.5c-104 0 -199 16.5 -285 49.5s-159.667 80.333 -221 142s-108.833 136.167 -142.5 223.5s-52.5 184 -56.5 290z
M834.001 723.001c0 -115.333 19.834 -215.497 59.501 -300.497s97.167 -150.333 172.5 -196s163.666 -68.5 264.999 -68.5c102.667 0 191.334 23 266.001 69s131.667 113 171 201s59 193.667 59 317c0 86 -11.5 164.5 -34.5 235.5s-55.333 130.667 -97 179
s-93.334 85.666 -155.001 111.999s-131.5 39.5 -209.5 39.5c-78.667 0 -148.667 -13.167 -210 -39.5s-113.333 -64.833 -156 -115.5s-75.167 -112.834 -97.5 -186.501s-33.5 -155.834 -33.5 -246.501z" />
    <glyph glyph-name="fi" unicode="&#x42e;" horiz-adv-x="2204" 
d="M618 678l-236.999 0.000976562v-678h-205v1466h205v-604h244c13.333 99.333 38.5 187.666 75.5 264.999s86.167 143.666 147.5 198.999s132.833 97.333 214.5 126s171.834 43 270.501 43c106 0 202.667 -17.167 290 -51.5s162.166 -84.666 224.499 -150.999
s109.666 -145.333 141.999 -237s48.5 -195.167 48.5 -310.5c0 -147.333 -28 -279.333 -84 -396s-138.167 -208.5 -246.5 -275.5s-236.5 -100.5 -384.5 -100.5c-104 0 -199 16.5 -285 49.5s-159.667 80.333 -221 142s-108.833 136.167 -142.5 223.5s-52.5 184 -56.5 290z
M834.001 723.001c0 -115.333 19.834 -215.497 59.501 -300.497s97.167 -150.333 172.5 -196s163.666 -68.5 264.999 -68.5c102.667 0 191.334 23 266.001 69s131.667 113 171 201s59 193.667 59 317c0 86 -11.5 164.5 -34.5 235.5s-55.333 130.667 -97 179
s-93.334 85.666 -155.001 111.999s-131.5 39.5 -209.5 39.5c-78.667 0 -148.667 -13.167 -210 -39.5s-113.333 -64.833 -156 -115.5s-75.167 -112.834 -97.5 -186.501s-33.5 -155.834 -33.5 -246.501z" />
    <glyph glyph-name="fl" unicode="&#xdf;" horiz-adv-x="1520" 
d="M1300 1466v-1466h-204v623h-387c-70 0 -126.167 -4.83301 -168.5 -14.5s-75.833 -31.334 -100.5 -65.001s-37 -84.5 -37 -152.5v-184c0 -33.333 -2.66699 -62.666 -8 -87.999s-15.333 -65 -30 -119h-240c45.333 62.667 68 139 68 229v162c0 75.333 5.16699 134 15.5 176
s28.166 75.167 53.499 99.5s62.333 44.5 111 60.5c-70 32 -121.333 75.5 -154 130.5s-49 124.833 -49 209.5c0 140.667 49 248.667 147 324c41.333 28.667 88.333 48.334 141 59.001s131.334 16 236.001 16h606zM1096 1282h-396.001c-66 0 -122.167 -5.66699 -168.5 -17
s-83.666 -34.5 -111.999 -69.5s-42.5 -85.5 -42.5 -151.5s15 -116.667 45 -152s68.667 -58.333 116 -69s107 -16 179 -16h379v475z" />
    <glyph glyph-name="fl" unicode="&#x42f;" horiz-adv-x="1520" 
d="M1300 1466v-1466h-204v623h-387c-70 0 -126.167 -4.83301 -168.5 -14.5s-75.833 -31.334 -100.5 -65.001s-37 -84.5 -37 -152.5v-184c0 -33.333 -2.66699 -62.666 -8 -87.999s-15.333 -65 -30 -119h-240c45.333 62.667 68 139 68 229v162c0 75.333 5.16699 134 15.5 176
s28.166 75.167 53.499 99.5s62.333 44.5 111 60.5c-70 32 -121.333 75.5 -154 130.5s-49 124.833 -49 209.5c0 140.667 49 248.667 147 324c41.333 28.667 88.333 48.334 141 59.001s131.334 16 236.001 16h606zM1096 1282h-396.001c-66 0 -122.167 -5.66699 -168.5 -17
s-83.666 -34.5 -111.999 -69.5s-42.5 -85.5 -42.5 -151.5s15 -116.667 45 -152s68.667 -58.333 116 -69s107 -16 179 -16h379v475z" />
    <glyph glyph-name="daggerdbl" unicode="&#xe0;" 
d="M131 739c4 50 10.502 90.499 19.502 121.499s23.167 60.833 42.5 89.5c72 100 194.667 150 368 150c86 0 159.167 -10.167 219.5 -30.5s107.5 -55.833 141.5 -106.5s51 -119 51 -205v-506c0 -39.333 4.66699 -68 14 -86s25.666 -27 48.999 -27
c1.33301 0 7.66602 0.666992 18.999 2s23 2 35 2v-139c-47.333 -14.667 -85 -22 -113 -22c-54.667 0 -95.334 13.167 -122.001 39.5s-42.667 66.833 -48 121.5c-52 -57.333 -108.833 -100 -170.5 -128s-128.5 -42 -200.5 -42c-68 0 -128.5 13.333 -181.5 40
s-94.333 64.334 -124 113.001s-44.5 103.667 -44.5 165c0 82 22.333 148.167 67 198.5s101.5 87.5 170.5 111.5s136.333 40.333 202 49s154.167 18 265.5 28v53c0 71.333 -17.5 122.333 -52.5 153s-94.167 46 -177.5 46c-77.333 0 -135.166 -15.167 -173.499 -45.5
s-59.5 -78.833 -63.5 -145.5h-193zM788.002 534.999c-118.667 -16.667 -206.167 -31.001 -262.5 -43.001s-98.5 -25 -126.5 -39c-36 -12.667 -63.667 -32.167 -83 -58.5s-29 -56.166 -29 -89.499c0 -51.333 17.333 -91.833 52 -121.5s82.667 -44.5 144 -44.5
c55.333 0 106.5 11.333 153.5 34s84 53.167 111 91.5s40.5 79.833 40.5 124.5v146z" />
    <glyph glyph-name="daggerdbl" unicode="&#x430;" 
d="M131 739c4 50 10.502 90.499 19.502 121.499s23.167 60.833 42.5 89.5c72 100 194.667 150 368 150c86 0 159.167 -10.167 219.5 -30.5s107.5 -55.833 141.5 -106.5s51 -119 51 -205v-506c0 -39.333 4.66699 -68 14 -86s25.666 -27 48.999 -27
c1.33301 0 7.66602 0.666992 18.999 2s23 2 35 2v-139c-47.333 -14.667 -85 -22 -113 -22c-54.667 0 -95.334 13.167 -122.001 39.5s-42.667 66.833 -48 121.5c-52 -57.333 -108.833 -100 -170.5 -128s-128.5 -42 -200.5 -42c-68 0 -128.5 13.333 -181.5 40
s-94.333 64.334 -124 113.001s-44.5 103.667 -44.5 165c0 82 22.333 148.167 67 198.5s101.5 87.5 170.5 111.5s136.333 40.333 202 49s154.167 18 265.5 28v53c0 71.333 -17.5 122.333 -52.5 153s-94.167 46 -177.5 46c-77.333 0 -135.166 -15.167 -173.499 -45.5
s-59.5 -78.833 -63.5 -145.5h-193zM788.002 534.999c-118.667 -16.667 -206.167 -31.001 -262.5 -43.001s-98.5 -25 -126.5 -39c-36 -12.667 -63.667 -32.167 -83 -58.5s-29 -56.166 -29 -89.499c0 -51.333 17.333 -91.833 52 -121.5s82.667 -44.5 144 -44.5
c55.333 0 106.5 11.333 153.5 34s84 53.167 111 91.5s40.5 79.833 40.5 124.5v146z" />
    <glyph glyph-name="periodcentered" unicode="&#xe1;" 
d="M68 606c0 195.333 19.668 350.833 59.001 466.5s95.166 197.667 167.499 246s161.166 72.5 266.499 72.5c52 0 90.333 7.5 115 22.5s37 32.5 37 52.5h180c0 -68.667 -29.5 -126.667 -88.5 -174s-140.167 -71 -243.5 -71c-96.667 0 -167.167 -24.167 -211.5 -72.5
s-74.166 -109.5 -89.499 -183.5c32 38 75.333 70 130 96s110.334 39 167.001 39c100.667 0 187.667 -22.5 261 -67.5s129.333 -110 168 -195s58 -185.833 58 -302.5c0 -116 -19.167 -216.167 -57.5 -300.5s-94.333 -149 -168 -194s-160.834 -67.5 -261.501 -67.5
c-104 0 -192.167 20.833 -264.5 62.5s-127.833 109.667 -166.5 204s-58 216.5 -58 366.5zM557.001 930c-60 0 -111.833 -15.501 -155.5 -46.501s-76.834 -75.833 -99.501 -134.5s-34 -130 -34 -214c0 -82.667 11.5 -153.667 34.5 -213s56.167 -104.666 99.5 -135.999
s95 -47 155 -47c92.667 0 164.334 35.333 215.001 106s76 170 76 298c0 80.667 -11.333 150 -34 208s-56.167 102.333 -100.5 133s-96.5 46 -156.5 46z" />
    <glyph glyph-name="periodcentered" unicode="&#x431;" 
d="M68 606c0 195.333 19.668 350.833 59.001 466.5s95.166 197.667 167.499 246s161.166 72.5 266.499 72.5c52 0 90.333 7.5 115 22.5s37 32.5 37 52.5h180c0 -68.667 -29.5 -126.667 -88.5 -174s-140.167 -71 -243.5 -71c-96.667 0 -167.167 -24.167 -211.5 -72.5
s-74.166 -109.5 -89.499 -183.5c32 38 75.333 70 130 96s110.334 39 167.001 39c100.667 0 187.667 -22.5 261 -67.5s129.333 -110 168 -195s58 -185.833 58 -302.5c0 -116 -19.167 -216.167 -57.5 -300.5s-94.333 -149 -168 -194s-160.834 -67.5 -261.501 -67.5
c-104 0 -192.167 20.833 -264.5 62.5s-127.833 109.667 -166.5 204s-58 216.5 -58 366.5zM557.001 930c-60 0 -111.833 -15.501 -155.5 -46.501s-76.834 -75.833 -99.501 -134.5s-34 -130 -34 -214c0 -82.667 11.5 -153.667 34.5 -213s56.167 -104.666 99.5 -135.999
s95 -47 155 -47c92.667 0 164.334 35.333 215.001 106s76 170 76 298c0 80.667 -11.333 150 -34 208s-56.167 102.333 -100.5 133s-96.5 46 -156.5 46z" />
    <glyph glyph-name="quotesinglbase" unicode="&#xe2;" horiz-adv-x="1130" 
d="M705 0l-574 -0.000976562v1073h528c111.333 0 193.833 -24.333 247.5 -73s80.5 -111 80.5 -187c0 -110.667 -58 -190.667 -174 -240c80.667 -20 136.667 -55.167 168 -105.5s47 -113.166 47 -188.499c0 -49.333 -16.167 -95.5 -48.5 -138.5s-73.5 -77.167 -123.5 -102.5
s-100.333 -38 -151 -38zM659 482.999l-342 -0.00292969v-317h351c50 0 91.167 14.333 123.5 43s48.5 65.334 48.5 110.001c0 28.667 -7.33301 55.334 -22 80.001s-35.667 44.834 -63 60.501s-59.333 23.5 -96 23.5zM606 644.996c131.333 0 197 52.668 197 158.001
c0 37.333 -17.667 66.166 -53 86.499s-83.333 30.5 -144 30.5h-289v-275h289z" />
    <glyph glyph-name="quotesinglbase" unicode="&#x432;" horiz-adv-x="1130" 
d="M705 0l-574 -0.000976562v1073h528c111.333 0 193.833 -24.333 247.5 -73s80.5 -111 80.5 -187c0 -110.667 -58 -190.667 -174 -240c80.667 -20 136.667 -55.167 168 -105.5s47 -113.166 47 -188.499c0 -49.333 -16.167 -95.5 -48.5 -138.5s-73.5 -77.167 -123.5 -102.5
s-100.333 -38 -151 -38zM659 482.999l-342 -0.00292969v-317h351c50 0 91.167 14.333 123.5 43s48.5 65.334 48.5 110.001c0 28.667 -7.33301 55.334 -22 80.001s-35.667 44.834 -63 60.501s-59.333 23.5 -96 23.5zM606 644.996c131.333 0 197 52.668 197 158.001
c0 37.333 -17.667 66.166 -53 86.499s-83.333 30.5 -144 30.5h-289v-275h289z" />
    <glyph glyph-name="quotedblbase" unicode="&#xe3;" horiz-adv-x="1036" 
d="M915 350c0 -80.667 -16.334 -149 -49.001 -205s-81.167 -98.667 -145.5 -128s-142.833 -44 -235.5 -44c-85.333 0 -160.333 14.5 -225 43.5s-114.667 69.667 -150 122s-53 111.833 -53 178.5c0 44.667 6.83301 82 20.5 112s37.5 57.167 71.5 81.5s80 48.833 138 73.5
l313 125c60 24.667 90 56 90 94s-18.833 68.667 -56.5 92s-85.834 35 -144.501 35c-137.333 0 -210.333 -57.333 -219 -172h-184c0 74 17.5 137 52.5 189s82.333 90.5 142 115.5s127.167 37.5 202.5 37.5c58 0 111.833 -7.66699 161.5 -23s91.834 -36.666 126.501 -63.999
s61.334 -60.166 80.001 -98.499s28 -80.5 28 -126.5c0 -58.667 -14.333 -106.834 -43 -144.501s-77.334 -71.167 -146.001 -100.5l-336 -144c-39.333 -16.667 -66.166 -32.334 -80.499 -47.001s-21.5 -33.667 -21.5 -57c0 -46.667 21.5 -84.334 64.5 -113.001
s98.5 -43 166.5 -43c55.333 0 100.666 7.33301 135.999 22s61.333 37.834 78 69.501s25.334 71.5 26.001 119.5h192z" />
    <glyph glyph-name="quotedblbase" unicode="&#x433;" horiz-adv-x="1036" 
d="M915 350c0 -80.667 -16.334 -149 -49.001 -205s-81.167 -98.667 -145.5 -128s-142.833 -44 -235.5 -44c-85.333 0 -160.333 14.5 -225 43.5s-114.667 69.667 -150 122s-53 111.833 -53 178.5c0 44.667 6.83301 82 20.5 112s37.5 57.167 71.5 81.5s80 48.833 138 73.5
l313 125c60 24.667 90 56 90 94s-18.833 68.667 -56.5 92s-85.834 35 -144.501 35c-137.333 0 -210.333 -57.333 -219 -172h-184c0 74 17.5 137 52.5 189s82.333 90.5 142 115.5s127.167 37.5 202.5 37.5c58 0 111.833 -7.66699 161.5 -23s91.834 -36.666 126.501 -63.999
s61.334 -60.166 80.001 -98.499s28 -80.5 28 -126.5c0 -58.667 -14.333 -106.834 -43 -144.501s-77.334 -71.167 -146.001 -100.5l-336 -144c-39.333 -16.667 -66.166 -32.334 -80.499 -47.001s-21.5 -33.667 -21.5 -57c0 -46.667 21.5 -84.334 64.5 -113.001
s98.5 -43 166.5 -43c55.333 0 100.666 7.33301 135.999 22s61.333 37.834 78 69.501s25.334 71.5 26.001 119.5h192z" />
    <glyph glyph-name="perthousand" unicode="&#xe4;" horiz-adv-x="1081" 
d="M803 928v145.001h180v-907c0 -126 -11.333 -232.667 -34 -320s-67.667 -156.833 -135 -208.5s-164 -77.5 -290 -77.5c-86.667 0 -158.834 11.5 -216.501 34.5s-102.167 58 -133.5 105s-51.666 109.5 -60.999 187.5h184c14 -57.333 37.667 -97.833 71 -121.5
s84 -35.5 152 -35.5c66.667 0 119.5 12.333 158.5 37s67.167 65.667 84.5 123s26.666 137 27.999 239c-44 -56.667 -89.167 -96.834 -135.5 -120.501s-101.833 -35.5 -166.5 -35.5c-85.333 0 -159.5 21.833 -222.5 65.5s-111.167 106.667 -144.5 189s-50 179.833 -50 292.5
c0 116 17 218 51 306s83 155.667 147 203s138.667 71 224 71c46 0 87.333 -6.33301 124 -19s70.834 -32.167 102.501 -58.5s59.167 -57.833 82.5 -94.5zM268 535.001c0 -120.667 24.1689 -216.833 72.502 -288.5s113.166 -107.5 194.499 -107.5
c52.667 0 98.834 16.167 138.501 48.5s70.5 79 92.5 140s33 130.167 33 207.5c0 78.667 -11 148.334 -33 209.001s-52.833 106.834 -92.5 138.501s-85.834 47.5 -138.501 47.5s-99.334 -15.833 -140.001 -47.5s-72 -77.834 -94 -138.501s-33 -130.334 -33 -209.001z" />
    <glyph glyph-name="perthousand" unicode="&#x434;" horiz-adv-x="1081" 
d="M803 928v145.001h180v-907c0 -126 -11.333 -232.667 -34 -320s-67.667 -156.833 -135 -208.5s-164 -77.5 -290 -77.5c-86.667 0 -158.834 11.5 -216.501 34.5s-102.167 58 -133.5 105s-51.666 109.5 -60.999 187.5h184c14 -57.333 37.667 -97.833 71 -121.5
s84 -35.5 152 -35.5c66.667 0 119.5 12.333 158.5 37s67.167 65.667 84.5 123s26.666 137 27.999 239c-44 -56.667 -89.167 -96.834 -135.5 -120.501s-101.833 -35.5 -166.5 -35.5c-85.333 0 -159.5 21.833 -222.5 65.5s-111.167 106.667 -144.5 189s-50 179.833 -50 292.5
c0 116 17 218 51 306s83 155.667 147 203s138.667 71 224 71c46 0 87.333 -6.33301 124 -19s70.834 -32.167 102.501 -58.5s59.167 -57.833 82.5 -94.5zM268 535.001c0 -120.667 24.1689 -216.833 72.502 -288.5s113.166 -107.5 194.499 -107.5
c52.667 0 98.834 16.167 138.501 48.5s70.5 79 92.5 140s33 130.167 33 207.5c0 78.667 -11 148.334 -33 209.001s-52.833 106.834 -92.5 138.501s-85.834 47.5 -138.501 47.5s-99.334 -15.833 -140.001 -47.5s-72 -77.834 -94 -138.501s-33 -130.334 -33 -209.001z" />
    <glyph glyph-name="Acircumflex" unicode="&#xe5;" 
d="M1044 479l-780 0.000976562c15.333 -226.667 117 -340 305 -340c74.667 0 133.834 17.667 177.501 53s73.5 89.333 89.5 162h192c-24 -118.667 -77.5 -211.834 -160.5 -279.501s-185.167 -101.5 -306.5 -101.5c-100 0 -186.833 22.5 -260.5 67.5
s-130.167 109.833 -169.5 194.5s-59 184.667 -59 300c0 112 20.5 210.833 61.5 296.5s99.333 151.167 175 196.5s163.834 68 264.501 68c81.333 0 151.666 -13.5 210.999 -40.5s108.166 -64.667 146.499 -113s66.833 -104.5 85.5 -168.5s28 -135 28 -213v-82zM856 645.001
c-6 90 -33.999 160 -83.999 210s-117.667 75 -203 75c-168.667 0 -268.334 -95 -299.001 -285h586z" />
    <glyph glyph-name="Acircumflex" unicode="&#x435;" 
d="M1044 479l-780 0.000976562c15.333 -226.667 117 -340 305 -340c74.667 0 133.834 17.667 177.501 53s73.5 89.333 89.5 162h192c-24 -118.667 -77.5 -211.834 -160.5 -279.501s-185.167 -101.5 -306.5 -101.5c-100 0 -186.833 22.5 -260.5 67.5
s-130.167 109.833 -169.5 194.5s-59 184.667 -59 300c0 112 20.5 210.833 61.5 296.5s99.333 151.167 175 196.5s163.834 68 264.501 68c81.333 0 151.666 -13.5 210.999 -40.5s108.166 -64.667 146.499 -113s66.833 -104.5 85.5 -168.5s28 -135 28 -213v-82zM856 645.001
c-6 90 -33.999 160 -83.999 210s-117.667 75 -203 75c-168.667 0 -268.334 -95 -299.001 -285h586z" />
    <glyph glyph-name="Ecircumflex" unicode="&#xe6;" horiz-adv-x="1772" 
d="M772 0v412l-147 135l-316 -547h-227l420 674l-408 399h238l440 -432v432h184v-432l439 432h241l-411 -399l417 -674h-225l-317 547l-144 -135v-412h-184z" />
    <glyph glyph-name="Ecircumflex" unicode="&#x436;" horiz-adv-x="1772" 
d="M772 0v412l-147 135l-316 -547h-227l420 674l-408 399h238l440 -432v432h184v-432l439 432h241l-411 -399l417 -674h-225l-317 547l-144 -135v-412h-184z" />
    <glyph glyph-name="Aacute" unicode="&#xe7;" horiz-adv-x="1059" 
d="M502 -12c-86.667 0 -162.668 16.333 -228.001 49s-114.666 74.5 -147.999 125.5s-50 103.167 -50 156.5h203c0 -44 20.333 -84.333 61 -121s94.667 -55 162 -55c71.333 0 129.666 17.333 174.999 52s68 79 68 133c0 42.667 -16.333 79.167 -49 109.5
s-76.334 45.5 -131.001 45.5h-94v162h41c62.667 0 110.5 14.167 143.5 42.5s49.5 65.5 49.5 111.5c0 37.333 -17.167 66.833 -51.5 88.5s-81.5 32.5 -141.5 32.5c-35.333 0 -69.166 -5.83301 -101.499 -17.5s-58 -26.334 -77 -44.001s-28.5 -36.167 -28.5 -55.5h-180
c0 49.333 17.167 95.166 51.5 137.499s81.833 76.333 142.5 102s129 38.5 205 38.5c112.667 0 203 -24.667 271 -74s102 -112.666 102 -189.999c0 -55.333 -15.333 -103.833 -46 -145.5s-73.334 -74.5 -128.001 -98.5c46.667 -9.33301 86.834 -25.666 120.501 -48.999
s59.834 -52.833 78.501 -88.5s28 -75.167 28 -118.5c0 -56.667 -19.833 -110.5 -59.5 -161.5s-94 -91.667 -163 -122s-144.167 -45.5 -225.5 -45.5z" />
    <glyph glyph-name="Aacute" unicode="&#x437;" horiz-adv-x="1059" 
d="M502 -12c-86.667 0 -162.668 16.333 -228.001 49s-114.666 74.5 -147.999 125.5s-50 103.167 -50 156.5h203c0 -44 20.333 -84.333 61 -121s94.667 -55 162 -55c71.333 0 129.666 17.333 174.999 52s68 79 68 133c0 42.667 -16.333 79.167 -49 109.5
s-76.334 45.5 -131.001 45.5h-94v162h41c62.667 0 110.5 14.167 143.5 42.5s49.5 65.5 49.5 111.5c0 37.333 -17.167 66.833 -51.5 88.5s-81.5 32.5 -141.5 32.5c-35.333 0 -69.166 -5.83301 -101.499 -17.5s-58 -26.334 -77 -44.001s-28.5 -36.167 -28.5 -55.5h-180
c0 49.333 17.167 95.166 51.5 137.499s81.833 76.333 142.5 102s129 38.5 205 38.5c112.667 0 203 -24.667 271 -74s102 -112.666 102 -189.999c0 -55.333 -15.333 -103.833 -46 -145.5s-73.334 -74.5 -128.001 -98.5c46.667 -9.33301 86.834 -25.666 120.501 -48.999
s59.834 -52.833 78.501 -88.5s28 -75.167 28 -118.5c0 -56.667 -19.833 -110.5 -59.5 -161.5s-94 -91.667 -163 -122s-144.167 -45.5 -225.5 -45.5z" />
    <glyph glyph-name="Edieresis" unicode="&#xe8;" horiz-adv-x="1130" 
d="M131 1073l186.001 0.00195312v-682c0 -62.667 6.5 -112.5 19.5 -149.5s34.333 -63.333 64 -79s70.834 -23.5 123.501 -23.5c45.333 0 86.666 10 123.999 30s68.333 47.667 93 83c23.333 32 39.5 68.167 48.5 108.5s13.5 96.166 13.5 167.499v545h184v-1069h-174v166
c-22.667 -44.667 -50.834 -81.667 -84.501 -111s-71.5 -51 -113.5 -65s-87.333 -21 -136 -21c-128 0 -218 35.167 -270 105.5s-78 171.166 -78 302.499v692z" />
    <glyph glyph-name="Edieresis" unicode="&#x438;" horiz-adv-x="1130" 
d="M131 1073l186.001 0.00195312v-682c0 -62.667 6.5 -112.5 19.5 -149.5s34.333 -63.333 64 -79s70.834 -23.5 123.501 -23.5c45.333 0 86.666 10 123.999 30s68.333 47.667 93 83c23.333 32 39.5 68.167 48.5 108.5s13.5 96.166 13.5 167.499v545h184v-1069h-174v166
c-22.667 -44.667 -50.834 -81.667 -84.501 -111s-71.5 -51 -113.5 -65s-87.333 -21 -136 -21c-128 0 -218 35.167 -270 105.5s-78 171.166 -78 302.499v692z" />
    <glyph glyph-name="Egrave" unicode="&#xe9;" 
d="M131 1073l186.001 0.00195312v-682c0 -62.667 6.5 -112.5 19.5 -149.5s34.333 -63.333 64 -79s70.834 -23.5 123.501 -23.5c45.333 0 86.666 10 123.999 30s68.333 47.667 93 83c23.333 32 39.5 68.167 48.5 108.5s13.5 96.166 13.5 167.499v545h184v-1069h-174v166
c-22.667 -44.667 -50.834 -81.667 -84.501 -111s-71.5 -51 -113.5 -65s-87.333 -21 -136 -21c-128 0 -218 35.167 -270 105.5s-78 171.166 -78 302.499v692zM553.001 1225c-84 0 -149.332 24.501 -195.999 73.501s-70 103.5 -70 163.5h162c0 -20 8.66699 -41.333 26 -64
s43.333 -34 78 -34c34 0 58.833 11 74.5 33s23.5 43.667 23.5 65h160c0 -60.667 -21.833 -115.334 -65.5 -164.001s-107.834 -73 -192.501 -73z" />
    <glyph glyph-name="Egrave" unicode="&#x439;" 
d="M131 1073l186.001 0.00195312v-682c0 -62.667 6.5 -112.5 19.5 -149.5s34.333 -63.333 64 -79s70.834 -23.5 123.501 -23.5c45.333 0 86.666 10 123.999 30s68.333 47.667 93 83c23.333 32 39.5 68.167 48.5 108.5s13.5 96.166 13.5 167.499v545h184v-1069h-174v166
c-22.667 -44.667 -50.834 -81.667 -84.501 -111s-71.5 -51 -113.5 -65s-87.333 -21 -136 -21c-128 0 -218 35.167 -270 105.5s-78 171.166 -78 302.499v692zM553.001 1225c-84 0 -149.332 24.501 -195.999 73.501s-70 103.5 -70 163.5h162c0 -20 8.66699 -41.333 26 -64
s43.333 -34 78 -34c34 0 58.833 11 74.5 33s23.5 43.667 23.5 65h160c0 -60.667 -21.833 -115.334 -65.5 -164.001s-107.834 -73 -192.501 -73z" />
    <glyph glyph-name="Iacute" unicode="&#xea;" 
d="M131 1073h186v-432l437 432h241l-407 -399l418 -674h-226l-317 547l-146 -135v-412h-186v1073z" />
    <glyph glyph-name="Iacute" unicode="&#x43a;" 
d="M131 1073h186v-432l437 432h241l-407 -399l418 -674h-226l-317 547l-146 -135v-412h-186v1073z" />
    <glyph glyph-name="Icircumflex" unicode="&#xeb;" 
d="M1006 1073v-1073h-189v561c0 66.667 -0.666992 110.5 -2 131.5s-6.66602 45.5 -15.999 73.5c-10 32 -27.333 60.5 -52 85.5s-54 44.333 -88 58s-71.333 20.5 -112 20.5c-53.333 0 -95.333 -9 -126 -27s-53.167 -47.5 -67.5 -88.5s-21.5 -95.5 -21.5 -163.5v-651h-185v682
c0 60 2 104.667 6 134s11.667 59.666 23 90.999c13.333 38 35.333 71.667 66 101s67 52 109 68s88 24 138 24c71.333 0 131.166 -12.5 179.499 -37.5s97.833 -69.167 148.5 -132.5v143h189z" />
    <glyph glyph-name="Icircumflex" unicode="&#x43b;" 
d="M1006 1073v-1073h-189v561c0 66.667 -0.666992 110.5 -2 131.5s-6.66602 45.5 -15.999 73.5c-10 32 -27.333 60.5 -52 85.5s-54 44.333 -88 58s-71.333 20.5 -112 20.5c-53.333 0 -95.333 -9 -126 -27s-53.167 -47.5 -67.5 -88.5s-21.5 -95.5 -21.5 -163.5v-651h-185v682
c0 60 2 104.667 6 134s11.667 59.666 23 90.999c13.333 38 35.333 71.667 66 101s67 52 109 68s88 24 138 24c71.333 0 131.166 -12.5 179.499 -37.5s97.833 -69.167 148.5 -132.5v143h189z" />
    <glyph glyph-name="Idieresis" unicode="&#xec;" horiz-adv-x="1470" 
d="M735 225l422 848h184v-1073h-184v686l-323 -686h-189l-328 686v-686h-186v1073h186z" />
    <glyph glyph-name="Idieresis" unicode="&#x43c;" horiz-adv-x="1470" 
d="M735 225l422 848h184v-1073h-184v686l-323 -686h-189l-328 686v-686h-186v1073h186z" />
    <glyph glyph-name="Igrave" unicode="&#xed;" horiz-adv-x="1104" 
d="M317 479v-479h-186v1073h186v-428h486v428h184v-1073h-184v479h-486z" />
    <glyph glyph-name="Igrave" unicode="&#x43d;" horiz-adv-x="1104" 
d="M317 479v-479h-186v1073h186v-428h486v428h184v-1073h-184v479h-486z" />
    <glyph glyph-name="Oacute" unicode="&#xee;" horiz-adv-x="1198" 
d="M72 535c0 86.667 11.332 165.667 33.999 237s54.834 131 96.501 179s92.334 84.833 152.001 110.5s127.167 38.5 202.5 38.5c100.667 0 187.667 -22.5 261 -67.5s129.333 -110 168 -195s58 -185.833 58 -302.5c0 -116 -19.167 -216.167 -57.5 -300.5
s-94.333 -149 -168 -194s-160.834 -67.5 -261.501 -67.5c-74.667 0 -142 12.833 -202 38.5s-111 62.667 -153 111s-74.167 107.833 -96.5 178.5s-33.5 148.667 -33.5 234zM267.999 535c0 -82.667 11.5 -153.668 34.5 -213.001s56.167 -104.666 99.5 -135.999s95 -47 155 -47
c92.667 0 164.334 35.333 215.001 106s76 170 76 298c0 80.667 -11.333 150 -34 208s-56.167 102.333 -100.5 133s-96.5 46 -156.5 46s-111.833 -15.5 -155.5 -46.5s-76.834 -75.833 -99.501 -134.5s-34 -130 -34 -214z" />
    <glyph glyph-name="Oacute" unicode="&#x43e;" horiz-adv-x="1198" 
d="M72 535c0 86.667 11.332 165.667 33.999 237s54.834 131 96.501 179s92.334 84.833 152.001 110.5s127.167 38.5 202.5 38.5c100.667 0 187.667 -22.5 261 -67.5s129.333 -110 168 -195s58 -185.833 58 -302.5c0 -116 -19.167 -216.167 -57.5 -300.5
s-94.333 -149 -168 -194s-160.834 -67.5 -261.501 -67.5c-74.667 0 -142 12.833 -202 38.5s-111 62.667 -153 111s-74.167 107.833 -96.5 178.5s-33.5 148.667 -33.5 234zM267.999 535c0 -82.667 11.5 -153.668 34.5 -213.001s56.167 -104.666 99.5 -135.999s95 -47 155 -47
c92.667 0 164.334 35.333 215.001 106s76 170 76 298c0 80.667 -11.333 150 -34 208s-56.167 102.333 -100.5 133s-96.5 46 -156.5 46s-111.833 -15.5 -155.5 -46.5s-76.834 -75.833 -99.501 -134.5s-34 -130 -34 -214z" />
    <glyph glyph-name="Ocircumflex" unicode="&#xef;" horiz-adv-x="1104" 
d="M131 1073l186 0.00195312v-143c54.667 64.667 105.5 109.167 152.5 133.5s106.167 36.5 177.5 36.5c74 0 139.833 -17.5 197.5 -52.5s96.5 -81.833 116.5 -140.5c11.333 -32.667 18.5 -62 21.5 -88s4.5 -71.667 4.5 -137v-682h-184v651
c0 67.333 -7.16699 121.5 -21.5 162.5s-36.833 70.667 -67.5 89s-71.334 27.5 -122.001 27.5c-40.667 0 -78.167 -6.83301 -112.5 -20.5s-63.666 -32.834 -87.999 -57.501s-41.5 -53.334 -51.5 -86.001c-10.667 -28 -17.167 -52.5 -19.5 -73.5s-3.5 -64.833 -3.5 -131.5
v-561h-186v1073z" />
    <glyph glyph-name="Ocircumflex" unicode="&#x43f;" horiz-adv-x="1104" 
d="M131 1073l186 0.00195312v-143c54.667 64.667 105.5 109.167 152.5 133.5s106.167 36.5 177.5 36.5c74 0 139.833 -17.5 197.5 -52.5s96.5 -81.833 116.5 -140.5c11.333 -32.667 18.5 -62 21.5 -88s4.5 -71.667 4.5 -137v-682h-184v651
c0 67.333 -7.16699 121.5 -21.5 162.5s-36.833 70.667 -67.5 89s-71.334 27.5 -122.001 27.5c-40.667 0 -78.167 -6.83301 -112.5 -20.5s-63.666 -32.834 -87.999 -57.501s-41.5 -53.334 -51.5 -86.001c-10.667 -28 -17.167 -52.5 -19.5 -73.5s-3.5 -64.833 -3.5 -131.5
v-561h-186v1073z" />
    <glyph glyph-name="apple" unicode="&#xf0;" horiz-adv-x="1171" 
d="M131 1073l185.998 0.000976562v-127c48.667 56.667 96.167 96.5 142.5 119.5s101.5 34.5 165.5 34.5c65.333 0 124.333 -12.667 177 -38s96.834 -61.833 132.501 -109.5s62.834 -105.834 81.501 -174.501s28 -145.667 28 -231c0 -116.667 -17.333 -218 -52 -304
s-84.334 -152.5 -149.001 -199.5s-139.667 -70.5 -225 -70.5c-64.667 0 -120.167 11 -166.5 33s-91.166 57.667 -134.499 107v-527h-186v1487zM579.998 930.001c-84.667 0 -151 -35 -199 -105s-72 -166.667 -72 -290c0 -82 11 -152.667 33 -212s53.5 -104.833 94.5 -136.5
s88.833 -47.5 143.5 -47.5s102.167 16 142.5 48s71.333 77.5 93 136.5s32.5 129.5 32.5 211.5c0 123.333 -23.667 220 -71 290s-113 105 -197 105z" />
    <glyph glyph-name="apple" unicode="&#x440;" horiz-adv-x="1171" 
d="M131 1073l185.998 0.000976562v-127c48.667 56.667 96.167 96.5 142.5 119.5s101.5 34.5 165.5 34.5c65.333 0 124.333 -12.667 177 -38s96.834 -61.833 132.501 -109.5s62.834 -105.834 81.501 -174.501s28 -145.667 28 -231c0 -116.667 -17.333 -218 -52 -304
s-84.334 -152.5 -149.001 -199.5s-139.667 -70.5 -225 -70.5c-64.667 0 -120.167 11 -166.5 33s-91.166 57.667 -134.499 107v-527h-186v1487zM579.998 930.001c-84.667 0 -151 -35 -199 -105s-72 -166.667 -72 -290c0 -82 11 -152.667 33 -212s53.5 -104.833 94.5 -136.5
s88.833 -47.5 143.5 -47.5s102.167 16 142.5 48s71.333 77.5 93 136.5s32.5 129.5 32.5 211.5c0 123.333 -23.667 220 -71 290s-113 105 -197 105z" />
    <glyph glyph-name="Ograve" unicode="&#xf1;" 
d="M817 385h193c-6.66699 -56.667 -16.167 -104 -28.5 -142s-30.166 -72.667 -53.499 -104c-94 -116 -213.667 -174 -359 -174c-158.667 0 -281.167 48.5 -367.5 145.5s-129.5 233.5 -129.5 409.5c0 121.333 19.667 225.5 59 312.5s96.166 153.333 170.499 199
s162.166 68.5 263.499 68.5c81.333 0 154 -16 218 -48s115.333 -77.833 154 -137.5s63 -131.167 73 -214.5h-193c-14 74 -43.167 130.833 -87.5 170.5s-99.166 59.5 -164.499 59.5c-60 0 -112.5 -15 -157.5 -45s-79.5 -73.667 -103.5 -131s-36 -126.333 -36 -207
c0 -130.667 26 -232 78 -304s125 -108 219 -108c130 0 214 83.333 252 250z" />
    <glyph glyph-name="Ograve" unicode="&#x441;" 
d="M817 385h193c-6.66699 -56.667 -16.167 -104 -28.5 -142s-30.166 -72.667 -53.499 -104c-94 -116 -213.667 -174 -359 -174c-158.667 0 -281.167 48.5 -367.5 145.5s-129.5 233.5 -129.5 409.5c0 121.333 19.667 225.5 59 312.5s96.166 153.333 170.499 199
s162.166 68.5 263.499 68.5c81.333 0 154 -16 218 -48s115.333 -77.833 154 -137.5s63 -131.167 73 -214.5h-193c-14 74 -43.167 130.833 -87.5 170.5s-99.166 59.5 -164.499 59.5c-60 0 -112.5 -15 -157.5 -45s-79.5 -73.667 -103.5 -131s-36 -126.333 -36 -207
c0 -130.667 26 -232 78 -304s125 -108 219 -108c130 0 214 83.333 252 250z" />
    <glyph glyph-name="Uacute" unicode="&#xf2;" horiz-adv-x="1655" 
d="M131 1073h185.999v-135c56.667 60.667 107.5 102.834 152.5 126.501s98.167 35.5 159.5 35.5c63.333 0 115.5 -12.5 156.5 -37.5s78.167 -66.5 111.5 -124.5c56.667 60.667 108.167 102.834 154.5 126.501s101.5 35.5 165.5 35.5c216.667 0 325 -123 325 -369v-731h-186
v700c0 80 -14.333 138.333 -43 175s-74.334 55 -137.001 55c-48.667 0 -94.5 -14 -137.5 -42s-71.167 -64 -84.5 -108c-10.667 -21.333 -17.667 -46.833 -21 -76.5s-5 -74.5 -5 -134.5v-569h-187v674c0 65.333 -4.5 116.666 -13.5 153.999s-24.667 63.666 -47 78.999
s-54.5 23 -96.5 23c-56 0 -106.667 -15.667 -152 -47s-78.666 -74.333 -99.999 -129c-7.33301 -22 -11.666 -42.167 -12.999 -60.5s-2 -58.5 -2 -120.5v-573h-186v1073z" />
    <glyph glyph-name="Uacute" unicode="&#x442;" horiz-adv-x="1655" 
d="M131 1073h185.999v-135c56.667 60.667 107.5 102.834 152.5 126.501s98.167 35.5 159.5 35.5c63.333 0 115.5 -12.5 156.5 -37.5s78.167 -66.5 111.5 -124.5c56.667 60.667 108.167 102.834 154.5 126.501s101.5 35.5 165.5 35.5c216.667 0 325 -123 325 -369v-731h-186
v700c0 80 -14.333 138.333 -43 175s-74.334 55 -137.001 55c-48.667 0 -94.5 -14 -137.5 -42s-71.167 -64 -84.5 -108c-10.667 -21.333 -17.667 -46.833 -21 -76.5s-5 -74.5 -5 -134.5v-569h-187v674c0 65.333 -4.5 116.666 -13.5 153.999s-24.667 63.666 -47 78.999
s-54.5 23 -96.5 23c-56 0 -106.667 -15.667 -152 -47s-78.666 -74.333 -99.999 -129c-7.33301 -22 -11.666 -42.167 -12.999 -60.5s-2 -58.5 -2 -120.5v-573h-186v1073z" />
    <glyph glyph-name="Ucircumflex" unicode="&#xf3;" horiz-adv-x="1081" 
d="M223 1073l285.001 -850l283 850h200l-430 -1194c-30 -75.333 -54.333 -131.5 -73 -168.5s-46.334 -71.333 -83.001 -103s-82.334 -47.5 -137.001 -47.5c-47.333 0 -97.666 6 -150.999 18v174c45.333 -14.667 81.333 -22 108 -22c30 0 54.333 5.83301 73 17.5
s36.667 35.5 54 71.5s37.333 90.333 60 163l-398 1091h209z" />
    <glyph glyph-name="Ucircumflex" unicode="&#x443;" horiz-adv-x="1081" 
d="M223 1073l285.001 -850l283 850h200l-430 -1194c-30 -75.333 -54.333 -131.5 -73 -168.5s-46.334 -71.333 -83.001 -103s-82.334 -47.5 -137.001 -47.5c-47.333 0 -97.666 6 -150.999 18v174c45.333 -14.667 81.333 -22 108 -22c30 0 54.333 5.83301 73 17.5
s36.667 35.5 54 71.5s37.333 90.333 60 163l-398 1091h209z" />
    <glyph glyph-name="Ugrave" unicode="&#xf4;" horiz-adv-x="1817" 
d="M795 -414l0.00195312 527c-40.667 -48.667 -84.667 -84.167 -132 -106.5s-103.666 -33.5 -168.999 -33.5c-85.333 0 -160.333 23.5 -225 70.5s-114.334 113.5 -149.001 199.5s-52 187.333 -52 304c0 114.667 16.667 213.5 50 296.5s81.5 146.5 144.5 190.5
s137.167 66 222.5 66c65.333 0 122 -11.833 170 -35.5s94.667 -63.167 140 -118.5v520h184v-520c48 56 95.5 95.667 142.5 119s102.5 35 166.5 35c132 0 235 -48.833 309 -146.5s111 -233.167 111 -406.5c0 -116.667 -17.5 -218 -52.5 -304s-84.833 -152.5 -149.5 -199.5
s-139.334 -70.5 -224.001 -70.5c-64.667 0 -120.334 11.167 -167.001 33.5s-92 57.833 -136 106.5v-527h-184zM535.002 930c-86 0 -152.667 -34.668 -200 -104.001s-71 -166.333 -71 -291c0 -123.333 23.833 -220.166 71.5 -290.499s114.167 -105.5 199.5 -105.5
c55.333 0 103.333 16 144 48s71.5 78 92.5 138s31.5 130 31.5 210c0 125.333 -23.333 222.5 -70 291.5s-112.667 103.5 -198 103.5zM1239 929.999c-83.333 0 -148.5 -34.833 -195.5 -104.5s-70.5 -166.5 -70.5 -290.5c0 -81.333 10.667 -151.666 32 -210.999
s52 -105 92 -137s87.333 -48 142 -48c84.667 0 151.167 35.167 199.5 105.5s72.5 167.166 72.5 290.499c0 124.667 -24 221.667 -72 291s-114.667 104 -200 104z" />
    <glyph glyph-name="Ugrave" unicode="&#x444;" horiz-adv-x="1817" 
d="M795 -414l0.00195312 527c-40.667 -48.667 -84.667 -84.167 -132 -106.5s-103.666 -33.5 -168.999 -33.5c-85.333 0 -160.333 23.5 -225 70.5s-114.334 113.5 -149.001 199.5s-52 187.333 -52 304c0 114.667 16.667 213.5 50 296.5s81.5 146.5 144.5 190.5
s137.167 66 222.5 66c65.333 0 122 -11.833 170 -35.5s94.667 -63.167 140 -118.5v520h184v-520c48 56 95.5 95.667 142.5 119s102.5 35 166.5 35c132 0 235 -48.833 309 -146.5s111 -233.167 111 -406.5c0 -116.667 -17.5 -218 -52.5 -304s-84.833 -152.5 -149.5 -199.5
s-139.334 -70.5 -224.001 -70.5c-64.667 0 -120.334 11.167 -167.001 33.5s-92 57.833 -136 106.5v-527h-184zM535.002 930c-86 0 -152.667 -34.668 -200 -104.001s-71 -166.333 -71 -291c0 -123.333 23.833 -220.166 71.5 -290.499s114.167 -105.5 199.5 -105.5
c55.333 0 103.333 16 144 48s71.5 78 92.5 138s31.5 130 31.5 210c0 125.333 -23.333 222.5 -70 291.5s-112.667 103.5 -198 103.5zM1239 929.999c-83.333 0 -148.5 -34.833 -195.5 -104.5s-70.5 -166.5 -70.5 -290.5c0 -81.333 10.667 -151.666 32 -210.999
s52 -105 92 -137s87.333 -48 142 -48c84.667 0 151.167 35.167 199.5 105.5s72.5 167.166 72.5 290.499c0 124.667 -24 221.667 -72 291s-114.667 104 -200 104z" />
    <glyph glyph-name="dotlessi" unicode="&#xf5;" horiz-adv-x="1081" 
d="M385 551l-350 522h229l234 -373l241 373h230l-355 -512l377 -561h-237l-256 412l-260 -412h-224z" />
    <glyph glyph-name="dotlessi" unicode="&#x445;" horiz-adv-x="1081" 
d="M385 551l-350 522h229l234 -373l241 373h230l-355 -512l377 -561h-237l-256 412l-260 -412h-224z" />
    <glyph glyph-name="circumflex" unicode="&#xf6;" horiz-adv-x="1239" 
d="M977 4l-163.999 0.00195312v166c-22.667 -44.667 -50.834 -81.667 -84.501 -111s-71.5 -51 -113.5 -65s-87.333 -21 -136 -21c-128 0 -218 35.167 -270 105.5s-78 171.166 -78 302.499v692h186v-682c0 -62.667 6.5 -112.5 19.5 -149.5s34.333 -63.333 64 -79
s70.834 -23.5 123.501 -23.5c45.333 0 86.666 10 123.999 30s68.333 47.667 93 83c23.333 32 39.5 68.167 48.5 108.5s13.5 96.166 13.5 167.499v545h184v-903h162v-438h-172v272z" />
    <glyph glyph-name="circumflex" unicode="&#x446;" horiz-adv-x="1239" 
d="M977 4l-163.999 0.00195312v166c-22.667 -44.667 -50.834 -81.667 -84.501 -111s-71.5 -51 -113.5 -65s-87.333 -21 -136 -21c-128 0 -218 35.167 -270 105.5s-78 171.166 -78 302.499v692h186v-682c0 -62.667 6.5 -112.5 19.5 -149.5s34.333 -63.333 64 -79
s70.834 -23.5 123.501 -23.5c45.333 0 86.666 10 123.999 30s68.333 47.667 93 83c23.333 32 39.5 68.167 48.5 108.5s13.5 96.166 13.5 167.499v545h184v-903h162v-438h-172v272z" />
    <glyph glyph-name="tilde" unicode="&#xf7;" horiz-adv-x="1104" 
d="M131 1073h185.998v-289c0 -94 15.333 -159.833 46 -197.5s84.334 -56.5 161.001 -56.5c93.333 0 165.666 38.333 216.999 115c23.333 30.667 39.5 66 48.5 106s13.5 94.667 13.5 164v158h184v-1069h-174v553c-65.333 -130 -176.666 -195 -333.999 -195
c-65.333 0 -120.833 9.83301 -166.5 29.5s-81.667 47.667 -108 84s-45.166 79.333 -56.499 129s-17 105.5 -17 167.5v301z" />
    <glyph glyph-name="tilde" unicode="&#x447;" horiz-adv-x="1104" 
d="M131 1073h185.998v-289c0 -94 15.333 -159.833 46 -197.5s84.334 -56.5 161.001 -56.5c93.333 0 165.666 38.333 216.999 115c23.333 30.667 39.5 66 48.5 106s13.5 94.667 13.5 164v158h184v-1069h-174v553c-65.333 -130 -176.666 -195 -333.999 -195
c-65.333 0 -120.833 9.83301 -166.5 29.5s-81.667 47.667 -108 84s-45.166 79.333 -56.499 129s-17 105.5 -17 167.5v301z" />
    <glyph glyph-name="macron" unicode="&#xf8;" horiz-adv-x="1614" 
d="M1516 0l-184.999 0.000976562v131c-58 -60 -109.333 -101.333 -154 -124s-97.667 -34 -159 -34c-41.333 0 -78.333 5.16699 -111 15.5s-61.667 27.166 -87 50.499s-48.666 54 -69.999 92c-26.667 -28.667 -52.334 -53.167 -77.001 -73.5s-49.167 -36.5 -73.5 -48.5
s-51.166 -21 -80.499 -27s-59 -9 -89 -9c-216 0 -324 123 -324 369v731h185v-700c0 -78.667 14.667 -137.334 44 -176.001s74.666 -58 135.999 -58c31.333 0 62.666 6.83301 93.999 20.5s58.5 32.334 81.5 56.001s38.833 50.167 47.5 79.5
c11.333 22.667 18.333 46.167 21 70.5s4 69.833 4 136.5v571h186v-674c0 -66 4.5 -117.833 13.5 -155.5s25.167 -64.5 48.5 -80.5s56.666 -24 99.999 -24c54.667 0 104.834 16.167 150.501 48.5s78.167 75.5 97.5 129.5c8 23.333 12.667 44 14 62s2 57.667 2 119v575h185
v-1073z" />
    <glyph glyph-name="macron" unicode="&#x448;" horiz-adv-x="1614" 
d="M1516 0l-184.999 0.000976562v131c-58 -60 -109.333 -101.333 -154 -124s-97.667 -34 -159 -34c-41.333 0 -78.333 5.16699 -111 15.5s-61.667 27.166 -87 50.499s-48.666 54 -69.999 92c-26.667 -28.667 -52.334 -53.167 -77.001 -73.5s-49.167 -36.5 -73.5 -48.5
s-51.166 -21 -80.499 -27s-59 -9 -89 -9c-216 0 -324 123 -324 369v731h185v-700c0 -78.667 14.667 -137.334 44 -176.001s74.666 -58 135.999 -58c31.333 0 62.666 6.83301 93.999 20.5s58.5 32.334 81.5 56.001s38.833 50.167 47.5 79.5
c11.333 22.667 18.333 46.167 21 70.5s4 69.833 4 136.5v571h186v-674c0 -66 4.5 -117.833 13.5 -155.5s25.167 -64.5 48.5 -80.5s56.666 -24 99.999 -24c54.667 0 104.834 16.167 150.501 48.5s78.167 75.5 97.5 129.5c8 23.333 12.667 44 14 62s2 57.667 2 119v575h185
v-1073z" />
    <glyph glyph-name="breve" unicode="&#xf9;" horiz-adv-x="1772" 
d="M1503 0l-171.999 0.000976562v131c-58 -60 -109.333 -101.333 -154 -124s-97.667 -34 -159 -34c-41.333 0 -78.333 5.16699 -111 15.5s-61.667 27.166 -87 50.499s-48.666 54 -69.999 92c-26.667 -28.667 -52.334 -53.167 -77.001 -73.5s-49.167 -36.5 -73.5 -48.5
s-51.166 -21 -80.499 -27s-59 -9 -89 -9c-216 0 -324 123 -324 369v731h185v-700c0 -78.667 14.667 -137.334 44 -176.001s74.666 -58 135.999 -58c31.333 0 62.666 6.83301 93.999 20.5s58.5 32.334 81.5 56.001s38.833 50.167 47.5 79.5
c11.333 22.667 18.333 46.167 21 70.5s4 69.833 4 136.5v571h186v-674c0 -66 4.5 -117.833 13.5 -155.5s25.167 -64.5 48.5 -80.5s56.666 -24 99.999 -24c54.667 0 104.834 16.167 150.501 48.5s78.167 75.5 97.5 129.5c8 23.333 12.667 44 14 62s2 57.667 2 119v575h185
v-903h161v-438h-174v268z" />
    <glyph glyph-name="breve" unicode="&#x449;" horiz-adv-x="1772" 
d="M1503 0l-171.999 0.000976562v131c-58 -60 -109.333 -101.333 -154 -124s-97.667 -34 -159 -34c-41.333 0 -78.333 5.16699 -111 15.5s-61.667 27.166 -87 50.499s-48.666 54 -69.999 92c-26.667 -28.667 -52.334 -53.167 -77.001 -73.5s-49.167 -36.5 -73.5 -48.5
s-51.166 -21 -80.499 -27s-59 -9 -89 -9c-216 0 -324 123 -324 369v731h185v-700c0 -78.667 14.667 -137.334 44 -176.001s74.666 -58 135.999 -58c31.333 0 62.666 6.83301 93.999 20.5s58.5 32.334 81.5 56.001s38.833 50.167 47.5 79.5
c11.333 22.667 18.333 46.167 21 70.5s4 69.833 4 136.5v571h186v-674c0 -66 4.5 -117.833 13.5 -155.5s25.167 -64.5 48.5 -80.5s56.666 -24 99.999 -24c54.667 0 104.834 16.167 150.501 48.5s78.167 75.5 97.5 129.5c8 23.333 12.667 44 14 62s2 57.667 2 119v575h185
v-903h161v-438h-174v268z" />
    <glyph glyph-name="dotaccent" unicode="&#xfa;" horiz-adv-x="1470" 
d="M121 1073l557.001 0.000976562v-428h350c47.333 0 93.333 -7.33301 138 -22s84.167 -35.834 118.5 -63.501s62 -62.167 83 -103.5s31.5 -87 31.5 -137c0 -46.667 -9.83301 -89.667 -29.5 -129s-45.834 -73 -78.501 -101s-68.667 -49.833 -108 -65.5s-78 -23.5 -116 -23.5
h-573v905h-373v168zM1022 483.001l-343.999 -0.000976562v-317h350c51.333 0 93.166 14.333 125.499 43s48.5 65.334 48.5 110.001c0 28 -7.33301 54.5 -22 79.5s-35.5 45.333 -62.5 61s-58.833 23.5 -95.5 23.5z" />
    <glyph glyph-name="dotaccent" unicode="&#x44a;" horiz-adv-x="1470" 
d="M121 1073l557.001 0.000976562v-428h350c47.333 0 93.333 -7.33301 138 -22s84.167 -35.834 118.5 -63.501s62 -62.167 83 -103.5s31.5 -87 31.5 -137c0 -46.667 -9.83301 -89.667 -29.5 -129s-45.834 -73 -78.501 -101s-68.667 -49.833 -108 -65.5s-78 -23.5 -116 -23.5
h-573v905h-373v168zM1022 483.001l-343.999 -0.000976562v-317h350c51.333 0 93.166 14.333 125.499 43s48.5 65.334 48.5 110.001c0 28 -7.33301 54.5 -22 79.5s-35.5 45.333 -62.5 61s-58.833 23.5 -95.5 23.5z" />
    <glyph glyph-name="ring" unicode="&#xfb;" horiz-adv-x="1520" 
d="M705 0h-573.997v1073h186v-428h351c48 0 94 -7.33301 138 -22s83 -35.667 117 -63s61.333 -61.333 82 -102s31 -87 31 -139c0 -46.667 -9.83301 -89.5 -29.5 -128.5s-45.834 -72.833 -78.501 -101.5s-68.334 -50.667 -107.001 -66s-77.334 -23 -116.001 -23zM1401 0h-184
v1073h184v-1073zM659.003 483l-342 -0.00292969v-317h351c50 0 91.167 14.333 123.5 43s48.5 65.334 48.5 110.001c0 28.667 -7.33301 55.334 -22 80.001s-35.667 44.834 -63 60.501s-59.333 23.5 -96 23.5z" />
    <glyph glyph-name="ring" unicode="&#x44b;" horiz-adv-x="1520" 
d="M705 0h-573.997v1073h186v-428h351c48 0 94 -7.33301 138 -22s83 -35.667 117 -63s61.333 -61.333 82 -102s31 -87 31 -139c0 -46.667 -9.83301 -89.5 -29.5 -128.5s-45.834 -72.833 -78.501 -101.5s-68.334 -50.667 -107.001 -66s-77.334 -23 -116.001 -23zM1401 0h-184
v1073h184v-1073zM659.003 483l-342 -0.00292969v-317h351c50 0 91.167 14.333 123.5 43s48.5 65.334 48.5 110.001c0 28.667 -7.33301 55.334 -22 80.001s-35.667 44.834 -63 60.501s-59.333 23.5 -96 23.5z" />
    <glyph glyph-name="cedilla" unicode="&#xfc;" 
d="M705 0h-573.997v1073h186v-428h351c60 0 118.333 -13.5 175 -40.5s103 -65.333 139 -115s54 -106.5 54 -170.5c0 -46.667 -9.83301 -89.5 -29.5 -128.5s-45.834 -72.833 -78.501 -101.5s-68.334 -50.667 -107.001 -66s-77.334 -23 -116.001 -23zM659.003 483
l-342 -0.00292969v-317h351c50 0 91.167 14.333 123.5 43s48.5 65.334 48.5 110.001c0 28.667 -7.33301 55.334 -22 80.001s-35.667 44.834 -63 60.501s-59.333 23.5 -96 23.5z" />
    <glyph glyph-name="cedilla" unicode="&#x44c;" 
d="M705 0h-573.997v1073h186v-428h351c60 0 118.333 -13.5 175 -40.5s103 -65.333 139 -115s54 -106.5 54 -170.5c0 -46.667 -9.83301 -89.5 -29.5 -128.5s-45.834 -72.833 -78.501 -101.5s-68.334 -50.667 -107.001 -66s-77.334 -23 -116.001 -23zM659.003 483
l-342 -0.00292969v-317h351c50 0 91.167 14.333 123.5 43s48.5 65.334 48.5 110.001c0 28.667 -7.33301 55.334 -22 80.001s-35.667 44.834 -63 60.501s-59.333 23.5 -96 23.5z" />
    <glyph glyph-name="hungarumlaut" unicode="&#xfd;" horiz-adv-x="1104" 
d="M807 479l-343.999 -0.000976562v166h340c-13.333 90 -42.833 160 -88.5 210s-107.167 75 -184.5 75c-64.667 0 -121.334 -20 -170.001 -60s-82 -96.667 -100 -170h-188c10 80.667 35.5 151.834 76.5 213.501s94.333 108.834 160 141.501s139.5 49 221.5 49
c153.333 0 271.666 -51 354.999 -153s125 -245.667 125 -431c0 -176 -43.667 -312.5 -131 -409.5s-211 -145.5 -371 -145.5c-142 0 -260 58 -354 174c-25.333 36 -44.166 72.167 -56.499 108.5s-20.833 82.166 -25.5 137.499h188c21.333 -81.333 53 -143.333 95 -186
s94.333 -64 157 -64c87.333 0 156.333 29.667 207 89s80 144.333 88 255z" />
    <glyph glyph-name="hungarumlaut" unicode="&#x44d;" horiz-adv-x="1104" 
d="M807 479l-343.999 -0.000976562v166h340c-13.333 90 -42.833 160 -88.5 210s-107.167 75 -184.5 75c-64.667 0 -121.334 -20 -170.001 -60s-82 -96.667 -100 -170h-188c10 80.667 35.5 151.834 76.5 213.501s94.333 108.834 160 141.501s139.5 49 221.5 49
c153.333 0 271.666 -51 354.999 -153s125 -245.667 125 -431c0 -176 -43.667 -312.5 -131 -409.5s-211 -145.5 -371 -145.5c-142 0 -260 58 -354 174c-25.333 36 -44.166 72.167 -56.499 108.5s-20.833 82.166 -25.5 137.499h188c21.333 -81.333 53 -143.333 95 -186
s94.333 -64 157 -64c87.333 0 156.333 29.667 207 89s80 144.333 88 255z" />
    <glyph glyph-name="ogonek" unicode="&#xfe;" horiz-adv-x="1565" 
d="M494 479l-177 0.000976562v-479h-186v1073h186v-428h177c10.667 93.333 37.334 174.333 80.001 243s98.834 121.167 168.501 157.5s148.5 54.5 236.5 54.5c100.667 0 187.667 -22.5 261 -67.5s129.333 -110 168 -195s58 -185.833 58 -302.5
c0 -116 -19.167 -216.167 -57.5 -300.5s-94.333 -149 -168 -194s-160.834 -67.5 -261.501 -67.5c-70.667 0 -134.834 11.5 -192.501 34.5s-107.834 57.167 -150.501 102.5s-75.667 98.166 -99 158.499s-37.666 130.5 -42.999 210.5zM690 535.001
c0 -82.667 11.502 -153.668 34.502 -213.001s56.167 -104.666 99.5 -135.999s95 -47 155 -47c93.333 0 165.166 35.167 215.499 105.5s75.5 169.833 75.5 298.5c0 80.667 -11.333 150 -34 208s-56.167 102.333 -100.5 133s-96.5 46 -156.5 46s-111.833 -15.5 -155.5 -46.5
s-76.834 -75.833 -99.501 -134.5s-34 -130 -34 -214z" />
    <glyph glyph-name="ogonek" unicode="&#x44e;" horiz-adv-x="1565" 
d="M494 479l-177 0.000976562v-479h-186v1073h186v-428h177c10.667 93.333 37.334 174.333 80.001 243s98.834 121.167 168.501 157.5s148.5 54.5 236.5 54.5c100.667 0 187.667 -22.5 261 -67.5s129.333 -110 168 -195s58 -185.833 58 -302.5
c0 -116 -19.167 -216.167 -57.5 -300.5s-94.333 -149 -168 -194s-160.834 -67.5 -261.501 -67.5c-70.667 0 -134.834 11.5 -192.501 34.5s-107.834 57.167 -150.501 102.5s-75.667 98.166 -99 158.499s-37.666 130.5 -42.999 210.5zM690 535.001
c0 -82.667 11.502 -153.668 34.502 -213.001s56.167 -104.666 99.5 -135.999s95 -47 155 -47c93.333 0 165.166 35.167 215.499 105.5s75.5 169.833 75.5 298.5c0 80.667 -11.333 150 -34 208s-56.167 102.333 -100.5 133s-96.5 46 -156.5 46s-111.833 -15.5 -155.5 -46.5
s-76.834 -75.833 -99.501 -134.5s-34 -130 -34 -214z" />
    <glyph glyph-name="caron" unicode="&#xff;" horiz-adv-x="1171" 
d="M180 332c0 68 13.001 120.833 39.001 158.5s68.333 65.167 127 82.5c-60.667 26 -105.834 57.5 -135.501 94.5s-44.5 83.5 -44.5 139.5c0 72.667 28.333 135.167 85 187.5s140.334 78.5 251.001 78.5h526v-1073h-184v483h-342c-51.333 0 -87 -16.167 -107 -48.5
s-30 -71.5 -30 -117.5c0 -46.667 -5 -104 -15 -172s-21 -116.333 -33 -145h-188c17.333 44 30.166 97.833 38.499 161.5s12.5 120.5 12.5 170.5zM508.001 645h336v275h-320c-50.667 0 -91 -11.5 -121 -34.5s-45 -55.5 -45 -97.5c0 -95.333 50 -143 150 -143z" />
    <glyph glyph-name="caron" unicode="&#x44f;" horiz-adv-x="1171" 
d="M180 332c0 68 13.001 120.833 39.001 158.5s68.333 65.167 127 82.5c-60.667 26 -105.834 57.5 -135.501 94.5s-44.5 83.5 -44.5 139.5c0 72.667 28.333 135.167 85 187.5s140.334 78.5 251.001 78.5h526v-1073h-184v483h-342c-51.333 0 -87 -16.167 -107 -48.5
s-30 -71.5 -30 -117.5c0 -46.667 -5 -104 -15 -172s-21 -116.333 -33 -145h-188c17.333 44 30.166 97.833 38.499 161.5s12.5 120.5 12.5 170.5zM508.001 645h336v275h-320c-50.667 0 -91 -11.5 -121 -34.5s-45 -55.5 -45 -97.5c0 -95.333 50 -143 150 -143z" />
    <glyph glyph-name="aring" unicode="&#x152;" horiz-adv-x="1221" 
d="M139 1014l109 104l309 -307l313 307l109 -104l-311 -309l311 -314l-109 -104l-313 309l-309 -309l-109 104l310 314z" />
    <glyph glyph-name="uacute" unicode="&#x153;" horiz-adv-x="1425" 
d="M291 0l-193 203l486 1263h215l444 -1259l-131 -207h-821zM682 1243l-373 -1077h750z" />
    <glyph glyph-name="adieresis" unicode="&#x160;" horiz-adv-x="1014" 
d="M915 350c0 -80.667 -16.334 -149 -49.001 -205s-81.167 -98.667 -145.5 -128s-142.833 -44 -235.5 -44c-85.333 0 -160.333 14.5 -225 43.5s-114.667 69.667 -150 122s-53 111.833 -53 178.5c0 44.667 6.83301 82 20.5 112s37.5 57.167 71.5 81.5s80 48.833 138 73.5
l313 125c60 24.667 90 56 90 94s-18.833 68.667 -56.5 92s-85.834 35 -144.501 35c-137.333 0 -210.333 -57.333 -219 -172h-184c0 74 17.5 137 52.5 189s82.333 90.5 142 115.5s127.167 37.5 202.5 37.5c58 0 111.833 -7.66699 161.5 -23s91.834 -36.666 126.501 -63.999
s61.334 -60.166 80.001 -98.499s28 -80.5 28 -126.5c0 -58.667 -14.333 -106.834 -43 -144.501s-77.334 -71.167 -146.001 -100.5l-336 -144c-39.333 -16.667 -66.166 -32.334 -80.499 -47.001s-21.5 -33.667 -21.5 -57c0 -46.667 21.5 -84.334 64.5 -113.001
s98.5 -43 166.5 -43c55.333 0 100.666 7.33301 135.999 22s61.333 37.834 78 69.501s25.334 71.5 26.001 119.5h192zM466.999 1507h238l-226 -295h-151z" />
    <glyph glyph-name="odieresis" unicode="&#x161;" horiz-adv-x="506" 
d="M176 1466h152v-837l-152 -72v909zM328 -440h-152v839l152 72v-911z" />
    <glyph glyph-name="udieresis" unicode="&#x178;" 
d="M72 625v159h972v-159h-972zM459 508h205v-211h-205v211zM459 1112h205v-211h-205v211z" />
    <glyph glyph-name="Eacute" unicode="&#x192;" horiz-adv-x="1171" 
d="M915 915l-22.002 -127.002h-215l-135 -774c-18.667 -95.333 -39.5 -172.166 -62.5 -230.499s-59.167 -105.833 -108.5 -142.5s-118 -55 -206 -55c-16.667 0 -57 2 -121 6l27 162c72.667 0 126.834 6.5 162.501 19.5s61.667 36.333 78 70s31.5 87.167 45.5 160.5l144 784
h-189l27 127h188l37 230c12 64 27.333 117.667 46 161s42.834 79 72.501 107s64.5 48.333 104.5 61s87.333 19 142 19c38 0 77.667 -2.66699 119 -8l-31 -158h-23c-65.333 -4 -113.5 -11 -144.5 -21s-54.5 -27.667 -70.5 -53s-29 -64.666 -39 -117.999l-41 -220h215z" />
    <glyph glyph-name="agrave" unicode="&#x2c6;" 
d="M176 1466h852v-184h-647v-1282h-205v1466zM606 1876h238l-221 -289h-148z" />
    <glyph glyph-name="ograve" unicode="&#x2dc;" horiz-adv-x="1130" 
d="M1044 535c0 -116 -19.167 -216.167 -57.5 -300.5s-94.333 -149 -168 -194s-160.834 -67.5 -261.501 -67.5c-74.667 0 -142 12.833 -202 38.5s-111 62.667 -153 111s-74.167 107.833 -96.5 178.5s-33.5 148.667 -33.5 234c0 86.667 11.333 165.667 34 237
s54.834 131 96.501 179s92.334 84.833 152.001 110.5s127.167 38.5 202.5 38.5c59.333 0 110.166 -9.33301 152.499 -28s82.166 -51.667 119.499 -99c0 68.667 -11.833 129.167 -35.5 181.5s-56.667 92.833 -99 121.5s-88.166 43 -137.499 43
c-51.333 0 -97.5 -10.833 -138.5 -32.5s-76.167 -51.167 -105.5 -88.5l-90 121c28 40.667 73.833 76 137.5 106s123.167 45 178.5 45c63.333 0 123.5 -12.167 180.5 -36.5s110 -69.5 159 -135.5s88.833 -162 119.5 -288s46 -284.333 46 -475zM268 535
c0 -82.667 11.5 -153.668 34.5 -213.001s56.167 -104.666 99.5 -135.999s95 -47 155 -47c92.667 0 164.334 35.333 215.001 106s76 170 76 298c0 80.667 -11.333 150 -34 208s-56.167 102.333 -100.5 133s-96.5 46 -156.5 46s-111.833 -15.5 -155.5 -46.5
s-76.834 -75.833 -99.501 -134.5s-34 -130 -34 -214z" />
    <glyph glyph-name="ntilde" unicode="&#x2013;" horiz-adv-x="1239" 
d="M4 625h1112v-162h-1112v162z" />
    <glyph glyph-name="oacute" unicode="&#x2014;" horiz-adv-x="2163" 
d="M0 625h2009v-162h-2009v162z" />
    <glyph glyph-name="edieresis" unicode="&#x2018;" horiz-adv-x="506" 
d="M332 969h-219v207c0 58.667 8.66699 110.167 26 154.5s41.833 80.166 73.5 107.499s71.5 46.333 119.5 57v-104c-36 -14.667 -60.833 -34.667 -74.5 -60s-23.167 -69.666 -28.5 -132.999h103v-229z" />
    <glyph glyph-name="iacute" unicode="&#x2019;" horiz-adv-x="506" 
d="M113 1466l219 -0.00195312v-211c0 -60 -8.33301 -112 -25 -156s-41.5 -80 -74.5 -108s-72.833 -47 -119.5 -57v106c26 10.667 45.667 22.834 59 36.501s23.5 32.834 30.5 57.501s12.5 57.667 16.5 99h-106v233z" />
    <glyph glyph-name="Ccedilla" unicode="&#x201a;" horiz-adv-x="1239" 
d="M856 930h215v-123h-280l-72 -148h295v-129h-363v-530h-184v530h-361v129h297l-75 148h-275v123h207l-256 510h199l358 -713l354 713h197z" />
    <glyph glyph-name="igrave" unicode="&#x201c;" horiz-adv-x="784" 
d="M606 969h-220.999v207c0 57.333 8.33301 108.5 25 153.5s41.167 81.167 73.5 108.5s73.166 46.333 122.499 57v-104c-38 -14.667 -64.167 -35 -78.5 -61s-22.833 -70 -25.5 -132h104v-229zM287.001 969h-224v207c0 89.333 19.333 161.333 58 216s94 89 166 103v-104
c-38 -16 -64.333 -36.833 -79 -62.5s-24 -69.167 -28 -130.5h107v-229z" />
    <glyph glyph-name="icircumflex" unicode="&#x201d;" horiz-adv-x="784" 
d="M63 1466h224v-211c0 -88 -19.167 -159.5 -57.5 -214.5s-93.833 -90.5 -166.5 -106.5v106c38.667 16 65.167 36.833 79.5 62.5s23.5 69.167 27.5 130.5h-107v233zM385 1466l221 0.000976562v-211c0 -87.333 -18.833 -158.666 -56.5 -213.999s-92.5 -91 -164.5 -107v106
c25.333 10 45.333 21.667 60 35s25.167 32.666 31.5 57.999s10.5 58.666 12.5 99.999h-104v233z" />
    <glyph glyph-name="Ntilde" unicode="&#x201e;" horiz-adv-x="758" 
d="M63 233h224v-210c0 -59.333 -8.66699 -111.333 -26 -156s-42.5 -80.667 -75.5 -108s-73.833 -46 -122.5 -56v104c38.667 14 65.167 34.167 79.5 60.5s23.5 70.5 27.5 132.5h-107v233zM385 233l220.998 0.000976562v-210c0 -90.667 -18.667 -162.834 -56 -216.501
s-92.333 -88.167 -165 -103.5v104c26.667 9.33301 46.834 21 60.501 35s23.834 33.333 30.501 58s11 58 13 100h-104v233z" />
    <glyph glyph-name="Udieresis" unicode="&#x2020;" horiz-adv-x="1198" 
d="M72 1044h391v422h184v-422h397v-170h-397v-1179h-184v1179h-391v170z" />
    <glyph glyph-name="aacute" unicode="&#x2021;" horiz-adv-x="1130" 
d="M72 1044h391v422h184v-422h397v-170h-397v-573h397v-166h-397v-440h-184v440h-391v166h391v573h-391v170z" />
    <glyph glyph-name="idieresis" unicode="&#x2022;" 
d="M399 573c0 36.667 8.5 69.498 25.5 98.498s40.167 52.333 69.5 70s62 26.5 98 26.5c36.667 0 69.667 -8.66699 99 -26s52.833 -41 70.5 -71s26.5 -62.667 26.5 -98c0 -51.333 -19.5 -96.166 -58.5 -134.499s-84.833 -57.5 -137.5 -57.5s-98 19.333 -136 58
s-57 83.334 -57 134.001z" />
    <glyph glyph-name="Odieresis" unicode="&#x2026;" horiz-adv-x="1956" 
d="M225 229h219v-229h-219v229zM897 229h219v-229h-219v229zM1565 229h217v-229h-217v229z" />
    <glyph glyph-name="acircumflex" unicode="&#x2030;" horiz-adv-x="2118" 
d="M35 1055c0 130.667 22.832 229.832 68.499 297.499s112.834 101.5 201.501 101.5c84.667 0 149.167 -31.167 193.5 -93.5s66.5 -154.166 66.5 -275.499c0 -126.667 -23 -224.834 -69 -294.501s-112.333 -104.5 -199 -104.5c-85.333 0 -150.333 31.333 -195 94
s-67 154.334 -67 275.001zM1010 1440h116l-780 -1440h-117zM787.999 357.998c0 128 22.666 225.336 67.999 292.003s113 100 203 100c84.667 0 149.834 -31.167 195.501 -93.5s68.5 -152.833 68.5 -271.5c0 -128.667 -23.667 -227.334 -71 -296.001s-114.333 -103 -201 -103
c-42.667 0 -80.667 8.16699 -114 24.5s-61 40.166 -83 71.499s-38.5 70.166 -49.5 116.499s-16.5 99.5 -16.5 159.5zM1444 358.001c0 128 22.667 225.335 68 292.002s112.666 100 201.999 100c58 0 107 -14 147 -42s70.167 -68.833 90.5 -122.5s30.5 -120.5 30.5 -200.5
c0 -128 -24 -226.5 -72 -295.5s-115.333 -103.5 -202 -103.5c-43.333 0 -81.666 8.16699 -114.999 24.5s-61 40.166 -83 71.499s-38.5 70.166 -49.5 116.499s-16.5 99.5 -16.5 159.5zM910.998 362.003c0 -186.667 46.667 -280.002 140 -280.002c98 0 147 98.333 147 295
c0 182.667 -47.667 274 -143 274c-32 0 -58.667 -10.667 -80 -32s-37.333 -54.166 -48 -98.499s-16 -97.166 -16 -158.499zM157.998 1059c0 -93.333 11.167 -161.833 33.5 -205.5s57.5 -65.5 105.5 -65.5c95.333 0 143 97.667 143 293c0 94 -11 163 -33 207
s-57.333 66 -106 66c-49.333 0 -85.5 -23.833 -108.5 -71.5s-34.5 -122.167 -34.5 -223.5zM1567 362.001c0 -186.667 46.999 -280 140.999 -280c48.667 0 85.834 25.167 111.501 75.5s38.5 124.833 38.5 223.5c0 180 -49.333 270 -148 270c-95.333 0 -143 -96.333 -143 -289
z" />
    <glyph glyph-name="atilde" unicode="&#x2039;" horiz-adv-x="668" 
d="M467 131l-328 328v186l328 320v-226l-188 -186l188 -180v-242z" />
    <glyph glyph-name="otilde" unicode="&#x203a;" horiz-adv-x="668" 
d="M121 131v242l188 180l-188 186v226l323 -320v-186z" />
    <glyph glyph-name="ocircumflex" unicode="&#x2122;" horiz-adv-x="2046" 
d="M1847 1466v-878h-139v739l-283 -739h-84l-268 739v-739h-145v878h233l225 -610l234 610h227zM780 1466v-129h-256v-749h-155v749h-260v129h671z" />
    <glyph glyph-name="summation" unicode="&#x2219;" horiz-adv-x="573" 
d="M170 655h219v-225h-219v225z" />
    <glyph glyph-name=".null" horiz-adv-x="0" 
 />
    <glyph glyph-name="nonmarkingreturn" horiz-adv-x="0" 
 />
    <glyph glyph-name=".null" horiz-adv-x="0" 
 />
  </font>
</defs>
</svg>
